M48
;GenerationSoftware,Autodesk,EAGLE,9.5.2*%
;CreationDate,2020-08-12T09:49:24Z*%
FMAT,2
ICI,OFF
METRIC,TZ,000.000
T14C0.350
T13C0.600
T12C0.700
T11C0.800
T10C1.530
T9C1.600
T8C1.790
T7C2.000
T6C2.154
T5C2.435
T4C2.600
T3C2.700
T2C2.800
T1C4.000
%
G90
M71
T1
X3000Y65750
X3000Y13000
X104250Y13000
X104250Y65750
T2
X72690Y15800
X38006Y15794
X38006Y69794
X72690Y69800
T3
X96185Y39220
X96185Y46420
T4
X18152Y10594
T5
X21852Y9594
X11952Y9594
T6
X18052Y16894
X12852Y16894
X21452Y16894
T7
X103500Y29300
X91000Y29300
X103500Y56650
X91000Y56650
T8
X79345Y48260
X79345Y42800
X79345Y37340
X31455Y26140
X31455Y31600
X31455Y37060
T9
X96094Y15346
X91014Y15346
X91014Y17886
X91014Y20426
X96144Y64694
X91064Y64694
X91064Y67234
X91064Y69774
X96094Y20426
X96094Y17886
X96144Y69774
X96144Y67234
T10
X31200Y50080
X31200Y45000
T11
X13902Y31085
X13902Y33625
X13902Y36165
X13902Y38705
X13902Y41245
X13902Y43785
X13902Y46325
X13902Y48865
X13902Y53945
X-1338Y26005
X-1338Y28545
X-1338Y31085
X-1338Y46325
X-1338Y48865
X-1338Y51405
X-1338Y53945
X13902Y51405
X-1338Y61565
X13902Y61565
X13902Y59025
X13902Y56485
X-1338Y59025
X-1338Y56485
X-1338Y33625
X-1338Y43785
X-1338Y41245
X-1338Y36165
X-1338Y38705
X13902Y26005
X13902Y28545
T12
X28050Y10000
X28050Y12000
X28050Y14000
X28050Y16000
T13
X102185Y36070
X102185Y49570
X78700Y11200
X78700Y9930
X78700Y8660
T14
X36800Y58600
X58100Y49800
X50600Y59700
X47000Y51400
X44000Y51400
X45300Y65400
X39000Y59000
X49800Y60500
X50300Y66600
X61800Y61900
X60700Y54500
X57700Y69500
X26300Y57400
X50300Y45600
X61800Y49300
X49945Y43855
X53700Y43800
X93270Y46420
X96144Y64006
X26100Y66300
X17500Y66600
X10100Y66800
X37500Y46500
X65400Y53200
X54600Y60300
X39300Y55600
X67600Y58200
X75300Y46700
X66700Y57000
X73700Y47800
X66500Y54750
X36800Y50300
X81150Y54900
X68400Y59400
X6400Y28600
X47100Y67800
X46600Y43900
X54200Y54800
X32800Y55100
X52800Y52600
X55290Y9930
X18100Y44200
X57700Y63600
X51700Y69100
X18100Y51600
X57700Y64600
X7500Y62300
X53000Y48200
X57000Y48600
X52700Y70100
X25600Y43200
X46500Y35700
X63200Y62200
X60700Y53300
X64200Y65800
M30