G04 EAGLE Gerber RS-274X export*
G75*
%MOMM*%
%FSLAX34Y34*%
%LPD*%
%INBottom Copper*%
%IPPOS*%
%AMOC8*
5,1,8,0,0,1.08239X$1,22.5*%
G01*
%ADD10R,2.200000X0.600000*%
%ADD11R,1.080000X1.050000*%
%ADD12C,4.050000*%
%ADD13C,1.300000*%
%ADD14C,4.200000*%
%ADD15C,3.231150*%
%ADD16C,3.653000*%
%ADD17C,1.200000*%
%ADD18C,2.400000*%
%ADD19R,1.400000X0.600000*%
%ADD20R,1.050000X1.050000*%
%ADD21C,1.050000*%
%ADD22R,2.690000X2.690000*%
%ADD23C,2.690000*%
%ADD24R,3.400000X4.600000*%
%ADD25C,1.000000*%
%ADD26C,3.000000*%
%ADD27R,1.400000X0.300000*%
%ADD28R,1.300000X1.200000*%
%ADD29R,1.200000X1.300000*%
%ADD30R,2.295000X2.295000*%
%ADD31C,2.295000*%
%ADD32C,0.500000*%
%ADD33C,0.600000*%
%ADD34C,0.300000*%
%ADD35C,1.000000*%
%ADD36C,0.508000*%
%ADD37C,4.000000*%
%ADD38C,3.000000*%
%ADD39C,5.000000*%
%ADD40C,6.000000*%


D10*
X632880Y570520D03*
X632880Y507020D03*
X632880Y583220D03*
X632880Y557820D03*
X632880Y545120D03*
X580880Y507020D03*
X632880Y519720D03*
X632880Y532420D03*
X580880Y519720D03*
X580880Y532420D03*
X580880Y545120D03*
X580880Y557820D03*
X580880Y570520D03*
X580880Y583220D03*
D11*
X223000Y591750D03*
X223000Y574250D03*
X241000Y591750D03*
X241000Y574250D03*
X204840Y591790D03*
X204840Y574290D03*
X184000Y591750D03*
X184000Y574250D03*
D12*
X961850Y392200D03*
X961850Y464200D03*
D13*
X1015350Y360700D02*
X1028350Y360700D01*
X1028350Y495700D02*
X1015350Y495700D01*
D14*
X380060Y157942D03*
X380060Y697942D03*
X726900Y698000D03*
X726900Y158000D03*
D15*
X214520Y168940D03*
X128520Y168940D03*
X180520Y168940D03*
D16*
X119520Y95940D03*
X218520Y95940D03*
D17*
X145020Y260050D02*
X133020Y260050D01*
X133020Y285450D02*
X145020Y285450D01*
X145020Y310850D02*
X133020Y310850D01*
X133020Y336250D02*
X145020Y336250D01*
X145020Y361650D02*
X133020Y361650D01*
X133020Y387050D02*
X145020Y387050D01*
X145020Y412450D02*
X133020Y412450D01*
X133020Y437850D02*
X145020Y437850D01*
X145020Y463250D02*
X133020Y463250D01*
X133020Y488650D02*
X145020Y488650D01*
X145020Y514050D02*
X133020Y514050D01*
X133020Y539450D02*
X145020Y539450D01*
X-7380Y260050D02*
X-19380Y260050D01*
X-19380Y285450D02*
X-7380Y285450D01*
X-7380Y310850D02*
X-19380Y310850D01*
X-19380Y463250D02*
X-7380Y463250D01*
X-7380Y488650D02*
X-19380Y488650D01*
X-19380Y514050D02*
X-7380Y514050D01*
X-7380Y539450D02*
X-19380Y539450D01*
X-19380Y615650D02*
X-7380Y615650D01*
X133020Y615650D02*
X145020Y615650D01*
X145020Y590250D02*
X133020Y590250D01*
X133020Y564850D02*
X145020Y564850D01*
X-7380Y590250D02*
X-19380Y590250D01*
X-19380Y564850D02*
X-7380Y564850D01*
X-7380Y336250D02*
X-19380Y336250D01*
X-19380Y437850D02*
X-7380Y437850D01*
X-7380Y412450D02*
X-19380Y412450D01*
X-19380Y387050D02*
X-7380Y387050D01*
X-7380Y361650D02*
X-19380Y361650D01*
D18*
X910140Y204260D03*
X910140Y178860D03*
X910140Y153460D03*
X960940Y153460D03*
X960940Y178860D03*
X960940Y204260D03*
X910640Y697740D03*
X910640Y672340D03*
X910640Y646940D03*
X961440Y646940D03*
X961440Y672340D03*
X961440Y697740D03*
D19*
X618500Y655500D03*
X618500Y646000D03*
X618500Y636500D03*
X593500Y636500D03*
X593500Y646000D03*
X593500Y655500D03*
D20*
X280500Y100000D03*
D21*
X280500Y120000D03*
X280500Y140000D03*
X280500Y160000D03*
D22*
X314550Y370600D03*
D23*
X314550Y316000D03*
X314550Y261400D03*
D22*
X793450Y373400D03*
D23*
X793450Y428000D03*
X793450Y482600D03*
D24*
X861000Y519000D03*
X816000Y519000D03*
X861000Y585000D03*
X816000Y585000D03*
D25*
X787000Y112000D03*
X787000Y99300D03*
X787000Y86600D03*
D26*
X910000Y566500D03*
X1035000Y566500D03*
X910000Y293000D03*
X1035000Y293000D03*
D27*
X599000Y701000D03*
X599000Y696000D03*
X599000Y691000D03*
X599000Y686000D03*
X599000Y681000D03*
X555000Y681000D03*
X555000Y686000D03*
X555000Y691000D03*
X555000Y696000D03*
X555000Y701000D03*
D28*
X682000Y679840D03*
X682000Y700160D03*
D29*
X682160Y656000D03*
X661840Y656000D03*
D28*
X658000Y679840D03*
X658000Y700160D03*
D29*
X201160Y488000D03*
X180840Y488000D03*
X201160Y462000D03*
X180840Y462000D03*
X520160Y629000D03*
X499840Y629000D03*
X475160Y629000D03*
X454840Y629000D03*
X455840Y581000D03*
X476160Y581000D03*
X455840Y605000D03*
X476160Y605000D03*
X431160Y605000D03*
X410840Y605000D03*
X431160Y581000D03*
X410840Y581000D03*
X739840Y344000D03*
X760160Y344000D03*
X377160Y397000D03*
X356840Y397000D03*
X410840Y557000D03*
X431160Y557000D03*
D28*
X560000Y603840D03*
X560000Y624160D03*
D29*
X345160Y581000D03*
X324840Y581000D03*
X357840Y475000D03*
X378160Y475000D03*
X324840Y605000D03*
X345160Y605000D03*
X367840Y605000D03*
X388160Y605000D03*
X646840Y613000D03*
X667160Y613000D03*
X377160Y449000D03*
X356840Y449000D03*
X377160Y423000D03*
X356840Y423000D03*
X739840Y315000D03*
X760160Y315000D03*
D30*
X312000Y450000D03*
D31*
X312000Y500800D03*
D29*
X454840Y695000D03*
X475160Y695000D03*
X377160Y370000D03*
X356840Y370000D03*
X739840Y373000D03*
X760160Y373000D03*
D32*
X580880Y583220D02*
X553220Y583220D01*
X514000Y544000D02*
X514000Y422000D01*
X462000Y370000D01*
X377160Y370000D01*
X514000Y544000D02*
X553220Y583220D01*
X377160Y397000D02*
X377160Y370000D01*
X377160Y423000D02*
X377160Y449000D01*
X377160Y423000D02*
X432000Y423000D01*
X448000Y439000D02*
X466000Y439000D01*
X448000Y439000D02*
X432000Y423000D01*
D33*
X466000Y439000D03*
X542000Y548000D03*
D32*
X564520Y570520D01*
X580880Y570520D01*
X324840Y581000D02*
X324840Y605000D01*
D34*
X324840Y581000D02*
X324840Y554160D01*
X328000Y551000D01*
D33*
X328000Y551000D03*
X528000Y526000D03*
D34*
X528000Y484000D01*
X530000Y482000D01*
D33*
X530000Y482000D03*
X570000Y486000D03*
D34*
X562000Y494000D01*
X562000Y513000D02*
X569000Y520000D01*
X580600Y520000D01*
X580880Y519720D01*
X562000Y513000D02*
X562000Y494000D01*
D32*
X367840Y605000D02*
X345160Y605000D01*
D34*
X367840Y605000D02*
X367840Y586160D01*
X368000Y586000D01*
D33*
X368000Y586000D03*
X581000Y498000D03*
D34*
X580880Y498120D01*
X580880Y507020D01*
D32*
X499840Y629000D02*
X475160Y629000D01*
D34*
X632880Y532420D02*
X653580Y532420D01*
X654000Y532000D01*
D33*
X654000Y532000D03*
X506000Y597000D03*
D34*
X506000Y622840D01*
X499840Y629000D01*
D35*
X847130Y178860D02*
X910140Y178860D01*
D34*
X348000Y514000D02*
X335000Y501000D01*
X335000Y415000D02*
X322000Y402000D01*
X291000Y402000D01*
X335000Y415000D02*
X335000Y501000D01*
X291000Y402000D02*
X277000Y388000D01*
X277000Y346000D01*
X307000Y316000D01*
X314550Y316000D01*
X470000Y514000D02*
X520160Y564160D01*
D33*
X470000Y514000D03*
X440000Y514000D03*
D34*
X348000Y514000D01*
X520160Y564160D02*
X520160Y629000D01*
D35*
X847130Y178860D02*
X840000Y171730D01*
X840000Y127300D01*
X824700Y112000D02*
X787000Y112000D01*
X824700Y112000D02*
X840000Y127300D01*
D32*
X356840Y397000D02*
X356840Y423000D01*
D34*
X618500Y655500D02*
X618500Y663500D01*
X613000Y669000D01*
X583000Y669000D01*
X560000Y646000D01*
X560000Y624160D01*
D32*
X410840Y605000D02*
X388160Y605000D01*
D34*
X584000Y681000D02*
X599000Y681000D01*
X584000Y681000D02*
X551000Y648000D01*
X459000Y648000D01*
X453000Y654000D01*
D33*
X453000Y654000D03*
X390000Y590000D03*
D34*
X390000Y603160D01*
X388160Y605000D01*
X577000Y686000D02*
X599000Y686000D01*
X476160Y605000D02*
X476160Y581000D01*
X476160Y605000D02*
X498000Y605000D01*
D33*
X498000Y605000D03*
X503000Y666000D03*
D34*
X557000Y666000D01*
X577000Y686000D01*
D36*
X205010Y574120D02*
X204840Y574290D01*
D32*
X188200Y539450D02*
X180000Y539450D01*
X180000Y570250D02*
X184000Y574250D01*
X180000Y570250D02*
X180000Y539450D01*
X139020Y539450D01*
X184000Y574250D02*
X204800Y574250D01*
X204840Y574290D01*
X222960Y574290D01*
X223000Y574250D01*
X241000Y574250D01*
X201160Y488000D02*
X201160Y462000D01*
X201160Y488000D02*
X201160Y526490D01*
X188200Y539450D01*
D34*
X658000Y679840D02*
X661840Y676000D01*
X661840Y656000D01*
X644000Y656000D01*
X642000Y658000D01*
D33*
X642000Y658000D03*
X618000Y619000D03*
D34*
X618000Y636000D01*
X618500Y636500D01*
X607120Y545120D02*
X632880Y545120D01*
X607120Y545120D02*
X607000Y545000D01*
D33*
X607000Y545000D03*
D34*
X573000Y691000D02*
X555000Y691000D01*
X573000Y691000D02*
X577000Y695000D01*
D33*
X577000Y695000D03*
X263000Y574000D03*
D34*
X241250Y574000D01*
X241000Y574250D01*
X632880Y519720D02*
X632880Y507020D01*
X455840Y503160D02*
X455840Y581000D01*
X455840Y503160D02*
X503000Y456000D01*
D33*
X503000Y456000D03*
X618000Y493000D03*
D34*
X632020Y507020D01*
X632880Y507020D01*
D32*
X463000Y475000D02*
X378160Y475000D01*
X463000Y475000D02*
X499450Y438550D01*
D33*
X499450Y438550D03*
X537000Y438000D03*
D32*
X552000Y453000D01*
X552000Y525000D01*
X559420Y532420D01*
X580880Y532420D01*
D37*
X910640Y697740D02*
X961440Y697740D01*
X961440Y672340D02*
X910640Y672340D01*
X910640Y646940D02*
X910640Y697740D01*
X910640Y646940D02*
X961440Y646940D01*
X961440Y675000D01*
X961440Y697740D01*
X911280Y566500D02*
X1035000Y566500D01*
X932700Y464200D01*
X910000Y486900D02*
X910000Y566500D01*
X910000Y486900D02*
X932700Y464200D01*
X947500Y529000D02*
X997500Y529000D01*
X972580Y585000D02*
X910640Y646940D01*
X930500Y587000D02*
X979000Y587000D01*
X910640Y567140D02*
X910640Y646940D01*
D35*
X221580Y94000D02*
X219640Y95940D01*
X218520Y95940D01*
X119520Y95940D02*
X119520Y159940D01*
X128520Y168940D01*
X180520Y168940D01*
X245000Y122420D02*
X218520Y95940D01*
X245000Y122420D02*
X245000Y149000D01*
X256000Y160000D01*
X280500Y160000D01*
D33*
X932700Y464200D03*
X961440Y640060D03*
D38*
X932700Y464200D02*
X915800Y464200D01*
X861000Y519000D01*
X861000Y525000D01*
X910640Y574640D01*
X910640Y646940D01*
X911280Y566500D02*
X911280Y550500D01*
X879780Y519000D01*
X861000Y519000D01*
X861000Y585000D02*
X870000Y585000D01*
X878000Y593000D01*
X887000Y593000D01*
X887000Y577000D01*
X897500Y566500D01*
X910000Y566500D01*
X911280Y566500D01*
D32*
X861000Y585000D02*
X861000Y609000D01*
X431160Y581000D02*
X431160Y557000D01*
X431160Y581000D02*
X431160Y605000D01*
X455840Y605000D01*
X454840Y629000D01*
X204800Y591750D02*
X184000Y591750D01*
X204800Y591750D02*
X204840Y591790D01*
X184000Y591750D02*
X182500Y590250D01*
X139020Y590250D01*
X204840Y591790D02*
X222960Y591790D01*
X223000Y591750D01*
X241000Y591750D01*
X265250Y591750D01*
X312000Y545000D01*
X312000Y500800D01*
X618500Y646000D02*
X632000Y646000D01*
X639000Y639000D01*
X650000Y639000D01*
X677000Y639000D01*
X682160Y644160D02*
X682160Y656000D01*
X682160Y644160D02*
X677000Y639000D01*
X682160Y656000D02*
X814000Y656000D01*
X861000Y609000D01*
X682000Y656160D02*
X682000Y679840D01*
X682000Y656160D02*
X682160Y656000D01*
D34*
X682000Y679840D02*
X679160Y679840D01*
X601500Y655500D02*
X593500Y655500D01*
X601500Y655500D02*
X611000Y646000D01*
X618500Y646000D01*
X594880Y545120D02*
X580880Y545120D01*
X594880Y545120D02*
X607000Y533000D01*
D33*
X607000Y533000D03*
X632000Y622000D03*
D34*
X649000Y639000D01*
X650000Y639000D01*
X388160Y538000D02*
X345160Y581000D01*
X388160Y538000D02*
X418000Y538000D01*
X431160Y551160D01*
X431160Y557000D01*
D35*
X280500Y194500D02*
X280500Y160000D01*
X280500Y194500D02*
X256000Y219000D01*
X256000Y432000D01*
X256000Y470000D01*
X287000Y501000D01*
X311800Y501000D01*
X312000Y500800D01*
D32*
X345160Y534360D02*
X345160Y581000D01*
X345160Y534360D02*
X311800Y501000D01*
D34*
X607000Y489000D02*
X607000Y533000D01*
X607000Y489000D02*
X475000Y357000D01*
X465000Y357000D01*
D33*
X465000Y357000D03*
D34*
X599000Y691000D02*
X621000Y691000D01*
X632000Y680000D01*
X632000Y646000D01*
D37*
X935000Y491050D02*
X961850Y464200D01*
X935000Y491050D02*
X935000Y550000D01*
X918500Y566500D01*
X910000Y566500D01*
X932700Y464200D02*
X961850Y464200D01*
X987350Y489700D01*
X987350Y507298D01*
X1035000Y554948D02*
X1035000Y566500D01*
X1035000Y554948D02*
X987350Y507298D01*
D33*
X256000Y432000D03*
D35*
X1021850Y495700D02*
X1021850Y360700D01*
X990350Y464200D02*
X1021850Y495700D01*
X990350Y464200D02*
X961850Y464200D01*
X1016150Y490000D02*
X1021850Y495700D01*
X1016150Y490000D02*
X1005000Y490000D01*
X1005000Y505000D01*
X1015000Y505000D01*
X1035000Y525000D01*
X1035000Y554948D01*
X1021850Y501850D02*
X1021850Y495700D01*
X1021850Y501850D02*
X1035000Y515000D01*
X1035000Y566500D01*
X140460Y75000D02*
X119520Y95940D01*
X202580Y75000D02*
X221580Y94000D01*
X202580Y75000D02*
X140460Y75000D01*
D39*
X961850Y464200D02*
X1035000Y537350D01*
X1035000Y566500D01*
X961440Y640060D01*
X961440Y675000D01*
X961850Y464200D02*
X926450Y464200D01*
X882650Y508000D01*
X882650Y572650D01*
X887000Y577000D01*
D32*
X180840Y488000D02*
X156090Y463250D01*
X139020Y463250D01*
D34*
X527000Y701000D02*
X555000Y701000D01*
D33*
X527000Y701000D03*
X577000Y646000D03*
D34*
X593500Y646000D01*
X180840Y515840D02*
X180840Y488000D01*
X180840Y515840D02*
X181000Y516000D01*
D33*
X181000Y516000D03*
D32*
X180840Y462000D02*
X156690Y437850D01*
X139020Y437850D01*
D33*
X517000Y691000D03*
D34*
X537257Y696000D02*
X555000Y696000D01*
X532257Y691000D02*
X517000Y691000D01*
X532257Y691000D02*
X537257Y696000D01*
D33*
X577000Y636000D03*
D34*
X593000Y636000D01*
X593500Y636500D01*
D33*
X181000Y442000D03*
D34*
X180840Y442160D01*
X180840Y462000D01*
D35*
X214520Y178480D02*
X214520Y168940D01*
X159500Y233500D02*
X117500Y233500D01*
X87000Y264000D01*
X159500Y233500D02*
X214520Y178480D01*
X87000Y264000D02*
X87000Y583000D01*
X120000Y616000D01*
X138670Y616000D01*
X139020Y615650D01*
X552900Y99300D02*
X787000Y99300D01*
X552900Y99300D02*
X281200Y99300D01*
X280500Y100000D01*
D33*
X552900Y99300D03*
D34*
X475160Y684000D02*
X475160Y695000D01*
X535257Y684000D02*
X537257Y686000D01*
X555000Y686000D01*
X535257Y684000D02*
X475160Y684000D01*
X476160Y694000D02*
X475160Y695000D01*
X476160Y694000D02*
X476160Y684160D01*
X471000Y679000D01*
X471000Y678000D01*
D33*
X471000Y678000D03*
D34*
X599000Y701000D02*
X610000Y701000D01*
X623000Y714000D01*
X678000Y714000D01*
X682000Y710000D01*
X682000Y700160D01*
X658000Y700160D02*
X653840Y696000D01*
X599000Y696000D01*
X454840Y695000D02*
X432000Y695000D01*
X375000Y638000D01*
X280000Y638000D01*
X278000Y638000D01*
X153000Y638000D01*
X149000Y642000D01*
X120000Y642000D01*
X64000Y586000D02*
X64000Y286000D01*
D33*
X64000Y286000D03*
D34*
X64000Y586000D02*
X120000Y642000D01*
D37*
X793450Y512450D02*
X793450Y482600D01*
X793450Y512450D02*
X803000Y522000D01*
D38*
X789000Y511000D02*
X789000Y487050D01*
X793450Y482600D01*
X808000Y511000D02*
X816000Y519000D01*
X808000Y511000D02*
X789000Y511000D01*
D32*
X810000Y519000D02*
X816000Y519000D01*
X810000Y519000D02*
X783000Y519000D01*
D33*
X684000Y594000D03*
D32*
X667160Y610840D01*
X667160Y613000D01*
D33*
X811500Y549000D03*
D32*
X826000Y549000D01*
X830000Y545000D01*
X830000Y539000D02*
X810000Y519000D01*
X830000Y539000D02*
X830000Y545000D01*
D38*
X816000Y585000D02*
X800000Y585000D01*
D37*
X797000Y585000D02*
X781000Y585000D01*
X797000Y585000D02*
X800000Y585000D01*
D40*
X771000Y575350D02*
X771000Y575000D01*
X771000Y575350D02*
X680500Y484850D01*
X457050Y261400D01*
X314550Y261400D01*
D37*
X771000Y575000D02*
X781000Y585000D01*
D32*
X357840Y475000D02*
X357840Y450000D01*
X356840Y449000D01*
X356840Y491840D01*
X368000Y503000D01*
D33*
X368000Y503000D03*
D32*
X649750Y469750D02*
X664850Y484850D01*
X680500Y484850D01*
D33*
X665000Y547500D03*
D32*
X735000Y617500D01*
X825000Y617500D02*
X830000Y612500D01*
X830000Y599000D01*
X816000Y585000D01*
X825000Y617500D02*
X735000Y617500D01*
D40*
X346950Y229000D02*
X314550Y261400D01*
X346950Y229000D02*
X480000Y229000D01*
X665000Y414000D01*
X665000Y453000D01*
D37*
X797000Y585000D01*
D32*
X739840Y315000D02*
X721000Y315000D01*
X714000Y322000D01*
X714000Y455000D01*
X737000Y478000D01*
D33*
X737000Y478000D03*
X667000Y570000D03*
D32*
X633400Y570000D01*
X632880Y570520D01*
D34*
X634000Y613000D02*
X646840Y613000D01*
X634000Y613000D02*
X612000Y591000D01*
X612000Y578000D01*
X619480Y570520D02*
X632880Y570520D01*
X619480Y570520D02*
X612000Y578000D01*
D32*
X760160Y344000D02*
X760160Y315000D01*
X739840Y373000D02*
X739840Y453840D01*
X753000Y467000D01*
D33*
X753000Y467000D03*
X676000Y582000D03*
D32*
X634100Y582000D01*
X632880Y583220D01*
X739840Y373000D02*
X739840Y344000D01*
X410840Y557000D02*
X410840Y581000D01*
D34*
X560000Y603840D02*
X589160Y603840D01*
X602000Y591000D01*
X602000Y568000D01*
X591820Y557820D02*
X580880Y557820D01*
X591820Y557820D02*
X602000Y568000D01*
X580880Y557820D02*
X632880Y557820D01*
X410840Y557000D02*
X394000Y557000D01*
X393000Y556000D01*
D33*
X393000Y556000D03*
X546000Y603000D03*
D34*
X559160Y603000D01*
X560000Y603840D01*
D33*
X375000Y465000D03*
D35*
X356840Y370000D02*
X315150Y370000D01*
X314550Y370600D01*
X793050Y373000D02*
X793450Y373400D01*
X793050Y373000D02*
X760160Y373000D01*
D33*
X75000Y623000D03*
D34*
X26000Y574000D01*
X26000Y300000D02*
X11000Y285000D01*
X-12930Y285000D01*
X-13380Y285450D01*
X26000Y300000D02*
X26000Y574000D01*
D33*
X101000Y668000D03*
D34*
X16000Y583000D01*
X16000Y325000D01*
X1850Y310850D01*
X-13380Y310850D01*
D33*
X175000Y666000D03*
D32*
X176000Y667000D02*
X257000Y667000D01*
X176000Y667000D02*
X175000Y666000D01*
X257000Y667000D02*
X261000Y663000D01*
D33*
X261000Y663000D03*
M02*
