G04 EAGLE Gerber RS-274X export*
G75*
%MOMM*%
%FSLAX34Y34*%
%LPD*%
%IN*%
%IPPOS*%
%AMOC8*
5,1,8,0,0,1.08239X$1,22.5*%
G01*
%ADD10C,0.254000*%


D10*
X-42500Y130000D02*
X-42224Y123681D01*
X-41399Y117411D01*
X-40030Y111236D01*
X-38128Y105204D01*
X-35707Y99360D01*
X-32787Y93750D01*
X-29389Y88416D01*
X-25538Y83398D01*
X-21265Y78735D01*
X-16602Y74462D01*
X-11584Y70612D01*
X-6250Y67213D01*
X-640Y64293D01*
X5204Y61872D01*
X11236Y59970D01*
X17410Y58601D01*
X23681Y57776D01*
X30000Y57500D01*
X1042500Y57500D01*
X1048819Y57776D01*
X1055090Y58601D01*
X1061264Y59970D01*
X1067296Y61872D01*
X1073140Y64293D01*
X1078750Y67213D01*
X1084084Y70611D01*
X1089102Y74462D01*
X1093765Y78735D01*
X1098038Y83398D01*
X1101889Y88416D01*
X1105287Y93750D01*
X1108207Y99360D01*
X1110628Y105204D01*
X1112530Y111236D01*
X1113899Y117411D01*
X1114724Y123681D01*
X1115000Y130000D01*
X1115000Y657500D01*
X1114724Y663819D01*
X1113899Y670090D01*
X1112530Y676264D01*
X1110628Y682296D01*
X1108207Y688140D01*
X1105287Y693750D01*
X1101889Y699084D01*
X1098038Y704102D01*
X1093765Y708765D01*
X1089102Y713038D01*
X1084084Y716889D01*
X1078750Y720287D01*
X1073140Y723207D01*
X1067296Y725628D01*
X1061264Y727530D01*
X1055090Y728899D01*
X1048819Y729724D01*
X1042500Y730000D01*
X30000Y730000D01*
X23681Y729724D01*
X17411Y728899D01*
X11236Y727530D01*
X5204Y725628D01*
X-640Y723207D01*
X-6250Y720287D01*
X-11584Y716889D01*
X-16602Y713038D01*
X-21265Y708765D01*
X-25538Y704102D01*
X-29389Y699084D01*
X-32787Y693750D01*
X-35707Y688140D01*
X-38128Y682297D01*
X-40030Y676264D01*
X-41399Y670090D01*
X-42224Y663819D01*
X-42500Y657500D01*
X-42500Y130000D01*
X1013350Y492700D02*
X1030350Y492700D01*
X1030350Y498700D01*
X1013350Y498700D01*
X1013350Y492700D01*
X1013350Y357700D02*
X1030350Y357700D01*
X1030350Y363700D01*
X1013350Y363700D01*
X1013350Y357700D01*
X181984Y118940D02*
X182911Y118874D01*
X183830Y118742D01*
X184737Y118544D01*
X185628Y118283D01*
X186498Y117958D01*
X187343Y117572D01*
X188158Y117127D01*
X188939Y116625D01*
X189682Y116069D01*
X190384Y115461D01*
X191041Y114804D01*
X191649Y114102D01*
X192205Y113359D01*
X192707Y112578D01*
X193152Y111763D01*
X193538Y110918D01*
X193863Y110048D01*
X194124Y109157D01*
X194322Y108250D01*
X194454Y107331D01*
X194520Y106404D01*
X194520Y105476D01*
X194454Y104549D01*
X194322Y103630D01*
X194124Y102723D01*
X193863Y101832D01*
X193538Y100962D01*
X193152Y100117D01*
X192707Y99302D01*
X192205Y98521D01*
X191649Y97778D01*
X191041Y97076D01*
X190384Y96419D01*
X189682Y95811D01*
X188939Y95255D01*
X188158Y94753D01*
X187343Y94308D01*
X186498Y93922D01*
X185628Y93597D01*
X184737Y93336D01*
X183830Y93138D01*
X182911Y93006D01*
X181984Y92940D01*
X181056Y92940D01*
X180129Y93006D01*
X179210Y93138D01*
X178303Y93336D01*
X177412Y93597D01*
X176542Y93922D01*
X175697Y94308D01*
X174882Y94753D01*
X174101Y95255D01*
X173358Y95811D01*
X172656Y96419D01*
X171999Y97076D01*
X171391Y97778D01*
X170835Y98521D01*
X170333Y99302D01*
X169888Y100117D01*
X169502Y100962D01*
X169177Y101832D01*
X168916Y102723D01*
X168718Y103630D01*
X168586Y104549D01*
X168520Y105476D01*
X168520Y106404D01*
X168586Y107331D01*
X168718Y108250D01*
X168916Y109157D01*
X169177Y110048D01*
X169502Y110918D01*
X169888Y111763D01*
X170333Y112578D01*
X170835Y113359D01*
X171391Y114102D01*
X171999Y114804D01*
X172656Y115461D01*
X173358Y116069D01*
X174101Y116625D01*
X174882Y117127D01*
X175697Y117572D01*
X176542Y117958D01*
X177412Y118283D01*
X178303Y118544D01*
X179210Y118742D01*
X180129Y118874D01*
X181056Y118940D01*
X181984Y118940D01*
X50000Y656896D02*
X49927Y655689D01*
X49781Y654489D01*
X49563Y653300D01*
X49274Y652127D01*
X48915Y650973D01*
X48486Y649843D01*
X47990Y648741D01*
X47428Y647670D01*
X46803Y646636D01*
X46116Y645641D01*
X45371Y644690D01*
X44569Y643785D01*
X43715Y642931D01*
X42810Y642129D01*
X41859Y641384D01*
X40864Y640697D01*
X39830Y640072D01*
X38759Y639510D01*
X37657Y639014D01*
X36527Y638585D01*
X35373Y638226D01*
X34200Y637937D01*
X33011Y637719D01*
X31811Y637573D01*
X30604Y637500D01*
X29396Y637500D01*
X28189Y637573D01*
X26989Y637719D01*
X25800Y637937D01*
X24627Y638226D01*
X23473Y638585D01*
X22343Y639014D01*
X21241Y639510D01*
X20170Y640072D01*
X19136Y640697D01*
X18141Y641384D01*
X17190Y642129D01*
X16285Y642931D01*
X15431Y643785D01*
X14629Y644690D01*
X13884Y645641D01*
X13197Y646636D01*
X12572Y647670D01*
X12010Y648741D01*
X11514Y649843D01*
X11085Y650973D01*
X10726Y652127D01*
X10437Y653300D01*
X10219Y654489D01*
X10073Y655689D01*
X10000Y656896D01*
X10000Y658104D01*
X10073Y659311D01*
X10219Y660511D01*
X10437Y661700D01*
X10726Y662873D01*
X11085Y664027D01*
X11514Y665157D01*
X12010Y666259D01*
X12572Y667330D01*
X13197Y668364D01*
X13884Y669359D01*
X14629Y670310D01*
X15431Y671215D01*
X16285Y672069D01*
X17190Y672871D01*
X18141Y673616D01*
X19136Y674303D01*
X20170Y674928D01*
X21241Y675490D01*
X22343Y675986D01*
X23473Y676415D01*
X24627Y676774D01*
X25800Y677063D01*
X26989Y677281D01*
X28189Y677427D01*
X29396Y677500D01*
X30604Y677500D01*
X31811Y677427D01*
X33011Y677281D01*
X34200Y677063D01*
X35373Y676774D01*
X36527Y676415D01*
X37657Y675986D01*
X38759Y675490D01*
X39830Y674928D01*
X40864Y674303D01*
X41859Y673616D01*
X42810Y672871D01*
X43715Y672069D01*
X44569Y671215D01*
X45371Y670310D01*
X46116Y669359D01*
X46803Y668364D01*
X47428Y667330D01*
X47990Y666259D01*
X48486Y665157D01*
X48915Y664027D01*
X49274Y662873D01*
X49563Y661700D01*
X49781Y660511D01*
X49927Y659311D01*
X50000Y658104D01*
X50000Y656896D01*
X50000Y129396D02*
X49927Y128189D01*
X49781Y126989D01*
X49563Y125800D01*
X49274Y124627D01*
X48915Y123473D01*
X48486Y122343D01*
X47990Y121241D01*
X47428Y120170D01*
X46803Y119136D01*
X46116Y118141D01*
X45371Y117190D01*
X44569Y116285D01*
X43715Y115431D01*
X42810Y114629D01*
X41859Y113884D01*
X40864Y113197D01*
X39830Y112572D01*
X38759Y112010D01*
X37657Y111514D01*
X36527Y111085D01*
X35373Y110726D01*
X34200Y110437D01*
X33011Y110219D01*
X31811Y110073D01*
X30604Y110000D01*
X29396Y110000D01*
X28189Y110073D01*
X26989Y110219D01*
X25800Y110437D01*
X24627Y110726D01*
X23473Y111085D01*
X22343Y111514D01*
X21241Y112010D01*
X20170Y112572D01*
X19136Y113197D01*
X18141Y113884D01*
X17190Y114629D01*
X16285Y115431D01*
X15431Y116285D01*
X14629Y117190D01*
X13884Y118141D01*
X13197Y119136D01*
X12572Y120170D01*
X12010Y121241D01*
X11514Y122343D01*
X11085Y123473D01*
X10726Y124627D01*
X10437Y125800D01*
X10219Y126989D01*
X10073Y128189D01*
X10000Y129396D01*
X10000Y130604D01*
X10073Y131811D01*
X10219Y133011D01*
X10437Y134200D01*
X10726Y135373D01*
X11085Y136527D01*
X11514Y137657D01*
X12010Y138759D01*
X12572Y139830D01*
X13197Y140864D01*
X13884Y141859D01*
X14629Y142810D01*
X15431Y143715D01*
X16285Y144569D01*
X17190Y145371D01*
X18141Y146116D01*
X19136Y146803D01*
X20170Y147428D01*
X21241Y147990D01*
X22343Y148486D01*
X23473Y148915D01*
X24627Y149274D01*
X25800Y149563D01*
X26989Y149781D01*
X28189Y149927D01*
X29396Y150000D01*
X30604Y150000D01*
X31811Y149927D01*
X33011Y149781D01*
X34200Y149563D01*
X35373Y149274D01*
X36527Y148915D01*
X37657Y148486D01*
X38759Y147990D01*
X39830Y147428D01*
X40864Y146803D01*
X41859Y146116D01*
X42810Y145371D01*
X43715Y144569D01*
X44569Y143715D01*
X45371Y142810D01*
X46116Y141859D01*
X46803Y140864D01*
X47428Y139830D01*
X47990Y138759D01*
X48486Y137657D01*
X48915Y136527D01*
X49274Y135373D01*
X49563Y134200D01*
X49781Y133011D01*
X49927Y131811D01*
X50000Y130604D01*
X50000Y129396D01*
X1062500Y129396D02*
X1062427Y128189D01*
X1062281Y126989D01*
X1062063Y125800D01*
X1061774Y124627D01*
X1061415Y123473D01*
X1060986Y122343D01*
X1060490Y121241D01*
X1059928Y120170D01*
X1059303Y119136D01*
X1058616Y118141D01*
X1057871Y117190D01*
X1057069Y116285D01*
X1056215Y115431D01*
X1055310Y114629D01*
X1054359Y113884D01*
X1053364Y113197D01*
X1052330Y112572D01*
X1051259Y112010D01*
X1050157Y111514D01*
X1049027Y111085D01*
X1047873Y110726D01*
X1046700Y110437D01*
X1045511Y110219D01*
X1044311Y110073D01*
X1043104Y110000D01*
X1041896Y110000D01*
X1040689Y110073D01*
X1039489Y110219D01*
X1038300Y110437D01*
X1037127Y110726D01*
X1035973Y111085D01*
X1034843Y111514D01*
X1033741Y112010D01*
X1032670Y112572D01*
X1031636Y113197D01*
X1030641Y113884D01*
X1029690Y114629D01*
X1028785Y115431D01*
X1027931Y116285D01*
X1027129Y117190D01*
X1026384Y118141D01*
X1025697Y119136D01*
X1025072Y120170D01*
X1024510Y121241D01*
X1024014Y122343D01*
X1023585Y123473D01*
X1023226Y124627D01*
X1022937Y125800D01*
X1022719Y126989D01*
X1022573Y128189D01*
X1022500Y129396D01*
X1022500Y130604D01*
X1022573Y131811D01*
X1022719Y133011D01*
X1022937Y134200D01*
X1023226Y135373D01*
X1023585Y136527D01*
X1024014Y137657D01*
X1024510Y138759D01*
X1025072Y139830D01*
X1025697Y140864D01*
X1026384Y141859D01*
X1027129Y142810D01*
X1027931Y143715D01*
X1028785Y144569D01*
X1029690Y145371D01*
X1030641Y146116D01*
X1031636Y146803D01*
X1032670Y147428D01*
X1033741Y147990D01*
X1034843Y148486D01*
X1035973Y148915D01*
X1037127Y149274D01*
X1038300Y149563D01*
X1039489Y149781D01*
X1040689Y149927D01*
X1041896Y150000D01*
X1043104Y150000D01*
X1044311Y149927D01*
X1045511Y149781D01*
X1046700Y149563D01*
X1047873Y149274D01*
X1049027Y148915D01*
X1050157Y148486D01*
X1051259Y147990D01*
X1052330Y147428D01*
X1053364Y146803D01*
X1054359Y146116D01*
X1055310Y145371D01*
X1056215Y144569D01*
X1057069Y143715D01*
X1057871Y142810D01*
X1058616Y141859D01*
X1059303Y140864D01*
X1059928Y139830D01*
X1060490Y138759D01*
X1060986Y137657D01*
X1061415Y136527D01*
X1061774Y135373D01*
X1062063Y134200D01*
X1062281Y133011D01*
X1062427Y131811D01*
X1062500Y130604D01*
X1062500Y129396D01*
X1062500Y656896D02*
X1062427Y655689D01*
X1062281Y654489D01*
X1062063Y653300D01*
X1061774Y652127D01*
X1061415Y650973D01*
X1060986Y649843D01*
X1060490Y648741D01*
X1059928Y647670D01*
X1059303Y646636D01*
X1058616Y645641D01*
X1057871Y644690D01*
X1057069Y643785D01*
X1056215Y642931D01*
X1055310Y642129D01*
X1054359Y641384D01*
X1053364Y640697D01*
X1052330Y640072D01*
X1051259Y639510D01*
X1050157Y639014D01*
X1049027Y638585D01*
X1047873Y638226D01*
X1046700Y637937D01*
X1045511Y637719D01*
X1044311Y637573D01*
X1043104Y637500D01*
X1041896Y637500D01*
X1040689Y637573D01*
X1039489Y637719D01*
X1038300Y637937D01*
X1037127Y638226D01*
X1035973Y638585D01*
X1034843Y639014D01*
X1033741Y639510D01*
X1032670Y640072D01*
X1031636Y640697D01*
X1030641Y641384D01*
X1029690Y642129D01*
X1028785Y642931D01*
X1027931Y643785D01*
X1027129Y644690D01*
X1026384Y645641D01*
X1025697Y646636D01*
X1025072Y647670D01*
X1024510Y648741D01*
X1024014Y649843D01*
X1023585Y650973D01*
X1023226Y652127D01*
X1022937Y653300D01*
X1022719Y654489D01*
X1022573Y655689D01*
X1022500Y656896D01*
X1022500Y658104D01*
X1022573Y659311D01*
X1022719Y660511D01*
X1022937Y661700D01*
X1023226Y662873D01*
X1023585Y664027D01*
X1024014Y665157D01*
X1024510Y666259D01*
X1025072Y667330D01*
X1025697Y668364D01*
X1026384Y669359D01*
X1027129Y670310D01*
X1027931Y671215D01*
X1028785Y672069D01*
X1029690Y672871D01*
X1030641Y673616D01*
X1031636Y674303D01*
X1032670Y674928D01*
X1033741Y675490D01*
X1034843Y675986D01*
X1035973Y676415D01*
X1037127Y676774D01*
X1038300Y677063D01*
X1039489Y677281D01*
X1040689Y677427D01*
X1041896Y677500D01*
X1043104Y677500D01*
X1044311Y677427D01*
X1045511Y677281D01*
X1046700Y677063D01*
X1047873Y676774D01*
X1049027Y676415D01*
X1050157Y675986D01*
X1051259Y675490D01*
X1052330Y674928D01*
X1053364Y674303D01*
X1054359Y673616D01*
X1055310Y672871D01*
X1056215Y672069D01*
X1057069Y671215D01*
X1057871Y670310D01*
X1058616Y669359D01*
X1059303Y668364D01*
X1059928Y667330D01*
X1060490Y666259D01*
X1060986Y665157D01*
X1061415Y664027D01*
X1061774Y662873D01*
X1062063Y661700D01*
X1062281Y660511D01*
X1062427Y659311D01*
X1062500Y658104D01*
X1062500Y656896D01*
M02*
