G04 EAGLE Gerber RS-274X export*
G75*
%MOMM*%
%FSLAX34Y34*%
%LPD*%
%INSilkscreen Bottom*%
%IPPOS*%
%AMOC8*
5,1,8,0,0,1.08239X$1,22.5*%
G01*
%ADD10C,0.076200*%
%ADD11C,0.152400*%
%ADD12C,0.300000*%
%ADD13C,0.100000*%
%ADD14C,0.127000*%
%ADD15C,0.203200*%
%ADD16C,0.254000*%
%ADD17C,0.228600*%
%ADD18C,0.177800*%
%ADD19C,0.200000*%
%ADD20C,0.101600*%


D10*
X32205Y543086D02*
X33746Y544627D01*
X36828Y544627D01*
X38369Y543086D01*
X38369Y536922D01*
X36828Y535381D01*
X33746Y535381D01*
X32205Y536922D01*
X32205Y540004D01*
X35287Y540004D01*
X29161Y535381D02*
X29161Y544627D01*
X22997Y535381D01*
X22997Y544627D01*
X19953Y544627D02*
X19953Y535381D01*
X15330Y535381D01*
X13789Y536922D01*
X13789Y543086D01*
X15330Y544627D01*
X19953Y544627D01*
X70119Y341427D02*
X70119Y332181D01*
X70119Y341427D02*
X63955Y341427D01*
X67037Y336804D02*
X70119Y336804D01*
X60911Y338345D02*
X60911Y332181D01*
X60911Y338345D02*
X57829Y341427D01*
X54747Y338345D01*
X54747Y332181D01*
X54747Y336804D02*
X60911Y336804D01*
X51703Y332181D02*
X51703Y341427D01*
X45539Y332181D01*
X45539Y341427D01*
X42495Y341427D02*
X42495Y332181D01*
X42495Y341427D02*
X37873Y341427D01*
X36332Y339886D01*
X36332Y336804D01*
X37873Y335263D01*
X42495Y335263D01*
X33288Y332181D02*
X33288Y341427D01*
X30206Y335263D02*
X33288Y332181D01*
X30206Y335263D02*
X27124Y332181D01*
X27124Y341427D01*
X24080Y341427D02*
X24080Y332181D01*
X20998Y338345D02*
X24080Y341427D01*
X20998Y338345D02*
X17916Y341427D01*
X17916Y332181D01*
X70119Y316027D02*
X70119Y306781D01*
X70119Y316027D02*
X65496Y316027D01*
X63955Y314486D01*
X63955Y312945D01*
X65496Y311404D01*
X63955Y309863D01*
X63955Y308322D01*
X65496Y306781D01*
X70119Y306781D01*
X70119Y311404D02*
X65496Y311404D01*
X60911Y306781D02*
X57829Y306781D01*
X59370Y306781D02*
X59370Y316027D01*
X60911Y316027D02*
X57829Y316027D01*
X54773Y316027D02*
X54773Y306781D01*
X48609Y306781D01*
X45565Y316027D02*
X39401Y316027D01*
X45565Y316027D02*
X45565Y306781D01*
X39401Y306781D01*
X42483Y311404D02*
X45565Y311404D01*
X36357Y316027D02*
X36357Y306781D01*
X31734Y306781D01*
X30193Y308322D01*
X30193Y314486D01*
X31734Y316027D01*
X36357Y316027D01*
X27149Y305240D02*
X20985Y305240D01*
X17941Y312945D02*
X14859Y316027D01*
X14859Y306781D01*
X17941Y306781D02*
X11777Y306781D01*
X119378Y290627D02*
X120919Y289086D01*
X119378Y290627D02*
X116296Y290627D01*
X114755Y289086D01*
X114755Y287545D01*
X116296Y286004D01*
X117837Y286004D01*
X116296Y286004D02*
X114755Y284463D01*
X114755Y282922D01*
X116296Y281381D01*
X119378Y281381D01*
X120919Y282922D01*
X111711Y287545D02*
X108629Y281381D01*
X105547Y287545D01*
X102503Y289086D02*
X100962Y290627D01*
X97880Y290627D01*
X96339Y289086D01*
X96339Y287545D01*
X97880Y286004D01*
X99421Y286004D01*
X97880Y286004D02*
X96339Y284463D01*
X96339Y282922D01*
X97880Y281381D01*
X100962Y281381D01*
X102503Y282922D01*
X93295Y286004D02*
X87132Y286004D01*
X90214Y289086D02*
X90214Y282922D01*
X70119Y281381D02*
X70119Y290627D01*
X65496Y290627D01*
X63955Y289086D01*
X63955Y287545D01*
X65496Y286004D01*
X63955Y284463D01*
X63955Y282922D01*
X65496Y281381D01*
X70119Y281381D01*
X70119Y286004D02*
X65496Y286004D01*
X60911Y281381D02*
X57829Y281381D01*
X59370Y281381D02*
X59370Y290627D01*
X60911Y290627D02*
X57829Y290627D01*
X54773Y290627D02*
X54773Y281381D01*
X48609Y281381D01*
X45565Y290627D02*
X39401Y290627D01*
X45565Y290627D02*
X45565Y281381D01*
X39401Y281381D01*
X42483Y286004D02*
X45565Y286004D01*
X36357Y290627D02*
X36357Y281381D01*
X31734Y281381D01*
X30193Y282922D01*
X30193Y289086D01*
X31734Y290627D01*
X36357Y290627D01*
X27149Y279840D02*
X20985Y279840D01*
X17941Y281381D02*
X11777Y281381D01*
X17941Y281381D02*
X11777Y287545D01*
X11777Y289086D01*
X13318Y290627D01*
X16400Y290627D01*
X17941Y289086D01*
X120919Y332181D02*
X120919Y341427D01*
X114755Y341427D01*
X117837Y336804D02*
X120919Y336804D01*
X111711Y338345D02*
X111711Y332181D01*
X111711Y338345D02*
X108629Y341427D01*
X105547Y338345D01*
X105547Y332181D01*
X105547Y336804D02*
X111711Y336804D01*
X102503Y332181D02*
X102503Y341427D01*
X96339Y332181D01*
X96339Y341427D01*
X93295Y332181D02*
X90214Y332181D01*
X91755Y332181D02*
X91755Y341427D01*
X93295Y341427D02*
X90214Y341427D01*
X87157Y341427D02*
X87157Y332181D01*
X80993Y332181D02*
X87157Y341427D01*
X80993Y341427D02*
X80993Y332181D01*
X114755Y416086D02*
X116296Y417627D01*
X119378Y417627D01*
X120919Y416086D01*
X120919Y414545D01*
X119378Y413004D01*
X116296Y413004D01*
X114755Y411463D01*
X114755Y409922D01*
X116296Y408381D01*
X119378Y408381D01*
X120919Y409922D01*
X108629Y408381D02*
X108629Y417627D01*
X111711Y417627D02*
X105547Y417627D01*
X102503Y414545D02*
X102503Y408381D01*
X102503Y414545D02*
X99421Y417627D01*
X96339Y414545D01*
X96339Y408381D01*
X96339Y413004D02*
X102503Y413004D01*
X90214Y408381D02*
X90214Y417627D01*
X93295Y417627D02*
X87132Y417627D01*
X84088Y417627D02*
X77924Y417627D01*
X84088Y417627D02*
X84088Y408381D01*
X77924Y408381D01*
X81006Y413004D02*
X84088Y413004D01*
X74880Y417627D02*
X74880Y408381D01*
X68716Y408381D01*
X65672Y417627D02*
X59508Y417627D01*
X65672Y417627D02*
X65672Y408381D01*
X59508Y408381D01*
X62590Y413004D02*
X65672Y413004D01*
X56464Y417627D02*
X56464Y408381D01*
X51841Y408381D01*
X50300Y409922D01*
X50300Y416086D01*
X51841Y417627D01*
X56464Y417627D01*
X114755Y441486D02*
X116296Y443027D01*
X119378Y443027D01*
X120919Y441486D01*
X120919Y439945D01*
X119378Y438404D01*
X116296Y438404D01*
X114755Y436863D01*
X114755Y435322D01*
X116296Y433781D01*
X119378Y433781D01*
X120919Y435322D01*
X111711Y433781D02*
X111711Y443027D01*
X111711Y433781D02*
X107088Y433781D01*
X105547Y435322D01*
X105547Y441486D01*
X107088Y443027D01*
X111711Y443027D01*
X102503Y439945D02*
X102503Y433781D01*
X102503Y439945D02*
X99421Y443027D01*
X96339Y439945D01*
X96339Y433781D01*
X96339Y438404D02*
X102503Y438404D01*
X114755Y466886D02*
X116296Y468427D01*
X119378Y468427D01*
X120919Y466886D01*
X120919Y465345D01*
X119378Y463804D01*
X116296Y463804D01*
X114755Y462263D01*
X114755Y460722D01*
X116296Y459181D01*
X119378Y459181D01*
X120919Y460722D01*
X107088Y468427D02*
X105547Y466886D01*
X107088Y468427D02*
X110170Y468427D01*
X111711Y466886D01*
X111711Y460722D01*
X110170Y459181D01*
X107088Y459181D01*
X105547Y460722D01*
X102503Y459181D02*
X102503Y468427D01*
X102503Y459181D02*
X96339Y459181D01*
X114755Y544627D02*
X120919Y544627D01*
X120919Y540004D01*
X117837Y541545D01*
X116296Y541545D01*
X114755Y540004D01*
X114755Y536922D01*
X116296Y535381D01*
X119378Y535381D01*
X120919Y536922D01*
X111711Y541545D02*
X108629Y535381D01*
X105547Y541545D01*
X102503Y540004D02*
X96339Y540004D01*
X99421Y543086D02*
X99421Y536922D01*
X120919Y617745D02*
X117837Y620827D01*
X117837Y611581D01*
X120919Y611581D02*
X114755Y611581D01*
X111711Y611581D02*
X105547Y611581D01*
X111711Y611581D02*
X105547Y617745D01*
X105547Y619286D01*
X107088Y620827D01*
X110170Y620827D01*
X111711Y619286D01*
X102503Y617745D02*
X99421Y611581D01*
X96339Y617745D01*
X93295Y616204D02*
X87132Y616204D01*
X90214Y619286D02*
X90214Y613122D01*
X114755Y593886D02*
X116296Y595427D01*
X119378Y595427D01*
X120919Y593886D01*
X120919Y587722D01*
X119378Y586181D01*
X116296Y586181D01*
X114755Y587722D01*
X114755Y590804D01*
X117837Y590804D01*
X111711Y586181D02*
X111711Y595427D01*
X105547Y586181D01*
X105547Y595427D01*
X102503Y595427D02*
X102503Y586181D01*
X97880Y586181D01*
X96339Y587722D01*
X96339Y593886D01*
X97880Y595427D01*
X102503Y595427D01*
D11*
X230345Y146523D02*
X236616Y140252D01*
X230345Y146523D02*
X230345Y127711D01*
X224075Y127711D02*
X236616Y127711D01*
X217906Y127711D02*
X205364Y127711D01*
X205364Y140252D02*
X217906Y127711D01*
X205364Y140252D02*
X205364Y143388D01*
X208500Y146523D01*
X214770Y146523D01*
X217906Y143388D01*
X199195Y146523D02*
X199195Y133982D01*
X192925Y127711D01*
X186654Y133982D01*
X186654Y146523D01*
X180485Y146523D02*
X180485Y127711D01*
X171079Y127711D01*
X167944Y130846D01*
X167944Y143388D01*
X171079Y146523D01*
X180485Y146523D01*
X152368Y146523D02*
X149233Y143388D01*
X152368Y146523D02*
X158639Y146523D01*
X161775Y143388D01*
X161775Y130846D01*
X158639Y127711D01*
X152368Y127711D01*
X149233Y130846D01*
X124354Y140252D02*
X118083Y146523D01*
X118083Y127711D01*
X124354Y127711D02*
X111812Y127711D01*
X105643Y127711D02*
X105643Y140252D01*
X99373Y146523D01*
X93102Y140252D01*
X93102Y127711D01*
X93102Y137117D02*
X105643Y137117D01*
D10*
X78069Y690389D02*
X78069Y698094D01*
X78069Y690389D02*
X76528Y688848D01*
X73446Y688848D01*
X71905Y690389D01*
X71905Y698094D01*
X64238Y698094D02*
X62697Y696553D01*
X64238Y698094D02*
X67320Y698094D01*
X68861Y696553D01*
X68861Y695012D01*
X67320Y693471D01*
X64238Y693471D01*
X62697Y691930D01*
X62697Y690389D01*
X64238Y688848D01*
X67320Y688848D01*
X68861Y690389D01*
X59654Y688848D02*
X59654Y698094D01*
X55031Y698094D01*
X53490Y696553D01*
X53490Y695012D01*
X55031Y693471D01*
X53490Y691930D01*
X53490Y690389D01*
X55031Y688848D01*
X59654Y688848D01*
X59654Y693471D02*
X55031Y693471D01*
X118328Y510286D02*
X118328Y501040D01*
X112164Y501040D02*
X118328Y510286D01*
X112164Y510286D02*
X112164Y501040D01*
X109120Y502581D02*
X109120Y510286D01*
X109120Y502581D02*
X107579Y501040D01*
X104497Y501040D01*
X102956Y502581D01*
X102956Y510286D01*
X95290Y510286D02*
X93749Y508745D01*
X95290Y510286D02*
X98372Y510286D01*
X99913Y508745D01*
X99913Y502581D01*
X98372Y501040D01*
X95290Y501040D01*
X93749Y502581D01*
X90705Y501040D02*
X90705Y510286D01*
X90705Y501040D02*
X84541Y501040D01*
X81497Y510286D02*
X75333Y510286D01*
X81497Y510286D02*
X81497Y501040D01*
X75333Y501040D01*
X78415Y505663D02*
X81497Y505663D01*
X70748Y510286D02*
X67666Y510286D01*
X70748Y510286D02*
X72289Y508745D01*
X72289Y502581D01*
X70748Y501040D01*
X67666Y501040D01*
X66125Y502581D01*
X66125Y508745D01*
X67666Y510286D01*
X63081Y505663D02*
X56917Y505663D01*
X49250Y510286D02*
X47709Y508745D01*
X49250Y510286D02*
X52332Y510286D01*
X53873Y508745D01*
X53873Y502581D01*
X52332Y501040D01*
X49250Y501040D01*
X47709Y502581D01*
X47709Y505663D01*
X50791Y505663D01*
X40043Y501040D02*
X40043Y510286D01*
X44665Y505663D01*
X38502Y505663D01*
X35458Y508745D02*
X33917Y510286D01*
X30835Y510286D01*
X29294Y508745D01*
X29294Y507204D01*
X30835Y505663D01*
X32376Y505663D01*
X30835Y505663D02*
X29294Y504122D01*
X29294Y502581D01*
X30835Y501040D01*
X33917Y501040D01*
X35458Y502581D01*
X26250Y507204D02*
X23168Y510286D01*
X23168Y501040D01*
X26250Y501040D02*
X20086Y501040D01*
X17042Y501040D02*
X17042Y510286D01*
X17042Y504122D02*
X10878Y510286D01*
X15501Y505663D02*
X10878Y501040D01*
X7834Y501040D02*
X7834Y510286D01*
X3211Y510286D01*
X1670Y508745D01*
X1670Y507204D01*
X3211Y505663D01*
X1670Y504122D01*
X1670Y502581D01*
X3211Y501040D01*
X7834Y501040D01*
X7834Y505663D02*
X3211Y505663D01*
X112012Y491041D02*
X113553Y492582D01*
X116635Y492582D01*
X118176Y491041D01*
X118176Y489500D01*
X116635Y487959D01*
X113553Y487959D01*
X112012Y486418D01*
X112012Y484877D01*
X113553Y483336D01*
X116635Y483336D01*
X118176Y484877D01*
X105886Y483336D02*
X105886Y492582D01*
X108968Y492582D02*
X102804Y492582D01*
X99760Y492582D02*
X99760Y483336D01*
X96678Y489500D02*
X99760Y492582D01*
X96678Y489500D02*
X93596Y492582D01*
X93596Y483336D01*
X90552Y491041D02*
X89011Y492582D01*
X85929Y492582D01*
X84388Y491041D01*
X84388Y489500D01*
X85929Y487959D01*
X87470Y487959D01*
X85929Y487959D02*
X84388Y486418D01*
X84388Y484877D01*
X85929Y483336D01*
X89011Y483336D01*
X90552Y484877D01*
X81344Y483336D02*
X75181Y483336D01*
X81344Y483336D02*
X75181Y489500D01*
X75181Y491041D01*
X76721Y492582D01*
X79803Y492582D01*
X81344Y491041D01*
X67514Y492582D02*
X65973Y491041D01*
X67514Y492582D02*
X70596Y492582D01*
X72137Y491041D01*
X72137Y484877D01*
X70596Y483336D01*
X67514Y483336D01*
X65973Y484877D01*
X65973Y487959D01*
X69055Y487959D01*
X58306Y483336D02*
X58306Y492582D01*
X62929Y487959D01*
X56765Y487959D01*
X53721Y491041D02*
X52180Y492582D01*
X49098Y492582D01*
X47557Y491041D01*
X47557Y489500D01*
X49098Y487959D01*
X50639Y487959D01*
X49098Y487959D02*
X47557Y486418D01*
X47557Y484877D01*
X49098Y483336D01*
X52180Y483336D01*
X53721Y484877D01*
X44513Y489500D02*
X41431Y492582D01*
X41431Y483336D01*
X44513Y483336D02*
X38349Y483336D01*
X35305Y483336D02*
X35305Y492582D01*
X35305Y486418D02*
X29141Y492582D01*
X33764Y487959D02*
X29141Y483336D01*
X26097Y483336D02*
X26097Y492582D01*
X21474Y492582D01*
X19933Y491041D01*
X19933Y489500D01*
X21474Y487959D01*
X19933Y486418D01*
X19933Y484877D01*
X21474Y483336D01*
X26097Y483336D01*
X26097Y487959D02*
X21474Y487959D01*
X13808Y483336D02*
X13808Y492582D01*
X16890Y492582D02*
X10726Y492582D01*
X4600Y491041D02*
X1518Y492582D01*
X4600Y491041D02*
X7682Y487959D01*
X7682Y484877D01*
X6141Y483336D01*
X3059Y483336D01*
X1518Y484877D01*
X1518Y486418D01*
X3059Y487959D01*
X7682Y487959D01*
D12*
X677400Y244900D02*
X677400Y144900D01*
X677400Y244900D02*
X677400Y269900D01*
X677400Y144900D02*
X472400Y144900D01*
D13*
X602400Y244900D02*
X677400Y244900D01*
X602400Y244900D02*
X492400Y164900D01*
D12*
X677400Y269900D02*
X682400Y264900D01*
X677400Y269900D02*
X672400Y264900D01*
X477400Y149900D02*
X472400Y144900D01*
X477400Y139900D01*
D14*
X661765Y260535D02*
X661765Y274277D01*
X661765Y260535D02*
X652604Y260535D01*
X645663Y274277D02*
X641082Y274277D01*
X645663Y274277D02*
X647953Y271986D01*
X647953Y262825D01*
X645663Y260535D01*
X641082Y260535D01*
X638792Y262825D01*
X638792Y271986D01*
X641082Y274277D01*
X634141Y269696D02*
X634141Y260535D01*
X634141Y269696D02*
X629561Y274277D01*
X624980Y269696D01*
X624980Y260535D01*
X624980Y267406D02*
X634141Y267406D01*
X620330Y274277D02*
X620330Y260535D01*
X613459Y260535D01*
X611169Y262825D01*
X611169Y271986D01*
X613459Y274277D01*
X620330Y274277D01*
X592706Y274277D02*
X592706Y260535D01*
X585835Y260535D01*
X583545Y262825D01*
X583545Y271986D01*
X585835Y274277D01*
X592706Y274277D01*
X578894Y260535D02*
X574314Y260535D01*
X576604Y260535D02*
X576604Y274277D01*
X578894Y274277D02*
X574314Y274277D01*
X569686Y269696D02*
X569686Y260535D01*
X569686Y269696D02*
X565106Y274277D01*
X560525Y269696D01*
X560525Y260535D01*
X560525Y267406D02*
X569686Y267406D01*
X549004Y274277D02*
X546714Y271986D01*
X549004Y274277D02*
X553584Y274277D01*
X555875Y271986D01*
X555875Y262825D01*
X553584Y260535D01*
X549004Y260535D01*
X546714Y262825D01*
X546714Y267406D01*
X551294Y267406D01*
X542063Y260535D02*
X542063Y274277D01*
X535192Y274277D01*
X532902Y271986D01*
X532902Y267406D01*
X535192Y265116D01*
X542063Y265116D01*
X537482Y265116D02*
X532902Y260535D01*
X528251Y260535D02*
X528251Y269696D01*
X523671Y274277D01*
X519090Y269696D01*
X519090Y260535D01*
X519090Y267406D02*
X528251Y267406D01*
X514439Y260535D02*
X514439Y274277D01*
X509859Y269696D01*
X505278Y274277D01*
X505278Y260535D01*
D10*
X705855Y240281D02*
X712019Y240281D01*
X705855Y246445D01*
X705855Y247986D01*
X707396Y249527D01*
X710478Y249527D01*
X712019Y247986D01*
X702811Y247986D02*
X702811Y241822D01*
X702811Y247986D02*
X701270Y249527D01*
X698188Y249527D01*
X696647Y247986D01*
X696647Y241822D01*
X698188Y240281D01*
X701270Y240281D01*
X702811Y241822D01*
X696647Y247986D01*
X684395Y246445D02*
X684395Y240281D01*
X684395Y246445D02*
X681314Y249527D01*
X678232Y246445D01*
X678232Y240281D01*
X678232Y244904D02*
X684395Y244904D01*
X613937Y134527D02*
X617019Y131445D01*
X613937Y134527D02*
X613937Y125281D01*
X617019Y125281D02*
X610855Y125281D01*
X607811Y125281D02*
X601647Y125281D01*
X607811Y125281D02*
X601647Y131445D01*
X601647Y132986D01*
X603188Y134527D01*
X606270Y134527D01*
X607811Y132986D01*
X598603Y126822D02*
X598603Y125281D01*
X598603Y126822D02*
X597062Y126822D01*
X597062Y125281D01*
X598603Y125281D01*
X593999Y134527D02*
X587836Y134527D01*
X593999Y134527D02*
X593999Y129904D01*
X590917Y131445D01*
X589376Y131445D01*
X587836Y129904D01*
X587836Y126822D01*
X589376Y125281D01*
X592458Y125281D01*
X593999Y126822D01*
X575584Y128363D02*
X575584Y134527D01*
X575584Y128363D02*
X572502Y125281D01*
X569420Y128363D01*
X569420Y134527D01*
D13*
X602400Y231900D02*
X602400Y244900D01*
X602400Y221900D02*
X602400Y208900D01*
X602400Y198900D02*
X602400Y185900D01*
X602400Y175900D02*
X602400Y162900D01*
X602400Y152900D02*
X602400Y139900D01*
X677400Y244900D02*
X682400Y244900D01*
X492400Y164900D02*
X492400Y157400D01*
X492400Y147400D02*
X492400Y139900D01*
D10*
X500855Y134527D02*
X503937Y132986D01*
X507019Y129904D01*
X507019Y126822D01*
X505478Y125281D01*
X502396Y125281D01*
X500855Y126822D01*
X500855Y128363D01*
X502396Y129904D01*
X507019Y129904D01*
X497811Y126822D02*
X497811Y132986D01*
X496270Y134527D01*
X493188Y134527D01*
X491647Y132986D01*
X491647Y126822D01*
X493188Y125281D01*
X496270Y125281D01*
X497811Y126822D01*
X491647Y132986D01*
X479395Y134527D02*
X479395Y128363D01*
X476314Y125281D01*
X473232Y128363D01*
X473232Y134527D01*
D13*
X492400Y164900D02*
X502400Y164900D01*
X512400Y164900D02*
X522400Y164900D01*
X532400Y164900D02*
X542400Y164900D01*
X552400Y164900D02*
X562400Y164900D01*
X572400Y164900D02*
X582400Y164900D01*
X592400Y164900D02*
X602400Y164900D01*
X612400Y164900D02*
X622400Y164900D01*
X632400Y164900D02*
X642400Y164900D01*
X652400Y164900D02*
X662400Y164900D01*
X672400Y164900D02*
X682400Y164900D01*
D10*
X707396Y160281D02*
X707396Y169527D01*
X712019Y164904D01*
X705855Y164904D01*
X693603Y166445D02*
X693603Y160281D01*
X693603Y166445D02*
X690521Y169527D01*
X687439Y166445D01*
X687439Y160281D01*
X687439Y164904D02*
X693603Y164904D01*
X121319Y357781D02*
X121319Y367027D01*
X116696Y367027D01*
X115155Y365486D01*
X115155Y363945D01*
X116696Y362404D01*
X115155Y360863D01*
X115155Y359322D01*
X116696Y357781D01*
X121319Y357781D01*
X121319Y362404D02*
X116696Y362404D01*
X112111Y359322D02*
X112111Y367027D01*
X112111Y359322D02*
X110570Y357781D01*
X107488Y357781D01*
X105947Y359322D01*
X105947Y367027D01*
X102903Y367027D02*
X96739Y367027D01*
X96739Y365486D01*
X102903Y359322D01*
X102903Y357781D01*
X96739Y357781D01*
X93695Y367027D02*
X87532Y367027D01*
X87532Y365486D01*
X93695Y359322D01*
X93695Y357781D01*
X87532Y357781D01*
X84488Y367027D02*
X78324Y367027D01*
X84488Y367027D02*
X84488Y357781D01*
X78324Y357781D01*
X81406Y362404D02*
X84488Y362404D01*
X75280Y357781D02*
X75280Y367027D01*
X70657Y367027D01*
X69116Y365486D01*
X69116Y362404D01*
X70657Y360863D01*
X75280Y360863D01*
X72198Y360863D02*
X69116Y357781D01*
D15*
X587880Y502070D02*
X625880Y502070D01*
X625880Y588170D02*
X587880Y588170D01*
D16*
X621880Y592120D02*
X621882Y592183D01*
X621888Y592245D01*
X621898Y592307D01*
X621911Y592369D01*
X621929Y592429D01*
X621950Y592488D01*
X621975Y592546D01*
X622004Y592602D01*
X622036Y592656D01*
X622071Y592708D01*
X622109Y592757D01*
X622151Y592805D01*
X622195Y592849D01*
X622243Y592891D01*
X622292Y592929D01*
X622344Y592964D01*
X622398Y592996D01*
X622454Y593025D01*
X622512Y593050D01*
X622571Y593071D01*
X622631Y593089D01*
X622693Y593102D01*
X622755Y593112D01*
X622817Y593118D01*
X622880Y593120D01*
X622943Y593118D01*
X623005Y593112D01*
X623067Y593102D01*
X623129Y593089D01*
X623189Y593071D01*
X623248Y593050D01*
X623306Y593025D01*
X623362Y592996D01*
X623416Y592964D01*
X623468Y592929D01*
X623517Y592891D01*
X623565Y592849D01*
X623609Y592805D01*
X623651Y592757D01*
X623689Y592708D01*
X623724Y592656D01*
X623756Y592602D01*
X623785Y592546D01*
X623810Y592488D01*
X623831Y592429D01*
X623849Y592369D01*
X623862Y592307D01*
X623872Y592245D01*
X623878Y592183D01*
X623880Y592120D01*
X623878Y592057D01*
X623872Y591995D01*
X623862Y591933D01*
X623849Y591871D01*
X623831Y591811D01*
X623810Y591752D01*
X623785Y591694D01*
X623756Y591638D01*
X623724Y591584D01*
X623689Y591532D01*
X623651Y591483D01*
X623609Y591435D01*
X623565Y591391D01*
X623517Y591349D01*
X623468Y591311D01*
X623416Y591276D01*
X623362Y591244D01*
X623306Y591215D01*
X623248Y591190D01*
X623189Y591169D01*
X623129Y591151D01*
X623067Y591138D01*
X623005Y591128D01*
X622943Y591122D01*
X622880Y591120D01*
X622817Y591122D01*
X622755Y591128D01*
X622693Y591138D01*
X622631Y591151D01*
X622571Y591169D01*
X622512Y591190D01*
X622454Y591215D01*
X622398Y591244D01*
X622344Y591276D01*
X622292Y591311D01*
X622243Y591349D01*
X622195Y591391D01*
X622151Y591435D01*
X622109Y591483D01*
X622071Y591532D01*
X622036Y591584D01*
X622004Y591638D01*
X621975Y591694D01*
X621950Y591752D01*
X621929Y591811D01*
X621911Y591871D01*
X621898Y591933D01*
X621888Y591995D01*
X621882Y592057D01*
X621880Y592120D01*
D17*
X615787Y596800D02*
X615787Y605486D01*
X615787Y596800D02*
X614050Y595063D01*
X610576Y595063D01*
X608838Y596800D01*
X608838Y605486D01*
X604093Y595063D02*
X597144Y595063D01*
X604093Y595063D02*
X597144Y602012D01*
X597144Y603749D01*
X598882Y605486D01*
X602356Y605486D01*
X604093Y603749D01*
D18*
X227258Y552993D02*
X225860Y554391D01*
X227258Y552993D02*
X227258Y550197D01*
X225860Y548799D01*
X220267Y548799D01*
X218869Y550197D01*
X218869Y552993D01*
X220267Y554391D01*
X218869Y558154D02*
X218869Y563747D01*
X218869Y558154D02*
X224462Y563747D01*
X225860Y563747D01*
X227258Y562348D01*
X227258Y559552D01*
X225860Y558154D01*
X243220Y554071D02*
X244618Y552673D01*
X244618Y549877D01*
X243220Y548479D01*
X237627Y548479D01*
X236229Y549877D01*
X236229Y552673D01*
X237627Y554071D01*
X241822Y557834D02*
X244618Y560630D01*
X236229Y560630D01*
X236229Y557834D02*
X236229Y563427D01*
X206598Y553913D02*
X205200Y555311D01*
X206598Y553913D02*
X206598Y551117D01*
X205200Y549719D01*
X199607Y549719D01*
X198209Y551117D01*
X198209Y553913D01*
X199607Y555311D01*
X198209Y563268D02*
X206598Y563268D01*
X202404Y559074D01*
X202404Y564667D01*
X185618Y553873D02*
X184220Y555271D01*
X185618Y553873D02*
X185618Y551077D01*
X184220Y549679D01*
X178627Y549679D01*
X177229Y551077D01*
X177229Y553873D01*
X178627Y555271D01*
X184220Y559034D02*
X185618Y560432D01*
X185618Y563228D01*
X184220Y564627D01*
X182822Y564627D01*
X181424Y563228D01*
X181424Y561830D01*
X181424Y563228D02*
X180025Y564627D01*
X178627Y564627D01*
X177229Y563228D01*
X177229Y560432D01*
X178627Y559034D01*
D19*
X604000Y660500D02*
X608000Y660500D01*
X604000Y660500D02*
X604000Y631500D01*
X608000Y631500D01*
X608000Y660500D01*
X611500Y662000D02*
X625500Y662000D01*
D11*
X-35000Y657500D02*
X-34980Y659095D01*
X-34922Y660689D01*
X-34824Y662282D01*
X-34687Y663871D01*
X-34511Y665457D01*
X-34296Y667037D01*
X-34043Y668613D01*
X-33751Y670181D01*
X-33421Y671742D01*
X-33052Y673294D01*
X-32645Y674836D01*
X-32201Y676369D01*
X-31719Y677889D01*
X-31200Y679398D01*
X-30645Y680893D01*
X-30052Y682374D01*
X-29424Y683841D01*
X-28759Y685291D01*
X-28060Y686725D01*
X-27325Y688141D01*
X-26556Y689538D01*
X-25752Y690917D01*
X-24915Y692275D01*
X-24046Y693612D01*
X-23143Y694928D01*
X-22208Y696220D01*
X-21243Y697490D01*
X-20246Y698736D01*
X-19219Y699956D01*
X-18162Y701151D01*
X-17076Y702320D01*
X-15962Y703462D01*
X-14820Y704576D01*
X-13651Y705662D01*
X-12456Y706719D01*
X-11236Y707746D01*
X-9990Y708743D01*
X-8720Y709708D01*
X-7428Y710643D01*
X-6112Y711546D01*
X-4775Y712415D01*
X-3417Y713252D01*
X-2038Y714056D01*
X-641Y714825D01*
X775Y715560D01*
X2209Y716259D01*
X3659Y716924D01*
X5126Y717552D01*
X6607Y718145D01*
X8102Y718700D01*
X9611Y719219D01*
X11131Y719701D01*
X12664Y720145D01*
X14206Y720552D01*
X15758Y720921D01*
X17319Y721251D01*
X18887Y721543D01*
X20463Y721796D01*
X22043Y722011D01*
X23629Y722187D01*
X25218Y722324D01*
X26811Y722422D01*
X28405Y722480D01*
X30000Y722500D01*
X31595Y722480D01*
X33189Y722422D01*
X34782Y722324D01*
X36371Y722187D01*
X37957Y722011D01*
X39537Y721796D01*
X41113Y721543D01*
X42681Y721251D01*
X44242Y720921D01*
X45794Y720552D01*
X47336Y720145D01*
X48869Y719701D01*
X50389Y719219D01*
X51898Y718700D01*
X53393Y718145D01*
X54874Y717552D01*
X56341Y716924D01*
X57791Y716259D01*
X59225Y715560D01*
X60641Y714825D01*
X62038Y714056D01*
X63417Y713252D01*
X64775Y712415D01*
X66112Y711546D01*
X67428Y710643D01*
X68720Y709708D01*
X69990Y708743D01*
X71236Y707746D01*
X72456Y706719D01*
X73651Y705662D01*
X74820Y704576D01*
X75962Y703462D01*
X77076Y702320D01*
X78162Y701151D01*
X79219Y699956D01*
X80246Y698736D01*
X81243Y697490D01*
X82208Y696220D01*
X83143Y694928D01*
X84046Y693612D01*
X84915Y692275D01*
X85752Y690917D01*
X86556Y689538D01*
X87325Y688141D01*
X88060Y686725D01*
X88759Y685291D01*
X89424Y683841D01*
X90052Y682374D01*
X90645Y680893D01*
X91200Y679398D01*
X91719Y677889D01*
X92201Y676369D01*
X92645Y674836D01*
X93052Y673294D01*
X93421Y671742D01*
X93751Y670181D01*
X94043Y668613D01*
X94296Y667037D01*
X94511Y665457D01*
X94687Y663871D01*
X94824Y662282D01*
X94922Y660689D01*
X94980Y659095D01*
X95000Y657500D01*
X94980Y655905D01*
X94922Y654311D01*
X94824Y652718D01*
X94687Y651129D01*
X94511Y649543D01*
X94296Y647963D01*
X94043Y646387D01*
X93751Y644819D01*
X93421Y643258D01*
X93052Y641706D01*
X92645Y640164D01*
X92201Y638631D01*
X91719Y637111D01*
X91200Y635602D01*
X90645Y634107D01*
X90052Y632626D01*
X89424Y631159D01*
X88759Y629709D01*
X88060Y628275D01*
X87325Y626859D01*
X86556Y625462D01*
X85752Y624083D01*
X84915Y622725D01*
X84046Y621388D01*
X83143Y620072D01*
X82208Y618780D01*
X81243Y617510D01*
X80246Y616264D01*
X79219Y615044D01*
X78162Y613849D01*
X77076Y612680D01*
X75962Y611538D01*
X74820Y610424D01*
X73651Y609338D01*
X72456Y608281D01*
X71236Y607254D01*
X69990Y606257D01*
X68720Y605292D01*
X67428Y604357D01*
X66112Y603454D01*
X64775Y602585D01*
X63417Y601748D01*
X62038Y600944D01*
X60641Y600175D01*
X59225Y599440D01*
X57791Y598741D01*
X56341Y598076D01*
X54874Y597448D01*
X53393Y596855D01*
X51898Y596300D01*
X50389Y595781D01*
X48869Y595299D01*
X47336Y594855D01*
X45794Y594448D01*
X44242Y594079D01*
X42681Y593749D01*
X41113Y593457D01*
X39537Y593204D01*
X37957Y592989D01*
X36371Y592813D01*
X34782Y592676D01*
X33189Y592578D01*
X31595Y592520D01*
X30000Y592500D01*
X28405Y592520D01*
X26811Y592578D01*
X25218Y592676D01*
X23629Y592813D01*
X22043Y592989D01*
X20463Y593204D01*
X18887Y593457D01*
X17319Y593749D01*
X15758Y594079D01*
X14206Y594448D01*
X12664Y594855D01*
X11131Y595299D01*
X9611Y595781D01*
X8102Y596300D01*
X6607Y596855D01*
X5126Y597448D01*
X3659Y598076D01*
X2209Y598741D01*
X775Y599440D01*
X-641Y600175D01*
X-2038Y600944D01*
X-3417Y601748D01*
X-4775Y602585D01*
X-6112Y603454D01*
X-7428Y604357D01*
X-8720Y605292D01*
X-9990Y606257D01*
X-11236Y607254D01*
X-12456Y608281D01*
X-13651Y609338D01*
X-14820Y610424D01*
X-15962Y611538D01*
X-17076Y612680D01*
X-18162Y613849D01*
X-19219Y615044D01*
X-20246Y616264D01*
X-21243Y617510D01*
X-22208Y618780D01*
X-23143Y620072D01*
X-24046Y621388D01*
X-24915Y622725D01*
X-25752Y624083D01*
X-26556Y625462D01*
X-27325Y626859D01*
X-28060Y628275D01*
X-28759Y629709D01*
X-29424Y631159D01*
X-30052Y632626D01*
X-30645Y634107D01*
X-31200Y635602D01*
X-31719Y637111D01*
X-32201Y638631D01*
X-32645Y640164D01*
X-33052Y641706D01*
X-33421Y643258D01*
X-33751Y644819D01*
X-34043Y646387D01*
X-34296Y647963D01*
X-34511Y649543D01*
X-34687Y651129D01*
X-34824Y652718D01*
X-34922Y654311D01*
X-34980Y655905D01*
X-35000Y657500D01*
X-35000Y130000D02*
X-34980Y131595D01*
X-34922Y133189D01*
X-34824Y134782D01*
X-34687Y136371D01*
X-34511Y137957D01*
X-34296Y139537D01*
X-34043Y141113D01*
X-33751Y142681D01*
X-33421Y144242D01*
X-33052Y145794D01*
X-32645Y147336D01*
X-32201Y148869D01*
X-31719Y150389D01*
X-31200Y151898D01*
X-30645Y153393D01*
X-30052Y154874D01*
X-29424Y156341D01*
X-28759Y157791D01*
X-28060Y159225D01*
X-27325Y160641D01*
X-26556Y162038D01*
X-25752Y163417D01*
X-24915Y164775D01*
X-24046Y166112D01*
X-23143Y167428D01*
X-22208Y168720D01*
X-21243Y169990D01*
X-20246Y171236D01*
X-19219Y172456D01*
X-18162Y173651D01*
X-17076Y174820D01*
X-15962Y175962D01*
X-14820Y177076D01*
X-13651Y178162D01*
X-12456Y179219D01*
X-11236Y180246D01*
X-9990Y181243D01*
X-8720Y182208D01*
X-7428Y183143D01*
X-6112Y184046D01*
X-4775Y184915D01*
X-3417Y185752D01*
X-2038Y186556D01*
X-641Y187325D01*
X775Y188060D01*
X2209Y188759D01*
X3659Y189424D01*
X5126Y190052D01*
X6607Y190645D01*
X8102Y191200D01*
X9611Y191719D01*
X11131Y192201D01*
X12664Y192645D01*
X14206Y193052D01*
X15758Y193421D01*
X17319Y193751D01*
X18887Y194043D01*
X20463Y194296D01*
X22043Y194511D01*
X23629Y194687D01*
X25218Y194824D01*
X26811Y194922D01*
X28405Y194980D01*
X30000Y195000D01*
X31595Y194980D01*
X33189Y194922D01*
X34782Y194824D01*
X36371Y194687D01*
X37957Y194511D01*
X39537Y194296D01*
X41113Y194043D01*
X42681Y193751D01*
X44242Y193421D01*
X45794Y193052D01*
X47336Y192645D01*
X48869Y192201D01*
X50389Y191719D01*
X51898Y191200D01*
X53393Y190645D01*
X54874Y190052D01*
X56341Y189424D01*
X57791Y188759D01*
X59225Y188060D01*
X60641Y187325D01*
X62038Y186556D01*
X63417Y185752D01*
X64775Y184915D01*
X66112Y184046D01*
X67428Y183143D01*
X68720Y182208D01*
X69990Y181243D01*
X71236Y180246D01*
X72456Y179219D01*
X73651Y178162D01*
X74820Y177076D01*
X75962Y175962D01*
X77076Y174820D01*
X78162Y173651D01*
X79219Y172456D01*
X80246Y171236D01*
X81243Y169990D01*
X82208Y168720D01*
X83143Y167428D01*
X84046Y166112D01*
X84915Y164775D01*
X85752Y163417D01*
X86556Y162038D01*
X87325Y160641D01*
X88060Y159225D01*
X88759Y157791D01*
X89424Y156341D01*
X90052Y154874D01*
X90645Y153393D01*
X91200Y151898D01*
X91719Y150389D01*
X92201Y148869D01*
X92645Y147336D01*
X93052Y145794D01*
X93421Y144242D01*
X93751Y142681D01*
X94043Y141113D01*
X94296Y139537D01*
X94511Y137957D01*
X94687Y136371D01*
X94824Y134782D01*
X94922Y133189D01*
X94980Y131595D01*
X95000Y130000D01*
X94980Y128405D01*
X94922Y126811D01*
X94824Y125218D01*
X94687Y123629D01*
X94511Y122043D01*
X94296Y120463D01*
X94043Y118887D01*
X93751Y117319D01*
X93421Y115758D01*
X93052Y114206D01*
X92645Y112664D01*
X92201Y111131D01*
X91719Y109611D01*
X91200Y108102D01*
X90645Y106607D01*
X90052Y105126D01*
X89424Y103659D01*
X88759Y102209D01*
X88060Y100775D01*
X87325Y99359D01*
X86556Y97962D01*
X85752Y96583D01*
X84915Y95225D01*
X84046Y93888D01*
X83143Y92572D01*
X82208Y91280D01*
X81243Y90010D01*
X80246Y88764D01*
X79219Y87544D01*
X78162Y86349D01*
X77076Y85180D01*
X75962Y84038D01*
X74820Y82924D01*
X73651Y81838D01*
X72456Y80781D01*
X71236Y79754D01*
X69990Y78757D01*
X68720Y77792D01*
X67428Y76857D01*
X66112Y75954D01*
X64775Y75085D01*
X63417Y74248D01*
X62038Y73444D01*
X60641Y72675D01*
X59225Y71940D01*
X57791Y71241D01*
X56341Y70576D01*
X54874Y69948D01*
X53393Y69355D01*
X51898Y68800D01*
X50389Y68281D01*
X48869Y67799D01*
X47336Y67355D01*
X45794Y66948D01*
X44242Y66579D01*
X42681Y66249D01*
X41113Y65957D01*
X39537Y65704D01*
X37957Y65489D01*
X36371Y65313D01*
X34782Y65176D01*
X33189Y65078D01*
X31595Y65020D01*
X30000Y65000D01*
X28405Y65020D01*
X26811Y65078D01*
X25218Y65176D01*
X23629Y65313D01*
X22043Y65489D01*
X20463Y65704D01*
X18887Y65957D01*
X17319Y66249D01*
X15758Y66579D01*
X14206Y66948D01*
X12664Y67355D01*
X11131Y67799D01*
X9611Y68281D01*
X8102Y68800D01*
X6607Y69355D01*
X5126Y69948D01*
X3659Y70576D01*
X2209Y71241D01*
X775Y71940D01*
X-641Y72675D01*
X-2038Y73444D01*
X-3417Y74248D01*
X-4775Y75085D01*
X-6112Y75954D01*
X-7428Y76857D01*
X-8720Y77792D01*
X-9990Y78757D01*
X-11236Y79754D01*
X-12456Y80781D01*
X-13651Y81838D01*
X-14820Y82924D01*
X-15962Y84038D01*
X-17076Y85180D01*
X-18162Y86349D01*
X-19219Y87544D01*
X-20246Y88764D01*
X-21243Y90010D01*
X-22208Y91280D01*
X-23143Y92572D01*
X-24046Y93888D01*
X-24915Y95225D01*
X-25752Y96583D01*
X-26556Y97962D01*
X-27325Y99359D01*
X-28060Y100775D01*
X-28759Y102209D01*
X-29424Y103659D01*
X-30052Y105126D01*
X-30645Y106607D01*
X-31200Y108102D01*
X-31719Y109611D01*
X-32201Y111131D01*
X-32645Y112664D01*
X-33052Y114206D01*
X-33421Y115758D01*
X-33751Y117319D01*
X-34043Y118887D01*
X-34296Y120463D01*
X-34511Y122043D01*
X-34687Y123629D01*
X-34824Y125218D01*
X-34922Y126811D01*
X-34980Y128405D01*
X-35000Y130000D01*
X977500Y130000D02*
X977520Y131595D01*
X977578Y133189D01*
X977676Y134782D01*
X977813Y136371D01*
X977989Y137957D01*
X978204Y139537D01*
X978457Y141113D01*
X978749Y142681D01*
X979079Y144242D01*
X979448Y145794D01*
X979855Y147336D01*
X980299Y148869D01*
X980781Y150389D01*
X981300Y151898D01*
X981855Y153393D01*
X982448Y154874D01*
X983076Y156341D01*
X983741Y157791D01*
X984440Y159225D01*
X985175Y160641D01*
X985944Y162038D01*
X986748Y163417D01*
X987585Y164775D01*
X988454Y166112D01*
X989357Y167428D01*
X990292Y168720D01*
X991257Y169990D01*
X992254Y171236D01*
X993281Y172456D01*
X994338Y173651D01*
X995424Y174820D01*
X996538Y175962D01*
X997680Y177076D01*
X998849Y178162D01*
X1000044Y179219D01*
X1001264Y180246D01*
X1002510Y181243D01*
X1003780Y182208D01*
X1005072Y183143D01*
X1006388Y184046D01*
X1007725Y184915D01*
X1009083Y185752D01*
X1010462Y186556D01*
X1011859Y187325D01*
X1013275Y188060D01*
X1014709Y188759D01*
X1016159Y189424D01*
X1017626Y190052D01*
X1019107Y190645D01*
X1020602Y191200D01*
X1022111Y191719D01*
X1023631Y192201D01*
X1025164Y192645D01*
X1026706Y193052D01*
X1028258Y193421D01*
X1029819Y193751D01*
X1031387Y194043D01*
X1032963Y194296D01*
X1034543Y194511D01*
X1036129Y194687D01*
X1037718Y194824D01*
X1039311Y194922D01*
X1040905Y194980D01*
X1042500Y195000D01*
X1044095Y194980D01*
X1045689Y194922D01*
X1047282Y194824D01*
X1048871Y194687D01*
X1050457Y194511D01*
X1052037Y194296D01*
X1053613Y194043D01*
X1055181Y193751D01*
X1056742Y193421D01*
X1058294Y193052D01*
X1059836Y192645D01*
X1061369Y192201D01*
X1062889Y191719D01*
X1064398Y191200D01*
X1065893Y190645D01*
X1067374Y190052D01*
X1068841Y189424D01*
X1070291Y188759D01*
X1071725Y188060D01*
X1073141Y187325D01*
X1074538Y186556D01*
X1075917Y185752D01*
X1077275Y184915D01*
X1078612Y184046D01*
X1079928Y183143D01*
X1081220Y182208D01*
X1082490Y181243D01*
X1083736Y180246D01*
X1084956Y179219D01*
X1086151Y178162D01*
X1087320Y177076D01*
X1088462Y175962D01*
X1089576Y174820D01*
X1090662Y173651D01*
X1091719Y172456D01*
X1092746Y171236D01*
X1093743Y169990D01*
X1094708Y168720D01*
X1095643Y167428D01*
X1096546Y166112D01*
X1097415Y164775D01*
X1098252Y163417D01*
X1099056Y162038D01*
X1099825Y160641D01*
X1100560Y159225D01*
X1101259Y157791D01*
X1101924Y156341D01*
X1102552Y154874D01*
X1103145Y153393D01*
X1103700Y151898D01*
X1104219Y150389D01*
X1104701Y148869D01*
X1105145Y147336D01*
X1105552Y145794D01*
X1105921Y144242D01*
X1106251Y142681D01*
X1106543Y141113D01*
X1106796Y139537D01*
X1107011Y137957D01*
X1107187Y136371D01*
X1107324Y134782D01*
X1107422Y133189D01*
X1107480Y131595D01*
X1107500Y130000D01*
X1107480Y128405D01*
X1107422Y126811D01*
X1107324Y125218D01*
X1107187Y123629D01*
X1107011Y122043D01*
X1106796Y120463D01*
X1106543Y118887D01*
X1106251Y117319D01*
X1105921Y115758D01*
X1105552Y114206D01*
X1105145Y112664D01*
X1104701Y111131D01*
X1104219Y109611D01*
X1103700Y108102D01*
X1103145Y106607D01*
X1102552Y105126D01*
X1101924Y103659D01*
X1101259Y102209D01*
X1100560Y100775D01*
X1099825Y99359D01*
X1099056Y97962D01*
X1098252Y96583D01*
X1097415Y95225D01*
X1096546Y93888D01*
X1095643Y92572D01*
X1094708Y91280D01*
X1093743Y90010D01*
X1092746Y88764D01*
X1091719Y87544D01*
X1090662Y86349D01*
X1089576Y85180D01*
X1088462Y84038D01*
X1087320Y82924D01*
X1086151Y81838D01*
X1084956Y80781D01*
X1083736Y79754D01*
X1082490Y78757D01*
X1081220Y77792D01*
X1079928Y76857D01*
X1078612Y75954D01*
X1077275Y75085D01*
X1075917Y74248D01*
X1074538Y73444D01*
X1073141Y72675D01*
X1071725Y71940D01*
X1070291Y71241D01*
X1068841Y70576D01*
X1067374Y69948D01*
X1065893Y69355D01*
X1064398Y68800D01*
X1062889Y68281D01*
X1061369Y67799D01*
X1059836Y67355D01*
X1058294Y66948D01*
X1056742Y66579D01*
X1055181Y66249D01*
X1053613Y65957D01*
X1052037Y65704D01*
X1050457Y65489D01*
X1048871Y65313D01*
X1047282Y65176D01*
X1045689Y65078D01*
X1044095Y65020D01*
X1042500Y65000D01*
X1040905Y65020D01*
X1039311Y65078D01*
X1037718Y65176D01*
X1036129Y65313D01*
X1034543Y65489D01*
X1032963Y65704D01*
X1031387Y65957D01*
X1029819Y66249D01*
X1028258Y66579D01*
X1026706Y66948D01*
X1025164Y67355D01*
X1023631Y67799D01*
X1022111Y68281D01*
X1020602Y68800D01*
X1019107Y69355D01*
X1017626Y69948D01*
X1016159Y70576D01*
X1014709Y71241D01*
X1013275Y71940D01*
X1011859Y72675D01*
X1010462Y73444D01*
X1009083Y74248D01*
X1007725Y75085D01*
X1006388Y75954D01*
X1005072Y76857D01*
X1003780Y77792D01*
X1002510Y78757D01*
X1001264Y79754D01*
X1000044Y80781D01*
X998849Y81838D01*
X997680Y82924D01*
X996538Y84038D01*
X995424Y85180D01*
X994338Y86349D01*
X993281Y87544D01*
X992254Y88764D01*
X991257Y90010D01*
X990292Y91280D01*
X989357Y92572D01*
X988454Y93888D01*
X987585Y95225D01*
X986748Y96583D01*
X985944Y97962D01*
X985175Y99359D01*
X984440Y100775D01*
X983741Y102209D01*
X983076Y103659D01*
X982448Y105126D01*
X981855Y106607D01*
X981300Y108102D01*
X980781Y109611D01*
X980299Y111131D01*
X979855Y112664D01*
X979448Y114206D01*
X979079Y115758D01*
X978749Y117319D01*
X978457Y118887D01*
X978204Y120463D01*
X977989Y122043D01*
X977813Y123629D01*
X977676Y125218D01*
X977578Y126811D01*
X977520Y128405D01*
X977500Y130000D01*
X977500Y657500D02*
X977520Y659095D01*
X977578Y660689D01*
X977676Y662282D01*
X977813Y663871D01*
X977989Y665457D01*
X978204Y667037D01*
X978457Y668613D01*
X978749Y670181D01*
X979079Y671742D01*
X979448Y673294D01*
X979855Y674836D01*
X980299Y676369D01*
X980781Y677889D01*
X981300Y679398D01*
X981855Y680893D01*
X982448Y682374D01*
X983076Y683841D01*
X983741Y685291D01*
X984440Y686725D01*
X985175Y688141D01*
X985944Y689538D01*
X986748Y690917D01*
X987585Y692275D01*
X988454Y693612D01*
X989357Y694928D01*
X990292Y696220D01*
X991257Y697490D01*
X992254Y698736D01*
X993281Y699956D01*
X994338Y701151D01*
X995424Y702320D01*
X996538Y703462D01*
X997680Y704576D01*
X998849Y705662D01*
X1000044Y706719D01*
X1001264Y707746D01*
X1002510Y708743D01*
X1003780Y709708D01*
X1005072Y710643D01*
X1006388Y711546D01*
X1007725Y712415D01*
X1009083Y713252D01*
X1010462Y714056D01*
X1011859Y714825D01*
X1013275Y715560D01*
X1014709Y716259D01*
X1016159Y716924D01*
X1017626Y717552D01*
X1019107Y718145D01*
X1020602Y718700D01*
X1022111Y719219D01*
X1023631Y719701D01*
X1025164Y720145D01*
X1026706Y720552D01*
X1028258Y720921D01*
X1029819Y721251D01*
X1031387Y721543D01*
X1032963Y721796D01*
X1034543Y722011D01*
X1036129Y722187D01*
X1037718Y722324D01*
X1039311Y722422D01*
X1040905Y722480D01*
X1042500Y722500D01*
X1044095Y722480D01*
X1045689Y722422D01*
X1047282Y722324D01*
X1048871Y722187D01*
X1050457Y722011D01*
X1052037Y721796D01*
X1053613Y721543D01*
X1055181Y721251D01*
X1056742Y720921D01*
X1058294Y720552D01*
X1059836Y720145D01*
X1061369Y719701D01*
X1062889Y719219D01*
X1064398Y718700D01*
X1065893Y718145D01*
X1067374Y717552D01*
X1068841Y716924D01*
X1070291Y716259D01*
X1071725Y715560D01*
X1073141Y714825D01*
X1074538Y714056D01*
X1075917Y713252D01*
X1077275Y712415D01*
X1078612Y711546D01*
X1079928Y710643D01*
X1081220Y709708D01*
X1082490Y708743D01*
X1083736Y707746D01*
X1084956Y706719D01*
X1086151Y705662D01*
X1087320Y704576D01*
X1088462Y703462D01*
X1089576Y702320D01*
X1090662Y701151D01*
X1091719Y699956D01*
X1092746Y698736D01*
X1093743Y697490D01*
X1094708Y696220D01*
X1095643Y694928D01*
X1096546Y693612D01*
X1097415Y692275D01*
X1098252Y690917D01*
X1099056Y689538D01*
X1099825Y688141D01*
X1100560Y686725D01*
X1101259Y685291D01*
X1101924Y683841D01*
X1102552Y682374D01*
X1103145Y680893D01*
X1103700Y679398D01*
X1104219Y677889D01*
X1104701Y676369D01*
X1105145Y674836D01*
X1105552Y673294D01*
X1105921Y671742D01*
X1106251Y670181D01*
X1106543Y668613D01*
X1106796Y667037D01*
X1107011Y665457D01*
X1107187Y663871D01*
X1107324Y662282D01*
X1107422Y660689D01*
X1107480Y659095D01*
X1107500Y657500D01*
X1107480Y655905D01*
X1107422Y654311D01*
X1107324Y652718D01*
X1107187Y651129D01*
X1107011Y649543D01*
X1106796Y647963D01*
X1106543Y646387D01*
X1106251Y644819D01*
X1105921Y643258D01*
X1105552Y641706D01*
X1105145Y640164D01*
X1104701Y638631D01*
X1104219Y637111D01*
X1103700Y635602D01*
X1103145Y634107D01*
X1102552Y632626D01*
X1101924Y631159D01*
X1101259Y629709D01*
X1100560Y628275D01*
X1099825Y626859D01*
X1099056Y625462D01*
X1098252Y624083D01*
X1097415Y622725D01*
X1096546Y621388D01*
X1095643Y620072D01*
X1094708Y618780D01*
X1093743Y617510D01*
X1092746Y616264D01*
X1091719Y615044D01*
X1090662Y613849D01*
X1089576Y612680D01*
X1088462Y611538D01*
X1087320Y610424D01*
X1086151Y609338D01*
X1084956Y608281D01*
X1083736Y607254D01*
X1082490Y606257D01*
X1081220Y605292D01*
X1079928Y604357D01*
X1078612Y603454D01*
X1077275Y602585D01*
X1075917Y601748D01*
X1074538Y600944D01*
X1073141Y600175D01*
X1071725Y599440D01*
X1070291Y598741D01*
X1068841Y598076D01*
X1067374Y597448D01*
X1065893Y596855D01*
X1064398Y596300D01*
X1062889Y595781D01*
X1061369Y595299D01*
X1059836Y594855D01*
X1058294Y594448D01*
X1056742Y594079D01*
X1055181Y593749D01*
X1053613Y593457D01*
X1052037Y593204D01*
X1050457Y592989D01*
X1048871Y592813D01*
X1047282Y592676D01*
X1045689Y592578D01*
X1044095Y592520D01*
X1042500Y592500D01*
X1040905Y592520D01*
X1039311Y592578D01*
X1037718Y592676D01*
X1036129Y592813D01*
X1034543Y592989D01*
X1032963Y593204D01*
X1031387Y593457D01*
X1029819Y593749D01*
X1028258Y594079D01*
X1026706Y594448D01*
X1025164Y594855D01*
X1023631Y595299D01*
X1022111Y595781D01*
X1020602Y596300D01*
X1019107Y596855D01*
X1017626Y597448D01*
X1016159Y598076D01*
X1014709Y598741D01*
X1013275Y599440D01*
X1011859Y600175D01*
X1010462Y600944D01*
X1009083Y601748D01*
X1007725Y602585D01*
X1006388Y603454D01*
X1005072Y604357D01*
X1003780Y605292D01*
X1002510Y606257D01*
X1001264Y607254D01*
X1000044Y608281D01*
X998849Y609338D01*
X997680Y610424D01*
X996538Y611538D01*
X995424Y612680D01*
X994338Y613849D01*
X993281Y615044D01*
X992254Y616264D01*
X991257Y617510D01*
X990292Y618780D01*
X989357Y620072D01*
X988454Y621388D01*
X987585Y622725D01*
X986748Y624083D01*
X985944Y625462D01*
X985175Y626859D01*
X984440Y628275D01*
X983741Y629709D01*
X983076Y631159D01*
X982448Y632626D01*
X981855Y634107D01*
X981300Y635602D01*
X980781Y637111D01*
X980299Y638631D01*
X979855Y640164D01*
X979448Y641706D01*
X979079Y643258D01*
X978749Y644819D01*
X978457Y646387D01*
X978204Y647963D01*
X977989Y649543D01*
X977813Y651129D01*
X977676Y652718D01*
X977578Y654311D01*
X977520Y655905D01*
X977500Y657500D01*
D19*
X588500Y706000D02*
X565500Y706000D01*
X565500Y676000D01*
X588500Y676000D01*
X588500Y706000D01*
X592000Y706000D02*
X606000Y706000D01*
D20*
X620186Y683158D02*
X624084Y683158D01*
X622135Y683158D02*
X622135Y694852D01*
X624084Y694852D02*
X620186Y694852D01*
X610441Y694852D02*
X608492Y692903D01*
X610441Y694852D02*
X614339Y694852D01*
X616288Y692903D01*
X616288Y685107D01*
X614339Y683158D01*
X610441Y683158D01*
X608492Y685107D01*
X604594Y690954D02*
X600696Y694852D01*
X600696Y683158D01*
X604594Y683158D02*
X596798Y683158D01*
D15*
X690890Y671458D02*
X690890Y708542D01*
X673110Y708542D01*
X673110Y671458D01*
X690890Y671458D01*
D11*
X695462Y672982D02*
X702072Y672982D01*
X702072Y676287D01*
X700970Y677388D01*
X698767Y677388D01*
X697665Y676287D01*
X697665Y672982D01*
X697665Y675185D02*
X695462Y677388D01*
X699868Y680466D02*
X702072Y682669D01*
X695462Y682669D01*
X695462Y680466D02*
X695462Y684873D01*
D15*
X690542Y664890D02*
X653458Y664890D01*
X653458Y647110D01*
X690542Y647110D01*
X690542Y664890D01*
D11*
X703612Y663970D02*
X704713Y665072D01*
X706916Y665072D01*
X708018Y663970D01*
X708018Y659564D01*
X706916Y658462D01*
X704713Y658462D01*
X703612Y659564D01*
X700534Y659564D02*
X699432Y658462D01*
X697229Y658462D01*
X696127Y659564D01*
X696127Y663970D01*
X697229Y665072D01*
X699432Y665072D01*
X700534Y663970D01*
X700534Y662868D01*
X699432Y661767D01*
X696127Y661767D01*
D15*
X666890Y671458D02*
X666890Y708542D01*
X649110Y708542D01*
X649110Y671458D01*
X666890Y671458D01*
D11*
X646072Y671982D02*
X639462Y671982D01*
X646072Y671982D02*
X646072Y675287D01*
X644970Y676388D01*
X642767Y676388D01*
X641665Y675287D01*
X641665Y671982D01*
X641665Y674185D02*
X639462Y676388D01*
X643868Y679466D02*
X646072Y681669D01*
X639462Y681669D01*
X639462Y679466D02*
X639462Y683873D01*
X639462Y686950D02*
X639462Y691357D01*
X643868Y691357D02*
X639462Y686950D01*
X643868Y691357D02*
X644970Y691357D01*
X646072Y690255D01*
X646072Y688052D01*
X644970Y686950D01*
D15*
X209542Y496890D02*
X172458Y496890D01*
X172458Y479110D01*
X209542Y479110D01*
X209542Y496890D01*
D11*
X232018Y496072D02*
X232018Y489462D01*
X232018Y496072D02*
X228713Y496072D01*
X227612Y494970D01*
X227612Y492767D01*
X228713Y491665D01*
X232018Y491665D01*
X229815Y491665D02*
X227612Y489462D01*
X224534Y493868D02*
X222331Y496072D01*
X222331Y489462D01*
X224534Y489462D02*
X220127Y489462D01*
X213745Y489462D02*
X213745Y496072D01*
X217050Y492767D01*
X212643Y492767D01*
D15*
X209542Y470890D02*
X172458Y470890D01*
X172458Y453110D01*
X209542Y453110D01*
X209542Y470890D01*
D11*
X232018Y469072D02*
X232018Y462462D01*
X232018Y469072D02*
X228713Y469072D01*
X227612Y467970D01*
X227612Y465767D01*
X228713Y464665D01*
X232018Y464665D01*
X229815Y464665D02*
X227612Y462462D01*
X224534Y466868D02*
X222331Y469072D01*
X222331Y462462D01*
X224534Y462462D02*
X220127Y462462D01*
X217050Y469072D02*
X212643Y469072D01*
X217050Y469072D02*
X217050Y465767D01*
X214847Y466868D01*
X213745Y466868D01*
X212643Y465767D01*
X212643Y463564D01*
X213745Y462462D01*
X215948Y462462D01*
X217050Y463564D01*
D15*
X491458Y637890D02*
X528542Y637890D01*
X491458Y637890D02*
X491458Y620110D01*
X528542Y620110D01*
X528542Y637890D01*
D11*
X527018Y642462D02*
X527018Y649072D01*
X523713Y649072D01*
X522612Y647970D01*
X522612Y645767D01*
X523713Y644665D01*
X527018Y644665D01*
X524815Y644665D02*
X522612Y642462D01*
X519534Y642462D02*
X515127Y642462D01*
X515127Y646868D02*
X519534Y642462D01*
X515127Y646868D02*
X515127Y647970D01*
X516229Y649072D01*
X518432Y649072D01*
X519534Y647970D01*
X512050Y647970D02*
X512050Y643564D01*
X512050Y647970D02*
X510948Y649072D01*
X508745Y649072D01*
X507643Y647970D01*
X507643Y643564D01*
X508745Y642462D01*
X510948Y642462D01*
X512050Y643564D01*
X507643Y647970D01*
D15*
X483542Y637890D02*
X446458Y637890D01*
X446458Y620110D01*
X483542Y620110D01*
X483542Y637890D01*
D11*
X482018Y642462D02*
X482018Y649072D01*
X478713Y649072D01*
X477612Y647970D01*
X477612Y645767D01*
X478713Y644665D01*
X482018Y644665D01*
X479815Y644665D02*
X477612Y642462D01*
X474534Y642462D02*
X470127Y642462D01*
X470127Y646868D02*
X474534Y642462D01*
X470127Y646868D02*
X470127Y647970D01*
X471229Y649072D01*
X473432Y649072D01*
X474534Y647970D01*
X467050Y646868D02*
X464847Y649072D01*
X464847Y642462D01*
X467050Y642462D02*
X462643Y642462D01*
D15*
X447458Y572110D02*
X484542Y572110D01*
X484542Y589890D01*
X447458Y589890D01*
X447458Y572110D01*
D11*
X463426Y567544D02*
X463426Y560934D01*
X463426Y567544D02*
X460122Y567544D01*
X459020Y566442D01*
X459020Y564239D01*
X460122Y563137D01*
X463426Y563137D01*
X461223Y563137D02*
X459020Y560934D01*
X455942Y566442D02*
X454841Y567544D01*
X452637Y567544D01*
X451536Y566442D01*
X451536Y565340D01*
X452637Y564239D01*
X453739Y564239D01*
X452637Y564239D02*
X451536Y563137D01*
X451536Y562036D01*
X452637Y560934D01*
X454841Y560934D01*
X455942Y562036D01*
D15*
X447458Y596110D02*
X484542Y596110D01*
X484542Y613890D01*
X447458Y613890D01*
X447458Y596110D01*
D11*
X517504Y581442D02*
X518606Y582544D01*
X520809Y582544D01*
X521910Y581442D01*
X521910Y577036D01*
X520809Y575934D01*
X518606Y575934D01*
X517504Y577036D01*
X514426Y580340D02*
X512223Y582544D01*
X512223Y575934D01*
X514426Y575934D02*
X510020Y575934D01*
X506942Y580340D02*
X504739Y582544D01*
X504739Y575934D01*
X506942Y575934D02*
X502536Y575934D01*
D15*
X439542Y613890D02*
X402458Y613890D01*
X402458Y596110D01*
X439542Y596110D01*
X439542Y613890D01*
D11*
X433612Y623970D02*
X434713Y625072D01*
X436916Y625072D01*
X438018Y623970D01*
X438018Y619564D01*
X436916Y618462D01*
X434713Y618462D01*
X433612Y619564D01*
X430534Y625072D02*
X426127Y625072D01*
X430534Y625072D02*
X430534Y621767D01*
X428331Y622868D01*
X427229Y622868D01*
X426127Y621767D01*
X426127Y619564D01*
X427229Y618462D01*
X429432Y618462D01*
X430534Y619564D01*
D15*
X439542Y589890D02*
X402458Y589890D01*
X402458Y572110D01*
X439542Y572110D01*
X439542Y589890D01*
D11*
X392713Y586072D02*
X391612Y584970D01*
X392713Y586072D02*
X394916Y586072D01*
X396018Y584970D01*
X396018Y580564D01*
X394916Y579462D01*
X392713Y579462D01*
X391612Y580564D01*
X386331Y584970D02*
X384127Y586072D01*
X386331Y584970D02*
X388534Y582767D01*
X388534Y580564D01*
X387432Y579462D01*
X385229Y579462D01*
X384127Y580564D01*
X384127Y581665D01*
X385229Y582767D01*
X388534Y582767D01*
D15*
X731458Y335110D02*
X768542Y335110D01*
X768542Y352890D01*
X731458Y352890D01*
X731458Y335110D01*
D11*
X719122Y342544D02*
X718020Y341442D01*
X719122Y342544D02*
X721325Y342544D01*
X722426Y341442D01*
X722426Y337036D01*
X721325Y335934D01*
X719122Y335934D01*
X718020Y337036D01*
X714942Y342544D02*
X710536Y342544D01*
X710536Y341442D01*
X714942Y337036D01*
X714942Y335934D01*
D15*
X385542Y405890D02*
X348458Y405890D01*
X348458Y388110D01*
X385542Y388110D01*
X385542Y405890D01*
D11*
X409612Y405970D02*
X410713Y407072D01*
X412916Y407072D01*
X414018Y405970D01*
X414018Y401564D01*
X412916Y400462D01*
X410713Y400462D01*
X409612Y401564D01*
X406534Y405970D02*
X405432Y407072D01*
X403229Y407072D01*
X402127Y405970D01*
X402127Y404868D01*
X403229Y403767D01*
X402127Y402665D01*
X402127Y401564D01*
X403229Y400462D01*
X405432Y400462D01*
X406534Y401564D01*
X406534Y402665D01*
X405432Y403767D01*
X406534Y404868D01*
X406534Y405970D01*
X405432Y403767D02*
X403229Y403767D01*
D15*
X402458Y548110D02*
X439542Y548110D01*
X439542Y565890D01*
X402458Y565890D01*
X402458Y548110D01*
D11*
X424910Y543544D02*
X424910Y536934D01*
X424910Y543544D02*
X421606Y543544D01*
X420504Y542442D01*
X420504Y540239D01*
X421606Y539137D01*
X424910Y539137D01*
X422707Y539137D02*
X420504Y536934D01*
X417426Y541340D02*
X415223Y543544D01*
X415223Y536934D01*
X417426Y536934D02*
X413020Y536934D01*
X409942Y538036D02*
X409942Y542442D01*
X408841Y543544D01*
X406637Y543544D01*
X405536Y542442D01*
X405536Y538036D01*
X406637Y536934D01*
X408841Y536934D01*
X409942Y538036D01*
X405536Y542442D01*
D15*
X568890Y595458D02*
X568890Y632542D01*
X551110Y632542D01*
X551110Y595458D01*
X568890Y595458D01*
D11*
X573462Y596982D02*
X580072Y596982D01*
X580072Y600287D01*
X578970Y601388D01*
X576767Y601388D01*
X575665Y600287D01*
X575665Y596982D01*
X575665Y599185D02*
X573462Y601388D01*
X577868Y604466D02*
X580072Y606669D01*
X573462Y606669D01*
X573462Y604466D02*
X573462Y608873D01*
X577868Y611950D02*
X580072Y614154D01*
X573462Y614154D01*
X573462Y616357D02*
X573462Y611950D01*
D15*
X353542Y589890D02*
X316458Y589890D01*
X316458Y572110D01*
X353542Y572110D01*
X353542Y589890D01*
D11*
X312018Y580072D02*
X312018Y573462D01*
X312018Y580072D02*
X308713Y580072D01*
X307612Y578970D01*
X307612Y576767D01*
X308713Y575665D01*
X312018Y575665D01*
X309815Y575665D02*
X307612Y573462D01*
X304534Y573462D02*
X300127Y573462D01*
X300127Y577868D02*
X304534Y573462D01*
X300127Y577868D02*
X300127Y578970D01*
X301229Y580072D01*
X303432Y580072D01*
X304534Y578970D01*
D15*
X349458Y466110D02*
X386542Y466110D01*
X386542Y483890D01*
X349458Y483890D01*
X349458Y466110D01*
D11*
X414018Y478462D02*
X414018Y485072D01*
X410713Y485072D01*
X409612Y483970D01*
X409612Y481767D01*
X410713Y480665D01*
X414018Y480665D01*
X411815Y480665D02*
X409612Y478462D01*
X404331Y483970D02*
X402127Y485072D01*
X404331Y483970D02*
X406534Y481767D01*
X406534Y479564D01*
X405432Y478462D01*
X403229Y478462D01*
X402127Y479564D01*
X402127Y480665D01*
X403229Y481767D01*
X406534Y481767D01*
D15*
X353542Y596110D02*
X316458Y596110D01*
X353542Y596110D02*
X353542Y613890D01*
X316458Y613890D01*
X316458Y596110D01*
D11*
X314426Y596934D02*
X314426Y603544D01*
X311122Y603544D01*
X310020Y602442D01*
X310020Y600239D01*
X311122Y599137D01*
X314426Y599137D01*
X312223Y599137D02*
X310020Y596934D01*
X306942Y603544D02*
X302536Y603544D01*
X302536Y602442D01*
X306942Y598036D01*
X306942Y596934D01*
D15*
X359458Y596110D02*
X396542Y596110D01*
X396542Y613890D01*
X359458Y613890D01*
X359458Y596110D01*
D11*
X394426Y617934D02*
X394426Y624544D01*
X391122Y624544D01*
X390020Y623442D01*
X390020Y621239D01*
X391122Y620137D01*
X394426Y620137D01*
X392223Y620137D02*
X390020Y617934D01*
X386942Y624544D02*
X382536Y624544D01*
X386942Y624544D02*
X386942Y621239D01*
X384739Y622340D01*
X383637Y622340D01*
X382536Y621239D01*
X382536Y619036D01*
X383637Y617934D01*
X385841Y617934D01*
X386942Y619036D01*
D15*
X638458Y604110D02*
X675542Y604110D01*
X675542Y621890D01*
X638458Y621890D01*
X638458Y604110D01*
D11*
X693426Y609934D02*
X693426Y616544D01*
X690122Y616544D01*
X689020Y615442D01*
X689020Y613239D01*
X690122Y612137D01*
X693426Y612137D01*
X691223Y612137D02*
X689020Y609934D01*
X682637Y609934D02*
X682637Y616544D01*
X685942Y613239D01*
X681536Y613239D01*
D15*
X385542Y457890D02*
X348458Y457890D01*
X348458Y440110D01*
X385542Y440110D01*
X385542Y457890D01*
D11*
X414018Y459072D02*
X414018Y452462D01*
X414018Y459072D02*
X410713Y459072D01*
X409612Y457970D01*
X409612Y455767D01*
X410713Y454665D01*
X414018Y454665D01*
X411815Y454665D02*
X409612Y452462D01*
X406534Y456868D02*
X404331Y459072D01*
X404331Y452462D01*
X406534Y452462D02*
X402127Y452462D01*
X396847Y457970D02*
X394643Y459072D01*
X396847Y457970D02*
X399050Y455767D01*
X399050Y453564D01*
X397948Y452462D01*
X395745Y452462D01*
X394643Y453564D01*
X394643Y454665D01*
X395745Y455767D01*
X399050Y455767D01*
D15*
X385542Y431890D02*
X348458Y431890D01*
X348458Y414110D01*
X385542Y414110D01*
X385542Y431890D01*
D11*
X414018Y433072D02*
X414018Y426462D01*
X414018Y433072D02*
X410713Y433072D01*
X409612Y431970D01*
X409612Y429767D01*
X410713Y428665D01*
X414018Y428665D01*
X411815Y428665D02*
X409612Y426462D01*
X406534Y431970D02*
X405432Y433072D01*
X403229Y433072D01*
X402127Y431970D01*
X402127Y430868D01*
X403229Y429767D01*
X402127Y428665D01*
X402127Y427564D01*
X403229Y426462D01*
X405432Y426462D01*
X406534Y427564D01*
X406534Y428665D01*
X405432Y429767D01*
X406534Y430868D01*
X406534Y431970D01*
X405432Y429767D02*
X403229Y429767D01*
D15*
X731458Y306110D02*
X768542Y306110D01*
X768542Y323890D01*
X731458Y323890D01*
X731458Y306110D01*
D11*
X727910Y305934D02*
X727910Y312544D01*
X724606Y312544D01*
X723504Y311442D01*
X723504Y309239D01*
X724606Y308137D01*
X727910Y308137D01*
X725707Y308137D02*
X723504Y305934D01*
X720426Y310340D02*
X718223Y312544D01*
X718223Y305934D01*
X720426Y305934D02*
X716020Y305934D01*
X712942Y311442D02*
X711841Y312544D01*
X709637Y312544D01*
X708536Y311442D01*
X708536Y310340D01*
X709637Y309239D01*
X708536Y308137D01*
X708536Y307036D01*
X709637Y305934D01*
X711841Y305934D01*
X712942Y307036D01*
X712942Y308137D01*
X711841Y309239D01*
X712942Y310340D01*
X712942Y311442D01*
X711841Y309239D02*
X709637Y309239D01*
D15*
X483542Y686110D02*
X446458Y686110D01*
X483542Y686110D02*
X483542Y703890D01*
X446458Y703890D01*
X446458Y686110D01*
D11*
X444426Y685934D02*
X444426Y692544D01*
X441122Y692544D01*
X440020Y691442D01*
X440020Y689239D01*
X441122Y688137D01*
X444426Y688137D01*
X442223Y688137D02*
X440020Y685934D01*
X436942Y687036D02*
X435841Y685934D01*
X433637Y685934D01*
X432536Y687036D01*
X432536Y691442D01*
X433637Y692544D01*
X435841Y692544D01*
X436942Y691442D01*
X436942Y690340D01*
X435841Y689239D01*
X432536Y689239D01*
D15*
X385542Y378890D02*
X348458Y378890D01*
X348458Y361110D01*
X385542Y361110D01*
X385542Y378890D01*
D11*
X414018Y380072D02*
X414018Y373462D01*
X414018Y380072D02*
X410713Y380072D01*
X409612Y378970D01*
X409612Y376767D01*
X410713Y375665D01*
X414018Y375665D01*
X411815Y375665D02*
X409612Y373462D01*
X406534Y377868D02*
X404331Y380072D01*
X404331Y373462D01*
X406534Y373462D02*
X402127Y373462D01*
X399050Y374564D02*
X397948Y373462D01*
X395745Y373462D01*
X394643Y374564D01*
X394643Y378970D01*
X395745Y380072D01*
X397948Y380072D01*
X399050Y378970D01*
X399050Y377868D01*
X397948Y376767D01*
X394643Y376767D01*
D15*
X731458Y364110D02*
X768542Y364110D01*
X768542Y381890D01*
X731458Y381890D01*
X731458Y364110D01*
D11*
X729910Y364934D02*
X729910Y371544D01*
X726606Y371544D01*
X725504Y370442D01*
X725504Y368239D01*
X726606Y367137D01*
X729910Y367137D01*
X727707Y367137D02*
X725504Y364934D01*
X722426Y364934D02*
X718020Y364934D01*
X722426Y364934D02*
X718020Y369340D01*
X718020Y370442D01*
X719122Y371544D01*
X721325Y371544D01*
X722426Y370442D01*
X714942Y364934D02*
X710536Y364934D01*
X714942Y364934D02*
X710536Y369340D01*
X710536Y370442D01*
X711637Y371544D01*
X713841Y371544D01*
X714942Y370442D01*
M02*
