G04 EAGLE Gerber RS-274X export*
G75*
%MOMM*%
%FSLAX34Y34*%
%LPD*%
%INSilkscreen Top*%
%IPPOS*%
%AMOC8*
5,1,8,0,0,1.08239X$1,22.5*%
G01*
%ADD10C,0.330200*%
%ADD11C,0.304800*%
%ADD12C,1.041400*%
%ADD13C,0.076200*%
%ADD14C,0.127000*%
%ADD15C,0.100000*%
%ADD16C,0.300000*%
%ADD17C,0.177800*%
%ADD18C,0.200000*%
%ADD19C,0.101600*%
%ADD20C,0.200000*%
%ADD21C,0.152400*%
%ADD22C,0.762000*%
%ADD23C,0.050800*%
%ADD24C,0.203200*%
%ADD25R,0.150000X0.300000*%
%ADD26R,0.300000X0.300000*%


D10*
X850349Y358651D02*
X833637Y358651D01*
X839208Y364222D01*
X833637Y369793D01*
X850349Y369793D01*
X850349Y377067D02*
X839208Y377067D01*
X833637Y382637D01*
X839208Y388208D01*
X850349Y388208D01*
X841993Y388208D02*
X841993Y377067D01*
X833637Y395482D02*
X850349Y406624D01*
X850349Y395482D02*
X833637Y406624D01*
X836422Y437885D02*
X833637Y443455D01*
X836422Y437885D02*
X841993Y432314D01*
X847564Y432314D01*
X850349Y435099D01*
X850349Y440670D01*
X847564Y443455D01*
X844778Y443455D01*
X841993Y440670D01*
X841993Y432314D01*
X847564Y450730D02*
X836422Y450730D01*
X833637Y453515D01*
X833637Y459086D01*
X836422Y461871D01*
X847564Y461871D01*
X850349Y459086D01*
X850349Y453515D01*
X847564Y450730D01*
X836422Y461871D01*
X833637Y469145D02*
X844778Y469145D01*
X850349Y474716D01*
X844778Y480287D01*
X833637Y480287D01*
X863637Y358651D02*
X880349Y358651D01*
X869208Y364222D02*
X863637Y358651D01*
X869208Y364222D02*
X863637Y369793D01*
X880349Y369793D01*
X880349Y377067D02*
X869208Y377067D01*
X863637Y382637D01*
X869208Y388208D01*
X880349Y388208D01*
X871993Y388208D02*
X871993Y377067D01*
X863637Y395482D02*
X880349Y406624D01*
X880349Y395482D02*
X863637Y406624D01*
X880349Y432314D02*
X880349Y443455D01*
X880349Y432314D02*
X869208Y443455D01*
X866422Y443455D01*
X863637Y440670D01*
X863637Y435099D01*
X866422Y432314D01*
X866422Y450730D02*
X877564Y450730D01*
X866422Y450730D02*
X863637Y453515D01*
X863637Y459086D01*
X866422Y461871D01*
X877564Y461871D01*
X880349Y459086D01*
X880349Y453515D01*
X877564Y450730D01*
X866422Y461871D01*
X869208Y469145D02*
X880349Y469145D01*
X869208Y469145D02*
X863637Y474716D01*
X869208Y480287D01*
X880349Y480287D01*
X871993Y480287D02*
X871993Y469145D01*
X893637Y358651D02*
X910349Y358651D01*
X899208Y364222D02*
X893637Y358651D01*
X899208Y364222D02*
X893637Y369793D01*
X910349Y369793D01*
X910349Y377067D02*
X899208Y377067D01*
X893637Y382637D01*
X899208Y388208D01*
X910349Y388208D01*
X901993Y388208D02*
X901993Y377067D01*
X893637Y395482D02*
X910349Y406624D01*
X910349Y395482D02*
X893637Y406624D01*
X910349Y432314D02*
X910349Y443455D01*
X910349Y432314D02*
X899208Y443455D01*
X896422Y443455D01*
X893637Y440670D01*
X893637Y435099D01*
X896422Y432314D01*
X893637Y450730D02*
X893637Y461871D01*
X893637Y450730D02*
X901993Y450730D01*
X899208Y456300D01*
X899208Y459086D01*
X901993Y461871D01*
X907564Y461871D01*
X910349Y459086D01*
X910349Y453515D01*
X907564Y450730D01*
X907564Y469145D02*
X896422Y469145D01*
X893637Y471931D01*
X893637Y477501D01*
X896422Y480287D01*
X907564Y480287D01*
X910349Y477501D01*
X910349Y471931D01*
X907564Y469145D01*
X896422Y480287D01*
X893637Y487561D02*
X910349Y487561D01*
X904778Y493132D01*
X910349Y498703D01*
X893637Y498703D01*
D11*
X247354Y429476D02*
X237524Y429476D01*
X247354Y429476D02*
X252269Y424561D01*
X247354Y419646D01*
X237524Y419646D01*
X244896Y419646D02*
X244896Y429476D01*
X252269Y413104D02*
X237524Y403275D01*
X237524Y413104D02*
X252269Y403275D01*
X252269Y396733D02*
X252269Y386903D01*
X252269Y396733D02*
X237524Y396733D01*
X237524Y386903D01*
X244896Y391818D02*
X244896Y396733D01*
X252269Y380361D02*
X237524Y380361D01*
X237524Y370532D01*
X239981Y347618D02*
X237524Y345161D01*
X237524Y342703D01*
X239981Y340246D01*
X252269Y340246D01*
X252269Y342703D02*
X252269Y337788D01*
X252269Y328789D02*
X252269Y323874D01*
X252269Y328789D02*
X249811Y331247D01*
X239981Y331247D01*
X237524Y328789D01*
X237524Y323874D01*
X239981Y321417D01*
X249811Y321417D01*
X252269Y323874D01*
X252269Y314875D02*
X237524Y314875D01*
X244896Y314875D02*
X244896Y305045D01*
X237524Y305045D02*
X252269Y305045D01*
X247354Y298504D02*
X237524Y298504D01*
X247354Y298504D02*
X252269Y293589D01*
X247354Y288674D01*
X237524Y288674D01*
X244896Y288674D02*
X244896Y298504D01*
X237524Y282132D02*
X252269Y282132D01*
X237524Y272302D01*
X252269Y272302D01*
X252269Y258388D02*
X249811Y255931D01*
X252269Y258388D02*
X252269Y263303D01*
X249811Y265760D01*
X247354Y265760D01*
X244896Y263303D01*
X244896Y258388D01*
X242439Y255931D01*
X239981Y255931D01*
X237524Y258388D01*
X237524Y263303D01*
X239981Y265760D01*
X252269Y242017D02*
X249811Y239559D01*
X252269Y242017D02*
X252269Y246931D01*
X249811Y249389D01*
X247354Y249389D01*
X244896Y246931D01*
X244896Y242017D01*
X242439Y239559D01*
X239981Y239559D01*
X237524Y242017D01*
X237524Y246931D01*
X239981Y249389D01*
X252269Y230560D02*
X252269Y225645D01*
X252269Y230560D02*
X249811Y233017D01*
X239981Y233017D01*
X237524Y230560D01*
X237524Y225645D01*
X239981Y223188D01*
X249811Y223188D01*
X252269Y225645D01*
X252269Y216646D02*
X237524Y216646D01*
X237524Y206816D02*
X252269Y216646D01*
X252269Y206816D02*
X237524Y206816D01*
D12*
X829949Y630207D02*
X829949Y709999D01*
X829949Y219999D02*
X829949Y140207D01*
X790053Y180103D02*
X869845Y180103D01*
D11*
X222269Y419646D02*
X222269Y429476D01*
X207524Y429476D01*
X207524Y419646D01*
X214896Y424561D02*
X214896Y429476D01*
X222269Y413104D02*
X207524Y413104D01*
X207524Y403275D01*
X222269Y396733D02*
X222269Y386903D01*
X222269Y396733D02*
X207524Y396733D01*
X207524Y386903D01*
X214896Y391818D02*
X214896Y396733D01*
X222269Y372989D02*
X219811Y370532D01*
X222269Y372989D02*
X222269Y377904D01*
X219811Y380361D01*
X209981Y380361D01*
X207524Y377904D01*
X207524Y372989D01*
X209981Y370532D01*
X207524Y359075D02*
X222269Y359075D01*
X222269Y363990D02*
X222269Y354160D01*
X222269Y347618D02*
X207524Y347618D01*
X222269Y347618D02*
X222269Y340246D01*
X219811Y337788D01*
X214896Y337788D01*
X212439Y340246D01*
X212439Y347618D01*
X212439Y342703D02*
X207524Y337788D01*
X222269Y328789D02*
X222269Y323874D01*
X222269Y328789D02*
X219811Y331247D01*
X209981Y331247D01*
X207524Y328789D01*
X207524Y323874D01*
X209981Y321417D01*
X219811Y321417D01*
X222269Y323874D01*
X222269Y314875D02*
X207524Y314875D01*
X207524Y305045D02*
X222269Y314875D01*
X222269Y305045D02*
X207524Y305045D01*
X207524Y298504D02*
X207524Y293589D01*
X207524Y296046D02*
X222269Y296046D01*
X222269Y293589D02*
X222269Y298504D01*
X222269Y280217D02*
X219811Y277759D01*
X222269Y280217D02*
X222269Y285132D01*
X219811Y287589D01*
X209981Y287589D01*
X207524Y285132D01*
X207524Y280217D01*
X209981Y277759D01*
X207524Y254846D02*
X222269Y254846D01*
X207524Y254846D02*
X207524Y245016D01*
X222269Y236017D02*
X222269Y231102D01*
X222269Y236017D02*
X219811Y238474D01*
X209981Y238474D01*
X207524Y236017D01*
X207524Y231102D01*
X209981Y228645D01*
X219811Y228645D01*
X222269Y231102D01*
X217354Y222103D02*
X207524Y222103D01*
X217354Y222103D02*
X222269Y217188D01*
X217354Y212273D01*
X207524Y212273D01*
X214896Y212273D02*
X214896Y222103D01*
X222269Y205731D02*
X207524Y205731D01*
X207524Y198359D01*
X209981Y195902D01*
X219811Y195902D01*
X222269Y198359D01*
X222269Y205731D01*
X192269Y429476D02*
X182439Y429476D01*
X177524Y424561D01*
X182439Y419646D01*
X192269Y419646D01*
X187354Y413104D02*
X192269Y408190D01*
X177524Y408190D01*
X177524Y413104D02*
X177524Y403275D01*
X177524Y396733D02*
X179981Y396733D01*
X179981Y394275D01*
X177524Y394275D01*
X177524Y396733D01*
X179981Y388547D02*
X189811Y388547D01*
X192269Y386090D01*
X192269Y381175D01*
X189811Y378717D01*
X179981Y378717D01*
X177524Y381175D01*
X177524Y386090D01*
X179981Y388547D01*
X189811Y378717D01*
X177524Y355804D02*
X177524Y345974D01*
X177524Y355804D02*
X187354Y345974D01*
X189811Y345974D01*
X192269Y348432D01*
X192269Y353347D01*
X189811Y355804D01*
X189811Y339432D02*
X179981Y339432D01*
X189811Y339432D02*
X192269Y336975D01*
X192269Y332060D01*
X189811Y329603D01*
X179981Y329603D01*
X177524Y332060D01*
X177524Y336975D01*
X179981Y339432D01*
X189811Y329603D01*
X177524Y323061D02*
X177524Y313231D01*
X177524Y323061D02*
X187354Y313231D01*
X189811Y313231D01*
X192269Y315689D01*
X192269Y320603D01*
X189811Y323061D01*
X189811Y306689D02*
X179981Y306689D01*
X189811Y306689D02*
X192269Y304232D01*
X192269Y299317D01*
X189811Y296860D01*
X179981Y296860D01*
X177524Y299317D01*
X177524Y304232D01*
X179981Y306689D01*
X189811Y296860D01*
D13*
X248086Y705455D02*
X249627Y706996D01*
X249627Y710078D01*
X248086Y711619D01*
X246545Y711619D01*
X245004Y710078D01*
X245004Y706996D01*
X243463Y705455D01*
X241922Y705455D01*
X240381Y706996D01*
X240381Y710078D01*
X241922Y711619D01*
X240381Y699329D02*
X249627Y699329D01*
X249627Y702411D02*
X249627Y696247D01*
X246545Y693203D02*
X240381Y693203D01*
X246545Y693203D02*
X249627Y690121D01*
X246545Y687039D01*
X240381Y687039D01*
X245004Y687039D02*
X245004Y693203D01*
X240381Y680914D02*
X249627Y680914D01*
X249627Y683995D02*
X249627Y677832D01*
X249627Y674788D02*
X241922Y674788D01*
X240381Y673247D01*
X240381Y670165D01*
X241922Y668624D01*
X249627Y668624D01*
X249627Y660957D02*
X248086Y659416D01*
X249627Y660957D02*
X249627Y664039D01*
X248086Y665580D01*
X246545Y665580D01*
X245004Y664039D01*
X245004Y660957D01*
X243463Y659416D01*
X241922Y659416D01*
X240381Y660957D01*
X240381Y664039D01*
X241922Y665580D01*
X853051Y120847D02*
X862297Y120847D01*
X862297Y117766D02*
X862297Y123929D01*
X853051Y113181D02*
X853051Y110099D01*
X853051Y113181D02*
X854592Y114722D01*
X857674Y114722D01*
X859215Y113181D01*
X859215Y110099D01*
X857674Y108558D01*
X856133Y108558D01*
X856133Y114722D01*
X853051Y105514D02*
X853051Y100891D01*
X854592Y99350D01*
X856133Y100891D01*
X856133Y103973D01*
X857674Y105514D01*
X859215Y103973D01*
X859215Y99350D01*
X860756Y94765D02*
X854592Y94765D01*
X853051Y93224D01*
X859215Y93224D02*
X859215Y96306D01*
X859215Y80959D02*
X862297Y77878D01*
X853051Y77878D01*
X853051Y80959D02*
X853051Y74796D01*
X853051Y71752D02*
X853051Y65588D01*
X853051Y71752D02*
X859215Y65588D01*
X860756Y65588D01*
X862297Y67129D01*
X862297Y70211D01*
X860756Y71752D01*
X859215Y62544D02*
X853051Y59462D01*
X859215Y56380D01*
X773627Y119996D02*
X773627Y123078D01*
X772086Y124619D01*
X765922Y124619D01*
X764381Y123078D01*
X764381Y119996D01*
X765922Y118455D01*
X772086Y118455D01*
X773627Y119996D01*
X773627Y115411D02*
X764381Y115411D01*
X764381Y109247D02*
X773627Y115411D01*
X773627Y109247D02*
X764381Y109247D01*
X764381Y106203D02*
X773627Y100039D01*
X773627Y95455D02*
X773627Y92373D01*
X773627Y95455D02*
X772086Y96995D01*
X765922Y96995D01*
X764381Y95455D01*
X764381Y92373D01*
X765922Y90832D01*
X772086Y90832D01*
X773627Y92373D01*
X773627Y87788D02*
X764381Y87788D01*
X773627Y87788D02*
X773627Y81624D01*
X769004Y84706D02*
X769004Y87788D01*
X764381Y78580D02*
X773627Y78580D01*
X773627Y72416D01*
X769004Y75498D02*
X769004Y78580D01*
D14*
X240371Y561365D02*
X233635Y561365D01*
X240371Y561365D02*
X240371Y557997D01*
X239248Y556875D01*
X238126Y556875D01*
X237003Y557997D01*
X235880Y556875D01*
X234758Y556875D01*
X233635Y557997D01*
X233635Y561365D01*
X237003Y561365D02*
X237003Y557997D01*
X238126Y553999D02*
X233635Y553999D01*
X238126Y553999D02*
X240371Y551753D01*
X238126Y549508D01*
X233635Y549508D01*
X237003Y549508D02*
X237003Y553999D01*
X233635Y544387D02*
X240371Y544387D01*
X240371Y546632D02*
X240371Y542142D01*
X240371Y537021D02*
X233635Y537021D01*
X240371Y539266D02*
X240371Y534776D01*
X240371Y531900D02*
X240371Y527409D01*
X240371Y531900D02*
X233635Y531900D01*
X233635Y527409D01*
X237003Y529655D02*
X237003Y531900D01*
X233635Y524534D02*
X240371Y524534D01*
X240371Y521166D01*
X239248Y520043D01*
X237003Y520043D01*
X235880Y521166D01*
X235880Y524534D01*
X235880Y522288D02*
X233635Y520043D01*
X239248Y517167D02*
X240371Y517167D01*
X239248Y517167D02*
X237003Y514922D01*
X239248Y512677D01*
X240371Y512677D01*
X237003Y514922D02*
X233635Y514922D01*
X233635Y502435D02*
X240371Y502435D01*
X233635Y502435D02*
X233635Y499067D01*
X234758Y497944D01*
X239248Y497944D01*
X240371Y499067D01*
X240371Y502435D01*
X233635Y495068D02*
X233635Y492823D01*
X233635Y493946D02*
X240371Y493946D01*
X240371Y495068D02*
X240371Y492823D01*
X240371Y486790D02*
X239248Y485667D01*
X240371Y486790D02*
X240371Y489035D01*
X239248Y490158D01*
X238126Y490158D01*
X237003Y489035D01*
X237003Y486790D01*
X235880Y485667D01*
X234758Y485667D01*
X233635Y486790D01*
X233635Y489035D01*
X234758Y490158D01*
X240371Y479423D02*
X239248Y478301D01*
X240371Y479423D02*
X240371Y481669D01*
X239248Y482791D01*
X234758Y482791D01*
X233635Y481669D01*
X233635Y479423D01*
X234758Y478301D01*
X233635Y475425D02*
X240371Y475425D01*
X237003Y475425D02*
X237003Y470935D01*
X240371Y470935D02*
X233635Y470935D01*
X233635Y468059D02*
X238126Y468059D01*
X240371Y465814D01*
X238126Y463568D01*
X233635Y463568D01*
X237003Y463568D02*
X237003Y468059D01*
X233635Y460693D02*
X240371Y460693D01*
X240371Y457325D01*
X239248Y456202D01*
X237003Y456202D01*
X235880Y457325D01*
X235880Y460693D01*
X235880Y458447D02*
X233635Y456202D01*
X240371Y449958D02*
X239248Y448836D01*
X240371Y449958D02*
X240371Y452204D01*
X239248Y453326D01*
X234758Y453326D01*
X233635Y452204D01*
X233635Y449958D01*
X234758Y448836D01*
X237003Y448836D01*
X237003Y451081D01*
X240371Y445960D02*
X240371Y441469D01*
X240371Y445960D02*
X233635Y445960D01*
X233635Y441469D01*
X237003Y443715D02*
X237003Y445960D01*
X227248Y556875D02*
X228371Y557997D01*
X228371Y560242D01*
X227248Y561365D01*
X222758Y561365D01*
X221635Y560242D01*
X221635Y557997D01*
X222758Y556875D01*
X228371Y552876D02*
X228371Y550631D01*
X228371Y552876D02*
X227248Y553999D01*
X222758Y553999D01*
X221635Y552876D01*
X221635Y550631D01*
X222758Y549508D01*
X227248Y549508D01*
X228371Y550631D01*
X228371Y546632D02*
X221635Y546632D01*
X226126Y544387D02*
X228371Y546632D01*
X226126Y544387D02*
X228371Y542142D01*
X221635Y542142D01*
X221635Y539266D02*
X228371Y539266D01*
X228371Y535898D01*
X227248Y534776D01*
X225003Y534776D01*
X223880Y535898D01*
X223880Y539266D01*
X221635Y531900D02*
X228371Y531900D01*
X221635Y531900D02*
X221635Y527409D01*
X228371Y524534D02*
X228371Y520043D01*
X228371Y524534D02*
X221635Y524534D01*
X221635Y520043D01*
X225003Y522288D02*
X225003Y524534D01*
X221635Y514922D02*
X228371Y514922D01*
X228371Y517167D02*
X228371Y512677D01*
X228371Y509801D02*
X228371Y505311D01*
X228371Y509801D02*
X221635Y509801D01*
X221635Y505311D01*
X225003Y507556D02*
X225003Y509801D01*
X228371Y502435D02*
X221635Y502435D01*
X221635Y499067D01*
X222758Y497944D01*
X227248Y497944D01*
X228371Y499067D01*
X228371Y502435D01*
D15*
X219000Y564000D02*
X243000Y564000D01*
X243000Y442000D01*
X219000Y442000D01*
X219000Y564000D01*
D16*
X234000Y656000D02*
X234000Y714000D01*
D14*
X195371Y637242D02*
X195371Y634997D01*
X195371Y637242D02*
X194248Y638365D01*
X189758Y638365D01*
X188635Y637242D01*
X188635Y634997D01*
X189758Y633875D01*
X194248Y633875D01*
X195371Y634997D01*
X195371Y630999D02*
X190880Y630999D01*
X188635Y628753D01*
X190880Y626508D01*
X195371Y626508D01*
X195371Y623632D02*
X195371Y619142D01*
X195371Y623632D02*
X188635Y623632D01*
X188635Y619142D01*
X192003Y621387D02*
X192003Y623632D01*
X188635Y616266D02*
X195371Y616266D01*
X195371Y612898D01*
X194248Y611776D01*
X192003Y611776D01*
X190880Y612898D01*
X190880Y616266D01*
X190880Y614021D02*
X188635Y611776D01*
X188635Y606655D02*
X195371Y606655D01*
X195371Y608900D02*
X195371Y604409D01*
X195371Y601534D02*
X195371Y597043D01*
X195371Y601534D02*
X188635Y601534D01*
X188635Y597043D01*
X192003Y599288D02*
X192003Y601534D01*
X188635Y594167D02*
X195371Y594167D01*
X193126Y591922D01*
X195371Y589677D01*
X188635Y589677D01*
X188635Y586801D02*
X195371Y586801D01*
X195371Y583433D01*
X194248Y582311D01*
X192003Y582311D01*
X190880Y583433D01*
X190880Y586801D01*
D15*
X202000Y573000D02*
X202000Y643000D01*
X202000Y573000D02*
X181000Y573000D01*
X181000Y643000D01*
X202000Y643000D01*
X241681Y121818D02*
X96342Y121818D01*
D13*
X355381Y306922D02*
X356922Y305381D01*
X358463Y305381D01*
X360004Y306922D01*
X360004Y314627D01*
X358463Y314627D02*
X361545Y314627D01*
X364589Y314627D02*
X364589Y305381D01*
X370753Y305381D01*
X379961Y313086D02*
X378420Y314627D01*
X375338Y314627D01*
X373797Y313086D01*
X373797Y306922D01*
X375338Y305381D01*
X378420Y305381D01*
X379961Y306922D01*
X383005Y306922D02*
X384546Y305381D01*
X386086Y305381D01*
X387627Y306922D01*
X387627Y314627D01*
X386086Y314627D02*
X389168Y314627D01*
X392212Y314627D02*
X392212Y305381D01*
X398376Y305381D01*
X407584Y313086D02*
X406043Y314627D01*
X402961Y314627D01*
X401420Y313086D01*
X401420Y306922D01*
X402961Y305381D01*
X406043Y305381D01*
X407584Y306922D01*
X410628Y306922D02*
X412169Y305381D01*
X413710Y305381D01*
X415251Y306922D01*
X415251Y314627D01*
X413710Y314627D02*
X416792Y314627D01*
X419836Y314627D02*
X419836Y305381D01*
X426000Y305381D01*
X435208Y313086D02*
X433667Y314627D01*
X430585Y314627D01*
X429044Y313086D01*
X429044Y306922D01*
X430585Y305381D01*
X433667Y305381D01*
X435208Y306922D01*
X438252Y306922D02*
X439793Y305381D01*
X441334Y305381D01*
X442875Y306922D01*
X442875Y314627D01*
X441334Y314627D02*
X444416Y314627D01*
X447459Y314627D02*
X447459Y305381D01*
X453623Y305381D01*
X462831Y313086D02*
X461290Y314627D01*
X458208Y314627D01*
X456667Y313086D01*
X456667Y306922D01*
X458208Y305381D01*
X461290Y305381D01*
X462831Y306922D01*
D14*
X532035Y117871D02*
X532035Y111135D01*
X532035Y117871D02*
X535403Y117871D01*
X536526Y116748D01*
X536526Y115626D01*
X535403Y114503D01*
X536526Y113380D01*
X536526Y112258D01*
X535403Y111135D01*
X532035Y111135D01*
X532035Y114503D02*
X535403Y114503D01*
X539401Y112258D02*
X539401Y117871D01*
X539401Y112258D02*
X540524Y111135D01*
X542769Y111135D01*
X543892Y112258D01*
X543892Y117871D01*
X546768Y117871D02*
X551258Y117871D01*
X551258Y116748D01*
X546768Y112258D01*
X546768Y111135D01*
X551258Y111135D01*
X554134Y117871D02*
X558624Y117871D01*
X558624Y116748D01*
X554134Y112258D01*
X554134Y111135D01*
X558624Y111135D01*
X561500Y117871D02*
X565991Y117871D01*
X561500Y117871D02*
X561500Y111135D01*
X565991Y111135D01*
X563745Y114503D02*
X561500Y114503D01*
X568866Y111135D02*
X568866Y117871D01*
X572234Y117871D01*
X573357Y116748D01*
X573357Y114503D01*
X572234Y113380D01*
X568866Y113380D01*
X571112Y113380D02*
X573357Y111135D01*
D17*
X289089Y344868D02*
X289089Y347611D01*
X289089Y346240D02*
X297318Y346240D01*
X297318Y347611D02*
X297318Y344868D01*
X297318Y341472D02*
X289089Y341472D01*
X297318Y341472D02*
X297318Y337358D01*
X295947Y335986D01*
X293204Y335986D01*
X291832Y337358D01*
X291832Y341472D01*
X291832Y338729D02*
X289089Y335986D01*
X289089Y332265D02*
X297318Y332265D01*
X297318Y326779D01*
X293204Y329522D02*
X293204Y332265D01*
X295947Y323057D02*
X297318Y321685D01*
X297318Y318942D01*
X295947Y317571D01*
X294575Y317571D01*
X293204Y318942D01*
X293204Y320314D01*
X293204Y318942D02*
X291832Y317571D01*
X290461Y317571D01*
X289089Y318942D01*
X289089Y321685D01*
X290461Y323057D01*
X290461Y313849D02*
X295947Y313849D01*
X297318Y312477D01*
X297318Y309734D01*
X295947Y308363D01*
X290461Y308363D01*
X289089Y309734D01*
X289089Y312477D01*
X290461Y313849D01*
X295947Y308363D01*
X295947Y304641D02*
X290461Y304641D01*
X295947Y304641D02*
X297318Y303270D01*
X297318Y300527D01*
X295947Y299155D01*
X290461Y299155D01*
X289089Y300527D01*
X289089Y303270D01*
X290461Y304641D01*
X295947Y299155D01*
X297318Y295433D02*
X289089Y295433D01*
X297318Y295433D02*
X297318Y291319D01*
X295947Y289947D01*
X293204Y289947D01*
X291832Y291319D01*
X291832Y295433D01*
X289089Y286225D02*
X289089Y280739D01*
X289089Y286225D02*
X294575Y280739D01*
X295947Y280739D01*
X297318Y282111D01*
X297318Y284854D01*
X295947Y286225D01*
X289089Y277018D02*
X289089Y271532D01*
X289089Y277018D02*
X294575Y271532D01*
X295947Y271532D01*
X297318Y272903D01*
X297318Y275646D01*
X295947Y277018D01*
X297318Y267810D02*
X297318Y262324D01*
X295947Y262324D01*
X290461Y267810D01*
X289089Y267810D01*
X819711Y388889D02*
X819711Y391632D01*
X819711Y390261D02*
X811482Y390261D01*
X811482Y391632D02*
X811482Y388889D01*
X811482Y395028D02*
X819711Y395028D01*
X811482Y395028D02*
X811482Y399142D01*
X812854Y400514D01*
X815597Y400514D01*
X816968Y399142D01*
X816968Y395028D01*
X816968Y397771D02*
X819711Y400514D01*
X819711Y404235D02*
X811482Y404235D01*
X811482Y409721D01*
X815597Y406978D02*
X815597Y404235D01*
X812854Y413443D02*
X811482Y414815D01*
X811482Y417558D01*
X812854Y418929D01*
X814225Y418929D01*
X815597Y417558D01*
X815597Y416186D01*
X815597Y417558D02*
X816968Y418929D01*
X818340Y418929D01*
X819711Y417558D01*
X819711Y414815D01*
X818340Y413443D01*
X818340Y422651D02*
X812854Y422651D01*
X811482Y424023D01*
X811482Y426766D01*
X812854Y428137D01*
X818340Y428137D01*
X819711Y426766D01*
X819711Y424023D01*
X818340Y422651D01*
X812854Y428137D01*
X812854Y431859D02*
X818340Y431859D01*
X812854Y431859D02*
X811482Y433230D01*
X811482Y435973D01*
X812854Y437345D01*
X818340Y437345D01*
X819711Y435973D01*
X819711Y433230D01*
X818340Y431859D01*
X812854Y437345D01*
X811482Y441067D02*
X819711Y441067D01*
X811482Y441067D02*
X811482Y445181D01*
X812854Y446553D01*
X815597Y446553D01*
X816968Y445181D01*
X816968Y441067D01*
X819711Y450275D02*
X819711Y455761D01*
X819711Y450275D02*
X814225Y455761D01*
X812854Y455761D01*
X811482Y454389D01*
X811482Y451646D01*
X812854Y450275D01*
X819711Y459482D02*
X819711Y464968D01*
X819711Y459482D02*
X814225Y464968D01*
X812854Y464968D01*
X811482Y463597D01*
X811482Y460854D01*
X812854Y459482D01*
X811482Y468690D02*
X811482Y474176D01*
X812854Y474176D01*
X818340Y468690D01*
X819711Y468690D01*
D14*
X943350Y371100D02*
X943350Y350700D01*
X943350Y413300D02*
X943350Y443100D01*
X943350Y485300D02*
X943350Y505700D01*
X1115350Y505700D01*
X1115350Y350700D01*
X943350Y350700D01*
D18*
X960850Y345200D02*
X960852Y345263D01*
X960858Y345325D01*
X960868Y345387D01*
X960881Y345449D01*
X960899Y345509D01*
X960920Y345568D01*
X960945Y345626D01*
X960974Y345682D01*
X961006Y345736D01*
X961041Y345788D01*
X961079Y345837D01*
X961121Y345885D01*
X961165Y345929D01*
X961213Y345971D01*
X961262Y346009D01*
X961314Y346044D01*
X961368Y346076D01*
X961424Y346105D01*
X961482Y346130D01*
X961541Y346151D01*
X961601Y346169D01*
X961663Y346182D01*
X961725Y346192D01*
X961787Y346198D01*
X961850Y346200D01*
X961913Y346198D01*
X961975Y346192D01*
X962037Y346182D01*
X962099Y346169D01*
X962159Y346151D01*
X962218Y346130D01*
X962276Y346105D01*
X962332Y346076D01*
X962386Y346044D01*
X962438Y346009D01*
X962487Y345971D01*
X962535Y345929D01*
X962579Y345885D01*
X962621Y345837D01*
X962659Y345788D01*
X962694Y345736D01*
X962726Y345682D01*
X962755Y345626D01*
X962780Y345568D01*
X962801Y345509D01*
X962819Y345449D01*
X962832Y345387D01*
X962842Y345325D01*
X962848Y345263D01*
X962850Y345200D01*
X962848Y345137D01*
X962842Y345075D01*
X962832Y345013D01*
X962819Y344951D01*
X962801Y344891D01*
X962780Y344832D01*
X962755Y344774D01*
X962726Y344718D01*
X962694Y344664D01*
X962659Y344612D01*
X962621Y344563D01*
X962579Y344515D01*
X962535Y344471D01*
X962487Y344429D01*
X962438Y344391D01*
X962386Y344356D01*
X962332Y344324D01*
X962276Y344295D01*
X962218Y344270D01*
X962159Y344249D01*
X962099Y344231D01*
X962037Y344218D01*
X961975Y344208D01*
X961913Y344202D01*
X961850Y344200D01*
X961787Y344202D01*
X961725Y344208D01*
X961663Y344218D01*
X961601Y344231D01*
X961541Y344249D01*
X961482Y344270D01*
X961424Y344295D01*
X961368Y344324D01*
X961314Y344356D01*
X961262Y344391D01*
X961213Y344429D01*
X961165Y344471D01*
X961121Y344515D01*
X961079Y344563D01*
X961041Y344612D01*
X961006Y344664D01*
X960974Y344718D01*
X960945Y344774D01*
X960920Y344832D01*
X960899Y344891D01*
X960881Y344951D01*
X960868Y345013D01*
X960858Y345075D01*
X960852Y345137D01*
X960850Y345200D01*
D19*
X938842Y353157D02*
X936893Y351208D01*
X938842Y353157D02*
X938842Y355106D01*
X936893Y357055D01*
X927148Y357055D01*
X927148Y355106D02*
X927148Y359004D01*
X938842Y362902D02*
X938842Y370698D01*
X938842Y362902D02*
X931046Y370698D01*
X929097Y370698D01*
X927148Y368749D01*
X927148Y364851D01*
X929097Y362902D01*
D15*
X364460Y717942D02*
X339460Y717942D01*
X339460Y137942D01*
X364460Y137942D01*
X394460Y137942D02*
X539460Y137942D01*
X539460Y717942D01*
X394460Y717942D01*
D19*
X455274Y424794D02*
X455274Y415049D01*
X457223Y413100D01*
X461121Y413100D01*
X463070Y415049D01*
X463070Y424794D01*
X466968Y422845D02*
X468917Y424794D01*
X472815Y424794D01*
X474764Y422845D01*
X474764Y420896D01*
X472815Y418947D01*
X470866Y418947D01*
X472815Y418947D02*
X474764Y416998D01*
X474764Y415049D01*
X472815Y413100D01*
X468917Y413100D01*
X466968Y415049D01*
D15*
X742500Y138000D02*
X767500Y138000D01*
X767500Y718000D01*
X742500Y718000D01*
X712500Y718000D02*
X567500Y718000D01*
X567500Y138000D01*
X712500Y138000D01*
D19*
X632314Y440107D02*
X632314Y449852D01*
X632314Y440107D02*
X634263Y438158D01*
X638161Y438158D01*
X640110Y440107D01*
X640110Y449852D01*
X649855Y449852D02*
X649855Y438158D01*
X644008Y444005D02*
X649855Y449852D01*
X651804Y444005D02*
X644008Y444005D01*
D15*
X118520Y75940D02*
X118520Y65940D01*
X219520Y65940D01*
X219520Y75940D01*
D20*
X236520Y167940D03*
D18*
X236582Y167942D01*
X236643Y167948D01*
X236704Y167957D01*
X236764Y167970D01*
X236823Y167987D01*
X236881Y168008D01*
X236938Y168032D01*
X236993Y168059D01*
X237046Y168090D01*
X237098Y168124D01*
X237147Y168161D01*
X237194Y168201D01*
X237238Y168244D01*
X237279Y168289D01*
X237318Y168337D01*
X237354Y168388D01*
X237386Y168440D01*
X237415Y168494D01*
X237441Y168550D01*
X237463Y168608D01*
X237482Y168666D01*
X237497Y168726D01*
X237508Y168787D01*
X237516Y168848D01*
X237520Y168909D01*
X237520Y168971D01*
X237516Y169032D01*
X237508Y169093D01*
X237497Y169154D01*
X237482Y169214D01*
X237463Y169272D01*
X237441Y169330D01*
X237415Y169386D01*
X237386Y169440D01*
X237354Y169492D01*
X237318Y169543D01*
X237279Y169591D01*
X237238Y169636D01*
X237194Y169679D01*
X237147Y169719D01*
X237098Y169756D01*
X237046Y169790D01*
X236993Y169821D01*
X236938Y169848D01*
X236881Y169872D01*
X236823Y169893D01*
X236764Y169910D01*
X236704Y169923D01*
X236643Y169932D01*
X236582Y169938D01*
X236520Y169940D01*
D20*
X236520Y169940D03*
D18*
X236458Y169938D01*
X236397Y169932D01*
X236336Y169923D01*
X236276Y169910D01*
X236217Y169893D01*
X236159Y169872D01*
X236102Y169848D01*
X236047Y169821D01*
X235994Y169790D01*
X235942Y169756D01*
X235893Y169719D01*
X235846Y169679D01*
X235802Y169636D01*
X235761Y169591D01*
X235722Y169543D01*
X235686Y169492D01*
X235654Y169440D01*
X235625Y169386D01*
X235599Y169330D01*
X235577Y169272D01*
X235558Y169214D01*
X235543Y169154D01*
X235532Y169093D01*
X235524Y169032D01*
X235520Y168971D01*
X235520Y168909D01*
X235524Y168848D01*
X235532Y168787D01*
X235543Y168726D01*
X235558Y168666D01*
X235577Y168608D01*
X235599Y168550D01*
X235625Y168494D01*
X235654Y168440D01*
X235686Y168388D01*
X235722Y168337D01*
X235761Y168289D01*
X235802Y168244D01*
X235846Y168201D01*
X235893Y168161D01*
X235942Y168124D01*
X235994Y168090D01*
X236047Y168059D01*
X236102Y168032D01*
X236159Y168008D01*
X236217Y167987D01*
X236276Y167970D01*
X236336Y167957D01*
X236397Y167948D01*
X236458Y167942D01*
X236520Y167940D01*
D21*
X155300Y201150D02*
X155300Y704070D01*
X155380Y704410D02*
X-30040Y704410D01*
X-29620Y200830D02*
X155800Y200830D01*
X-30120Y201150D02*
X-30120Y704070D01*
D13*
X96444Y594067D02*
X97985Y592526D01*
X96444Y594067D02*
X93362Y594067D01*
X91821Y592526D01*
X91821Y586362D01*
X93362Y584821D01*
X96444Y584821D01*
X97985Y586362D01*
X97985Y589444D01*
X94903Y589444D01*
X101029Y584821D02*
X101029Y594067D01*
X107193Y584821D01*
X107193Y594067D01*
X110237Y594067D02*
X110237Y584821D01*
X114860Y584821D01*
X116401Y586362D01*
X116401Y592526D01*
X114860Y594067D01*
X110237Y594067D01*
X108985Y544067D02*
X102821Y544067D01*
X102821Y539444D01*
X105903Y540985D01*
X107444Y540985D01*
X108985Y539444D01*
X108985Y536362D01*
X107444Y534821D01*
X104362Y534821D01*
X102821Y536362D01*
X112029Y537903D02*
X112029Y544067D01*
X112029Y537903D02*
X115111Y534821D01*
X118193Y537903D01*
X118193Y544067D01*
X100444Y468067D02*
X101985Y466526D01*
X100444Y468067D02*
X97362Y468067D01*
X95821Y466526D01*
X95821Y464985D01*
X97362Y463444D01*
X100444Y463444D01*
X101985Y461903D01*
X101985Y460362D01*
X100444Y458821D01*
X97362Y458821D01*
X95821Y460362D01*
X109652Y468067D02*
X111193Y466526D01*
X109652Y468067D02*
X106570Y468067D01*
X105029Y466526D01*
X105029Y460362D01*
X106570Y458821D01*
X109652Y458821D01*
X111193Y460362D01*
X114237Y458821D02*
X114237Y468067D01*
X114237Y458821D02*
X120401Y458821D01*
X99985Y440526D02*
X98444Y442067D01*
X95362Y442067D01*
X93821Y440526D01*
X93821Y438985D01*
X95362Y437444D01*
X98444Y437444D01*
X99985Y435903D01*
X99985Y434362D01*
X98444Y432821D01*
X95362Y432821D01*
X93821Y434362D01*
X103029Y432821D02*
X103029Y442067D01*
X103029Y432821D02*
X107652Y432821D01*
X109193Y434362D01*
X109193Y440526D01*
X107652Y442067D01*
X103029Y442067D01*
X112237Y438985D02*
X112237Y432821D01*
X112237Y438985D02*
X115319Y442067D01*
X118401Y438985D01*
X118401Y432821D01*
X118401Y437444D02*
X112237Y437444D01*
D21*
X22440Y704440D02*
X22440Y709440D01*
X108440Y709440D01*
X108440Y704440D01*
D15*
X920540Y213860D02*
X950540Y213860D01*
X950540Y143860D02*
X920540Y143860D01*
D19*
X926303Y153018D02*
X924354Y154967D01*
X926303Y153018D02*
X928252Y153018D01*
X930201Y154967D01*
X930201Y164712D01*
X928252Y164712D02*
X932150Y164712D01*
X936048Y164712D02*
X943844Y164712D01*
X936048Y164712D02*
X936048Y158865D01*
X939946Y160814D01*
X941895Y160814D01*
X943844Y158865D01*
X943844Y154967D01*
X941895Y153018D01*
X937997Y153018D01*
X936048Y154967D01*
D15*
X921040Y707340D02*
X951040Y707340D01*
X951040Y637340D02*
X921040Y637340D01*
D19*
X916803Y713998D02*
X914854Y715947D01*
X916803Y713998D02*
X918752Y713998D01*
X920701Y715947D01*
X920701Y725692D01*
X918752Y725692D02*
X922650Y725692D01*
X930446Y723743D02*
X934344Y725692D01*
X930446Y723743D02*
X926548Y719845D01*
X926548Y715947D01*
X928497Y713998D01*
X932395Y713998D01*
X934344Y715947D01*
X934344Y717896D01*
X932395Y719845D01*
X926548Y719845D01*
D14*
X308500Y179500D02*
X308500Y80500D01*
X263500Y80500D01*
X263500Y179500D01*
X308500Y179500D01*
D18*
X257000Y100000D02*
X257002Y100063D01*
X257008Y100125D01*
X257018Y100187D01*
X257031Y100249D01*
X257049Y100309D01*
X257070Y100368D01*
X257095Y100426D01*
X257124Y100482D01*
X257156Y100536D01*
X257191Y100588D01*
X257229Y100637D01*
X257271Y100685D01*
X257315Y100729D01*
X257363Y100771D01*
X257412Y100809D01*
X257464Y100844D01*
X257518Y100876D01*
X257574Y100905D01*
X257632Y100930D01*
X257691Y100951D01*
X257751Y100969D01*
X257813Y100982D01*
X257875Y100992D01*
X257937Y100998D01*
X258000Y101000D01*
X258063Y100998D01*
X258125Y100992D01*
X258187Y100982D01*
X258249Y100969D01*
X258309Y100951D01*
X258368Y100930D01*
X258426Y100905D01*
X258482Y100876D01*
X258536Y100844D01*
X258588Y100809D01*
X258637Y100771D01*
X258685Y100729D01*
X258729Y100685D01*
X258771Y100637D01*
X258809Y100588D01*
X258844Y100536D01*
X258876Y100482D01*
X258905Y100426D01*
X258930Y100368D01*
X258951Y100309D01*
X258969Y100249D01*
X258982Y100187D01*
X258992Y100125D01*
X258998Y100063D01*
X259000Y100000D01*
X258998Y99937D01*
X258992Y99875D01*
X258982Y99813D01*
X258969Y99751D01*
X258951Y99691D01*
X258930Y99632D01*
X258905Y99574D01*
X258876Y99518D01*
X258844Y99464D01*
X258809Y99412D01*
X258771Y99363D01*
X258729Y99315D01*
X258685Y99271D01*
X258637Y99229D01*
X258588Y99191D01*
X258536Y99156D01*
X258482Y99124D01*
X258426Y99095D01*
X258368Y99070D01*
X258309Y99049D01*
X258249Y99031D01*
X258187Y99018D01*
X258125Y99008D01*
X258063Y99002D01*
X258000Y99000D01*
X257937Y99002D01*
X257875Y99008D01*
X257813Y99018D01*
X257751Y99031D01*
X257691Y99049D01*
X257632Y99070D01*
X257574Y99095D01*
X257518Y99124D01*
X257464Y99156D01*
X257412Y99191D01*
X257363Y99229D01*
X257315Y99271D01*
X257271Y99315D01*
X257229Y99363D01*
X257191Y99412D01*
X257156Y99464D01*
X257124Y99518D01*
X257095Y99574D01*
X257070Y99632D01*
X257049Y99691D01*
X257031Y99751D01*
X257018Y99813D01*
X257008Y99875D01*
X257002Y99937D01*
X257000Y100000D01*
D13*
X315373Y152303D02*
X324784Y152303D01*
X315373Y152303D02*
X315373Y158577D01*
X320078Y155440D02*
X320078Y152303D01*
X318510Y161662D02*
X324784Y161662D01*
X318510Y161662D02*
X315373Y164799D01*
X318510Y167936D01*
X324784Y167936D01*
X320078Y167936D02*
X320078Y161662D01*
X324784Y171022D02*
X315373Y171022D01*
X324784Y177295D01*
X315373Y177295D01*
D14*
X338550Y395350D02*
X285450Y395350D01*
X285450Y236650D01*
X338550Y236650D01*
X338550Y395350D01*
D22*
X320890Y407440D02*
X320892Y407563D01*
X320898Y407687D01*
X320908Y407810D01*
X320922Y407932D01*
X320940Y408054D01*
X320962Y408176D01*
X320987Y408296D01*
X321017Y408416D01*
X321051Y408535D01*
X321088Y408653D01*
X321129Y408769D01*
X321174Y408884D01*
X321223Y408997D01*
X321275Y409109D01*
X321331Y409219D01*
X321390Y409327D01*
X321453Y409433D01*
X321519Y409537D01*
X321589Y409639D01*
X321662Y409739D01*
X321738Y409836D01*
X321817Y409931D01*
X321899Y410023D01*
X321984Y410112D01*
X322072Y410199D01*
X322163Y410282D01*
X322256Y410363D01*
X322352Y410441D01*
X322451Y410515D01*
X322551Y410586D01*
X322654Y410654D01*
X322759Y410719D01*
X322867Y410780D01*
X322976Y410838D01*
X323087Y410892D01*
X323199Y410942D01*
X323314Y410989D01*
X323429Y411032D01*
X323546Y411071D01*
X323664Y411107D01*
X323784Y411138D01*
X323904Y411166D01*
X324025Y411190D01*
X324147Y411210D01*
X324269Y411226D01*
X324392Y411238D01*
X324515Y411246D01*
X324638Y411250D01*
X324762Y411250D01*
X324885Y411246D01*
X325008Y411238D01*
X325131Y411226D01*
X325253Y411210D01*
X325375Y411190D01*
X325496Y411166D01*
X325616Y411138D01*
X325736Y411107D01*
X325854Y411071D01*
X325971Y411032D01*
X326086Y410989D01*
X326201Y410942D01*
X326313Y410892D01*
X326424Y410838D01*
X326533Y410780D01*
X326641Y410719D01*
X326746Y410654D01*
X326849Y410586D01*
X326949Y410515D01*
X327048Y410441D01*
X327144Y410363D01*
X327237Y410282D01*
X327328Y410199D01*
X327416Y410112D01*
X327501Y410023D01*
X327583Y409931D01*
X327662Y409836D01*
X327738Y409739D01*
X327811Y409639D01*
X327881Y409537D01*
X327947Y409433D01*
X328010Y409327D01*
X328069Y409219D01*
X328125Y409109D01*
X328177Y408997D01*
X328226Y408884D01*
X328271Y408769D01*
X328312Y408653D01*
X328349Y408535D01*
X328383Y408416D01*
X328413Y408296D01*
X328438Y408176D01*
X328460Y408054D01*
X328478Y407932D01*
X328492Y407810D01*
X328502Y407687D01*
X328508Y407563D01*
X328510Y407440D01*
X328508Y407317D01*
X328502Y407193D01*
X328492Y407070D01*
X328478Y406948D01*
X328460Y406826D01*
X328438Y406704D01*
X328413Y406584D01*
X328383Y406464D01*
X328349Y406345D01*
X328312Y406227D01*
X328271Y406111D01*
X328226Y405996D01*
X328177Y405883D01*
X328125Y405771D01*
X328069Y405661D01*
X328010Y405553D01*
X327947Y405447D01*
X327881Y405343D01*
X327811Y405241D01*
X327738Y405141D01*
X327662Y405044D01*
X327583Y404949D01*
X327501Y404857D01*
X327416Y404768D01*
X327328Y404681D01*
X327237Y404598D01*
X327144Y404517D01*
X327048Y404439D01*
X326949Y404365D01*
X326849Y404294D01*
X326746Y404226D01*
X326641Y404161D01*
X326533Y404100D01*
X326424Y404042D01*
X326313Y403988D01*
X326201Y403938D01*
X326086Y403891D01*
X325971Y403848D01*
X325854Y403809D01*
X325736Y403773D01*
X325616Y403742D01*
X325496Y403714D01*
X325375Y403690D01*
X325253Y403670D01*
X325131Y403654D01*
X325008Y403642D01*
X324885Y403634D01*
X324762Y403630D01*
X324638Y403630D01*
X324515Y403634D01*
X324392Y403642D01*
X324269Y403654D01*
X324147Y403670D01*
X324025Y403690D01*
X323904Y403714D01*
X323784Y403742D01*
X323664Y403773D01*
X323546Y403809D01*
X323429Y403848D01*
X323314Y403891D01*
X323199Y403938D01*
X323087Y403988D01*
X322976Y404042D01*
X322867Y404100D01*
X322759Y404161D01*
X322654Y404226D01*
X322551Y404294D01*
X322451Y404365D01*
X322352Y404439D01*
X322256Y404517D01*
X322163Y404598D01*
X322072Y404681D01*
X321984Y404768D01*
X321899Y404857D01*
X321817Y404949D01*
X321738Y405044D01*
X321662Y405141D01*
X321589Y405241D01*
X321519Y405343D01*
X321453Y405447D01*
X321390Y405553D01*
X321331Y405661D01*
X321275Y405771D01*
X321223Y405883D01*
X321174Y405996D01*
X321129Y406111D01*
X321088Y406227D01*
X321051Y406345D01*
X321017Y406464D01*
X320987Y406584D01*
X320962Y406704D01*
X320940Y406826D01*
X320922Y406948D01*
X320908Y407070D01*
X320898Y407193D01*
X320892Y407317D01*
X320890Y407440D01*
D19*
X352591Y369378D02*
X360396Y369378D01*
X352591Y369378D02*
X350640Y371329D01*
X350640Y375232D01*
X352591Y377183D01*
X360396Y377183D01*
X362348Y375232D01*
X362348Y371329D01*
X360396Y369378D01*
X358445Y373281D02*
X362348Y377183D01*
X362348Y381085D02*
X362348Y388890D01*
X362348Y381085D02*
X354542Y388890D01*
X352591Y388890D01*
X350640Y386939D01*
X350640Y383036D01*
X352591Y381085D01*
D14*
X769450Y348650D02*
X822550Y348650D01*
X822550Y507350D01*
X769450Y507350D01*
X769450Y348650D01*
D22*
X779490Y336560D02*
X779492Y336683D01*
X779498Y336807D01*
X779508Y336930D01*
X779522Y337052D01*
X779540Y337174D01*
X779562Y337296D01*
X779587Y337416D01*
X779617Y337536D01*
X779651Y337655D01*
X779688Y337773D01*
X779729Y337889D01*
X779774Y338004D01*
X779823Y338117D01*
X779875Y338229D01*
X779931Y338339D01*
X779990Y338447D01*
X780053Y338553D01*
X780119Y338657D01*
X780189Y338759D01*
X780262Y338859D01*
X780338Y338956D01*
X780417Y339051D01*
X780499Y339143D01*
X780584Y339232D01*
X780672Y339319D01*
X780763Y339402D01*
X780856Y339483D01*
X780952Y339561D01*
X781051Y339635D01*
X781151Y339706D01*
X781254Y339774D01*
X781359Y339839D01*
X781467Y339900D01*
X781576Y339958D01*
X781687Y340012D01*
X781799Y340062D01*
X781914Y340109D01*
X782029Y340152D01*
X782146Y340191D01*
X782264Y340227D01*
X782384Y340258D01*
X782504Y340286D01*
X782625Y340310D01*
X782747Y340330D01*
X782869Y340346D01*
X782992Y340358D01*
X783115Y340366D01*
X783238Y340370D01*
X783362Y340370D01*
X783485Y340366D01*
X783608Y340358D01*
X783731Y340346D01*
X783853Y340330D01*
X783975Y340310D01*
X784096Y340286D01*
X784216Y340258D01*
X784336Y340227D01*
X784454Y340191D01*
X784571Y340152D01*
X784686Y340109D01*
X784801Y340062D01*
X784913Y340012D01*
X785024Y339958D01*
X785133Y339900D01*
X785241Y339839D01*
X785346Y339774D01*
X785449Y339706D01*
X785549Y339635D01*
X785648Y339561D01*
X785744Y339483D01*
X785837Y339402D01*
X785928Y339319D01*
X786016Y339232D01*
X786101Y339143D01*
X786183Y339051D01*
X786262Y338956D01*
X786338Y338859D01*
X786411Y338759D01*
X786481Y338657D01*
X786547Y338553D01*
X786610Y338447D01*
X786669Y338339D01*
X786725Y338229D01*
X786777Y338117D01*
X786826Y338004D01*
X786871Y337889D01*
X786912Y337773D01*
X786949Y337655D01*
X786983Y337536D01*
X787013Y337416D01*
X787038Y337296D01*
X787060Y337174D01*
X787078Y337052D01*
X787092Y336930D01*
X787102Y336807D01*
X787108Y336683D01*
X787110Y336560D01*
X787108Y336437D01*
X787102Y336313D01*
X787092Y336190D01*
X787078Y336068D01*
X787060Y335946D01*
X787038Y335824D01*
X787013Y335704D01*
X786983Y335584D01*
X786949Y335465D01*
X786912Y335347D01*
X786871Y335231D01*
X786826Y335116D01*
X786777Y335003D01*
X786725Y334891D01*
X786669Y334781D01*
X786610Y334673D01*
X786547Y334567D01*
X786481Y334463D01*
X786411Y334361D01*
X786338Y334261D01*
X786262Y334164D01*
X786183Y334069D01*
X786101Y333977D01*
X786016Y333888D01*
X785928Y333801D01*
X785837Y333718D01*
X785744Y333637D01*
X785648Y333559D01*
X785549Y333485D01*
X785449Y333414D01*
X785346Y333346D01*
X785241Y333281D01*
X785133Y333220D01*
X785024Y333162D01*
X784913Y333108D01*
X784801Y333058D01*
X784686Y333011D01*
X784571Y332968D01*
X784454Y332929D01*
X784336Y332893D01*
X784216Y332862D01*
X784096Y332834D01*
X783975Y332810D01*
X783853Y332790D01*
X783731Y332774D01*
X783608Y332762D01*
X783485Y332754D01*
X783362Y332750D01*
X783238Y332750D01*
X783115Y332754D01*
X782992Y332762D01*
X782869Y332774D01*
X782747Y332790D01*
X782625Y332810D01*
X782504Y332834D01*
X782384Y332862D01*
X782264Y332893D01*
X782146Y332929D01*
X782029Y332968D01*
X781914Y333011D01*
X781799Y333058D01*
X781687Y333108D01*
X781576Y333162D01*
X781467Y333220D01*
X781359Y333281D01*
X781254Y333346D01*
X781151Y333414D01*
X781051Y333485D01*
X780952Y333559D01*
X780856Y333637D01*
X780763Y333718D01*
X780672Y333801D01*
X780584Y333888D01*
X780499Y333977D01*
X780417Y334069D01*
X780338Y334164D01*
X780262Y334261D01*
X780189Y334361D01*
X780119Y334463D01*
X780053Y334567D01*
X779990Y334673D01*
X779931Y334781D01*
X779875Y334891D01*
X779823Y335003D01*
X779774Y335116D01*
X779729Y335231D01*
X779688Y335347D01*
X779651Y335465D01*
X779617Y335584D01*
X779587Y335704D01*
X779562Y335824D01*
X779540Y335946D01*
X779522Y336068D01*
X779508Y336190D01*
X779498Y336313D01*
X779492Y336437D01*
X779490Y336560D01*
D19*
X755399Y352224D02*
X747594Y352224D01*
X745642Y354176D01*
X745642Y358078D01*
X747594Y360030D01*
X755399Y360030D01*
X757350Y358078D01*
X757350Y354176D01*
X755399Y352224D01*
X753448Y356127D02*
X757350Y360030D01*
X747594Y363931D02*
X745642Y365883D01*
X745642Y369785D01*
X747594Y371736D01*
X749545Y371736D01*
X751496Y369785D01*
X751496Y367834D01*
X751496Y369785D02*
X753448Y371736D01*
X755399Y371736D01*
X757350Y369785D01*
X757350Y365883D01*
X755399Y363931D01*
D15*
X792000Y118350D02*
X802000Y118350D01*
X802000Y80250D01*
X792000Y80250D01*
D19*
X783963Y126158D02*
X782014Y128107D01*
X783963Y126158D02*
X785912Y126158D01*
X787861Y128107D01*
X787861Y137852D01*
X785912Y137852D02*
X789810Y137852D01*
X793708Y137852D02*
X801504Y137852D01*
X801504Y135903D01*
X793708Y128107D01*
X793708Y126158D01*
D15*
X828000Y524000D02*
X828000Y609000D01*
X1078000Y609000D01*
X1078000Y524000D01*
X828000Y524000D01*
D20*
X912000Y515500D03*
D18*
X912044Y515502D01*
X912087Y515508D01*
X912129Y515517D01*
X912171Y515530D01*
X912211Y515547D01*
X912250Y515567D01*
X912287Y515590D01*
X912321Y515617D01*
X912354Y515646D01*
X912383Y515679D01*
X912410Y515713D01*
X912433Y515750D01*
X912453Y515789D01*
X912470Y515829D01*
X912483Y515871D01*
X912492Y515913D01*
X912498Y515956D01*
X912500Y516000D01*
X912498Y516044D01*
X912492Y516087D01*
X912483Y516129D01*
X912470Y516171D01*
X912453Y516211D01*
X912433Y516250D01*
X912410Y516287D01*
X912383Y516321D01*
X912354Y516354D01*
X912321Y516383D01*
X912287Y516410D01*
X912250Y516433D01*
X912211Y516453D01*
X912171Y516470D01*
X912129Y516483D01*
X912087Y516492D01*
X912044Y516498D01*
X912000Y516500D01*
D20*
X912000Y516500D03*
D18*
X911956Y516498D01*
X911913Y516492D01*
X911871Y516483D01*
X911829Y516470D01*
X911789Y516453D01*
X911750Y516433D01*
X911713Y516410D01*
X911679Y516383D01*
X911646Y516354D01*
X911617Y516321D01*
X911590Y516287D01*
X911567Y516250D01*
X911547Y516211D01*
X911530Y516171D01*
X911517Y516129D01*
X911508Y516087D01*
X911502Y516044D01*
X911500Y516000D01*
X911502Y515956D01*
X911508Y515913D01*
X911517Y515871D01*
X911530Y515829D01*
X911547Y515789D01*
X911567Y515750D01*
X911590Y515713D01*
X911617Y515679D01*
X911646Y515646D01*
X911679Y515617D01*
X911713Y515590D01*
X911750Y515567D01*
X911789Y515547D01*
X911829Y515530D01*
X911871Y515517D01*
X911913Y515508D01*
X911956Y515502D01*
X912000Y515500D01*
D20*
X912000Y515500D03*
D18*
X912044Y515502D01*
X912087Y515508D01*
X912129Y515517D01*
X912171Y515530D01*
X912211Y515547D01*
X912250Y515567D01*
X912287Y515590D01*
X912321Y515617D01*
X912354Y515646D01*
X912383Y515679D01*
X912410Y515713D01*
X912433Y515750D01*
X912453Y515789D01*
X912470Y515829D01*
X912483Y515871D01*
X912492Y515913D01*
X912498Y515956D01*
X912500Y516000D01*
X912498Y516044D01*
X912492Y516087D01*
X912483Y516129D01*
X912470Y516171D01*
X912453Y516211D01*
X912433Y516250D01*
X912410Y516287D01*
X912383Y516321D01*
X912354Y516354D01*
X912321Y516383D01*
X912287Y516410D01*
X912250Y516433D01*
X912211Y516453D01*
X912171Y516470D01*
X912129Y516483D01*
X912087Y516492D01*
X912044Y516498D01*
X912000Y516500D01*
D19*
X956893Y551064D02*
X958842Y553013D01*
X958842Y554962D01*
X956893Y556911D01*
X947148Y556911D01*
X947148Y554962D02*
X947148Y558860D01*
X949097Y562758D02*
X947148Y564707D01*
X947148Y568605D01*
X949097Y570554D01*
X951046Y570554D01*
X952995Y568605D01*
X954944Y570554D01*
X956893Y570554D01*
X958842Y568605D01*
X958842Y564707D01*
X956893Y562758D01*
X954944Y562758D01*
X952995Y564707D01*
X951046Y562758D01*
X949097Y562758D01*
X952995Y564707D02*
X952995Y568605D01*
D15*
X828000Y335500D02*
X828000Y250500D01*
X828000Y335500D02*
X1078000Y335500D01*
X1078000Y250500D01*
X828000Y250500D01*
D20*
X912000Y242000D03*
D18*
X912044Y242002D01*
X912087Y242008D01*
X912129Y242017D01*
X912171Y242030D01*
X912211Y242047D01*
X912250Y242067D01*
X912287Y242090D01*
X912321Y242117D01*
X912354Y242146D01*
X912383Y242179D01*
X912410Y242213D01*
X912433Y242250D01*
X912453Y242289D01*
X912470Y242329D01*
X912483Y242371D01*
X912492Y242413D01*
X912498Y242456D01*
X912500Y242500D01*
X912498Y242544D01*
X912492Y242587D01*
X912483Y242629D01*
X912470Y242671D01*
X912453Y242711D01*
X912433Y242750D01*
X912410Y242787D01*
X912383Y242821D01*
X912354Y242854D01*
X912321Y242883D01*
X912287Y242910D01*
X912250Y242933D01*
X912211Y242953D01*
X912171Y242970D01*
X912129Y242983D01*
X912087Y242992D01*
X912044Y242998D01*
X912000Y243000D01*
D20*
X912000Y243000D03*
D18*
X911956Y242998D01*
X911913Y242992D01*
X911871Y242983D01*
X911829Y242970D01*
X911789Y242953D01*
X911750Y242933D01*
X911713Y242910D01*
X911679Y242883D01*
X911646Y242854D01*
X911617Y242821D01*
X911590Y242787D01*
X911567Y242750D01*
X911547Y242711D01*
X911530Y242671D01*
X911517Y242629D01*
X911508Y242587D01*
X911502Y242544D01*
X911500Y242500D01*
X911502Y242456D01*
X911508Y242413D01*
X911517Y242371D01*
X911530Y242329D01*
X911547Y242289D01*
X911567Y242250D01*
X911590Y242213D01*
X911617Y242179D01*
X911646Y242146D01*
X911679Y242117D01*
X911713Y242090D01*
X911750Y242067D01*
X911789Y242047D01*
X911829Y242030D01*
X911871Y242017D01*
X911913Y242008D01*
X911956Y242002D01*
X912000Y242000D01*
D20*
X912000Y242000D03*
D18*
X912044Y242002D01*
X912087Y242008D01*
X912129Y242017D01*
X912171Y242030D01*
X912211Y242047D01*
X912250Y242067D01*
X912287Y242090D01*
X912321Y242117D01*
X912354Y242146D01*
X912383Y242179D01*
X912410Y242213D01*
X912433Y242250D01*
X912453Y242289D01*
X912470Y242329D01*
X912483Y242371D01*
X912492Y242413D01*
X912498Y242456D01*
X912500Y242500D01*
X912498Y242544D01*
X912492Y242587D01*
X912483Y242629D01*
X912470Y242671D01*
X912453Y242711D01*
X912433Y242750D01*
X912410Y242787D01*
X912383Y242821D01*
X912354Y242854D01*
X912321Y242883D01*
X912287Y242910D01*
X912250Y242933D01*
X912211Y242953D01*
X912171Y242970D01*
X912129Y242983D01*
X912087Y242992D01*
X912044Y242998D01*
X912000Y243000D01*
D19*
X956893Y277564D02*
X958842Y279513D01*
X958842Y281462D01*
X956893Y283411D01*
X947148Y283411D01*
X947148Y281462D02*
X947148Y285360D01*
X956893Y289258D02*
X958842Y291207D01*
X958842Y295105D01*
X956893Y297054D01*
X949097Y297054D01*
X947148Y295105D01*
X947148Y291207D01*
X949097Y289258D01*
X951046Y289258D01*
X952995Y291207D01*
X952995Y297054D01*
D18*
X219500Y703500D02*
X187500Y703500D01*
X187500Y674500D02*
X219500Y674500D01*
X176780Y696880D02*
X176782Y696917D01*
X176788Y696953D01*
X176798Y696989D01*
X176811Y697023D01*
X176829Y697055D01*
X176849Y697086D01*
X176873Y697114D01*
X176900Y697139D01*
X176929Y697161D01*
X176961Y697180D01*
X176994Y697196D01*
X177029Y697208D01*
X177065Y697216D01*
X177102Y697220D01*
X177138Y697220D01*
X177175Y697216D01*
X177211Y697208D01*
X177246Y697196D01*
X177279Y697180D01*
X177311Y697161D01*
X177340Y697139D01*
X177367Y697114D01*
X177391Y697086D01*
X177411Y697055D01*
X177429Y697023D01*
X177442Y696989D01*
X177452Y696953D01*
X177458Y696917D01*
X177460Y696880D01*
X177458Y696843D01*
X177452Y696807D01*
X177442Y696771D01*
X177429Y696737D01*
X177411Y696705D01*
X177391Y696674D01*
X177367Y696646D01*
X177340Y696621D01*
X177311Y696599D01*
X177279Y696580D01*
X177246Y696564D01*
X177211Y696552D01*
X177175Y696544D01*
X177138Y696540D01*
X177102Y696540D01*
X177065Y696544D01*
X177029Y696552D01*
X176994Y696564D01*
X176961Y696580D01*
X176929Y696599D01*
X176900Y696621D01*
X176873Y696646D01*
X176849Y696674D01*
X176829Y696705D01*
X176811Y696737D01*
X176798Y696771D01*
X176788Y696807D01*
X176782Y696843D01*
X176780Y696880D01*
D23*
X191966Y707865D02*
X191966Y714362D01*
X191966Y707865D02*
X196298Y707865D01*
X198411Y714362D02*
X202743Y714362D01*
X198411Y714362D02*
X198411Y707865D01*
X202743Y707865D01*
X200577Y711113D02*
X198411Y711113D01*
X204857Y714362D02*
X204857Y707865D01*
X208106Y707865D01*
X209189Y708948D01*
X209189Y713279D01*
X208106Y714362D01*
X204857Y714362D01*
X211302Y712196D02*
X213468Y714362D01*
X213468Y707865D01*
X211302Y707865D02*
X215634Y707865D01*
D24*
X264458Y691110D02*
X301542Y691110D01*
X264458Y691110D02*
X264458Y708890D01*
X301542Y708890D01*
X301542Y691110D01*
D21*
X304090Y701934D02*
X304090Y708544D01*
X307394Y708544D01*
X308496Y707442D01*
X308496Y705239D01*
X307394Y704137D01*
X304090Y704137D01*
X306293Y704137D02*
X308496Y701934D01*
X311574Y706340D02*
X313777Y708544D01*
X313777Y701934D01*
X311574Y701934D02*
X315980Y701934D01*
X319058Y707442D02*
X320159Y708544D01*
X322363Y708544D01*
X323464Y707442D01*
X323464Y706340D01*
X322363Y705239D01*
X321261Y705239D01*
X322363Y705239D02*
X323464Y704137D01*
X323464Y703036D01*
X322363Y701934D01*
X320159Y701934D01*
X319058Y703036D01*
D24*
X301542Y671110D02*
X264458Y671110D01*
X264458Y688890D01*
X301542Y688890D01*
X301542Y671110D01*
D21*
X305132Y681662D02*
X305132Y688272D01*
X308437Y688272D01*
X309538Y687170D01*
X309538Y684967D01*
X308437Y683865D01*
X305132Y683865D01*
X307335Y683865D02*
X309538Y681662D01*
X312616Y686068D02*
X314819Y688272D01*
X314819Y681662D01*
X312616Y681662D02*
X317023Y681662D01*
X320100Y688272D02*
X324507Y688272D01*
X324507Y687170D01*
X320100Y682764D01*
X320100Y681662D01*
D18*
X338830Y528740D02*
X290570Y528740D01*
X290570Y422060D01*
X312000Y422060D01*
D19*
X283842Y419967D02*
X272148Y419967D01*
X272148Y425814D01*
X274097Y427763D01*
X277995Y427763D01*
X279944Y425814D01*
X279944Y419967D01*
X279944Y423865D02*
X283842Y427763D01*
X283842Y435559D02*
X272148Y435559D01*
X272148Y431661D02*
X272148Y439457D01*
X276046Y443355D02*
X272148Y447253D01*
X283842Y447253D01*
X283842Y443355D02*
X283842Y451151D01*
D25*
X249000Y516500D03*
X261000Y516500D03*
D26*
X255000Y516500D03*
D23*
X265549Y506554D02*
X271046Y506554D01*
X271046Y510218D01*
X271046Y512079D02*
X265549Y512079D01*
X271046Y512079D02*
X271046Y514827D01*
X270130Y515743D01*
X266465Y515743D01*
X265549Y514827D01*
X265549Y512079D01*
X267382Y517603D02*
X265549Y519436D01*
X271046Y519436D01*
X271046Y521268D02*
X271046Y517603D01*
D24*
X263890Y494542D02*
X263890Y457458D01*
X246110Y457458D01*
X246110Y494542D01*
X263890Y494542D01*
D21*
X267928Y456982D02*
X274538Y456982D01*
X267928Y456982D02*
X267928Y460287D01*
X269030Y461388D01*
X271233Y461388D01*
X272335Y460287D01*
X272335Y456982D01*
X272335Y459185D02*
X274538Y461388D01*
X274538Y464466D02*
X274538Y468873D01*
X270132Y468873D02*
X274538Y464466D01*
X270132Y468873D02*
X269030Y468873D01*
X267928Y467771D01*
X267928Y465568D01*
X269030Y464466D01*
X269030Y471950D02*
X267928Y473052D01*
X267928Y475255D01*
X269030Y476357D01*
X270132Y476357D01*
X271233Y475255D01*
X271233Y474154D01*
X271233Y475255D02*
X272335Y476357D01*
X273436Y476357D01*
X274538Y475255D01*
X274538Y473052D01*
X273436Y471950D01*
D24*
X225890Y568458D02*
X225890Y605542D01*
X225890Y568458D02*
X208110Y568458D01*
X208110Y605542D01*
X225890Y605542D01*
D21*
X230456Y567090D02*
X237066Y567090D01*
X230456Y567090D02*
X230456Y570394D01*
X231558Y571496D01*
X233761Y571496D01*
X234863Y570394D01*
X234863Y567090D01*
X234863Y569293D02*
X237066Y571496D01*
X237066Y574574D02*
X237066Y578980D01*
X237066Y574574D02*
X232660Y578980D01*
X231558Y578980D01*
X230456Y577879D01*
X230456Y575675D01*
X231558Y574574D01*
X230456Y585363D02*
X237066Y585363D01*
X233761Y582058D02*
X230456Y585363D01*
X233761Y586464D02*
X233761Y582058D01*
D25*
X211000Y628500D03*
X223000Y628500D03*
D26*
X217000Y628500D03*
D23*
X227948Y614618D02*
X234446Y614618D01*
X234446Y618949D01*
X234446Y621063D02*
X227948Y621063D01*
X234446Y621063D02*
X234446Y624312D01*
X233363Y625395D01*
X229031Y625395D01*
X227948Y624312D01*
X227948Y621063D01*
X234446Y627509D02*
X234446Y631840D01*
X234446Y627509D02*
X230114Y631840D01*
X229031Y631840D01*
X227948Y630757D01*
X227948Y628591D01*
X229031Y627509D01*
D14*
X498100Y168000D02*
X498100Y137000D01*
X498100Y168000D02*
X608100Y168000D01*
X608100Y137000D01*
X608100Y109000D02*
X608100Y78000D01*
X498100Y78000D01*
X498100Y109000D01*
D19*
X539594Y144478D02*
X539594Y156190D01*
X539594Y144478D02*
X547402Y144478D01*
X559112Y154238D02*
X557160Y156190D01*
X553256Y156190D01*
X551304Y154238D01*
X551304Y152286D01*
X553256Y150334D01*
X557160Y150334D01*
X559112Y148382D01*
X559112Y146430D01*
X557160Y144478D01*
X553256Y144478D01*
X551304Y146430D01*
X563015Y152286D02*
X566919Y156190D01*
X566919Y144478D01*
X563015Y144478D02*
X570823Y144478D01*
D21*
X483900Y197400D02*
X483900Y206400D01*
X495400Y210400D02*
X501400Y210400D01*
X512900Y206400D02*
X512900Y197400D01*
X504900Y197400D01*
X491900Y197400D02*
X483900Y197400D01*
D19*
X519897Y192714D02*
X527693Y192714D01*
X519897Y192714D02*
X517948Y194663D01*
X517948Y198561D01*
X519897Y200510D01*
X527693Y200510D01*
X529642Y198561D01*
X529642Y194663D01*
X527693Y192714D01*
X525744Y196612D02*
X529642Y200510D01*
X521846Y204408D02*
X517948Y208306D01*
X529642Y208306D01*
X529642Y204408D02*
X529642Y212204D01*
D24*
X441210Y222942D02*
X441210Y185858D01*
X441210Y222942D02*
X458990Y222942D01*
X458990Y185858D01*
X441210Y185858D01*
D21*
X432338Y187582D02*
X425728Y187582D01*
X425728Y190887D01*
X426830Y191988D01*
X429033Y191988D01*
X430135Y190887D01*
X430135Y187582D01*
X430135Y189785D02*
X432338Y191988D01*
X432338Y195066D02*
X432338Y199473D01*
X427932Y199473D02*
X432338Y195066D01*
X427932Y199473D02*
X426830Y199473D01*
X425728Y198371D01*
X425728Y196168D01*
X426830Y195066D01*
X425728Y202550D02*
X425728Y206957D01*
X425728Y202550D02*
X429033Y202550D01*
X427932Y204754D01*
X427932Y205855D01*
X429033Y206957D01*
X431236Y206957D01*
X432338Y205855D01*
X432338Y203652D01*
X431236Y202550D01*
M02*
