G04 EAGLE Gerber RS-274X export*
G75*
%MOMM*%
%FSLAX34Y34*%
%LPD*%
%INSoldermask Bottom*%
%IPPOS*%
%AMOC8*
5,1,8,0,0,1.08239X$1,22.5*%
G01*
%ADD10R,2.200000X0.600000*%
%ADD11R,1.080000X1.050000*%
%ADD12C,4.050000*%
%ADD13C,1.300000*%
%ADD14C,4.200000*%
%ADD15C,3.231150*%
%ADD16C,3.653000*%
%ADD17C,2.600000*%
%ADD18C,1.200000*%
%ADD19C,2.400000*%
%ADD20R,1.400000X0.600000*%
%ADD21R,1.050000X1.050000*%
%ADD22C,1.050000*%
%ADD23R,2.690000X2.690000*%
%ADD24C,2.690000*%
%ADD25R,3.400000X4.600000*%
%ADD26C,1.000000*%
%ADD27C,3.000000*%
%ADD28C,4.000000*%
%ADD29R,1.400000X0.300000*%
%ADD30R,1.300000X1.200000*%
%ADD31R,1.200000X1.300000*%
%ADD32R,2.295000X2.295000*%
%ADD33C,2.295000*%


D10*
X632880Y570520D03*
X632880Y507020D03*
X632880Y583220D03*
X632880Y557820D03*
X632880Y545120D03*
X580880Y507020D03*
X632880Y519720D03*
X632880Y532420D03*
X580880Y519720D03*
X580880Y532420D03*
X580880Y545120D03*
X580880Y557820D03*
X580880Y570520D03*
X580880Y583220D03*
D11*
X223000Y591750D03*
X223000Y574250D03*
X241000Y591750D03*
X241000Y574250D03*
X204840Y591790D03*
X204840Y574290D03*
X184000Y591750D03*
X184000Y574250D03*
D12*
X961850Y392200D03*
X961850Y464200D03*
D13*
X1015350Y360700D02*
X1028350Y360700D01*
X1028350Y495700D02*
X1015350Y495700D01*
D14*
X380060Y157942D03*
X380060Y697942D03*
X726900Y698000D03*
X726900Y158000D03*
D15*
X214520Y168940D03*
X128520Y168940D03*
X180520Y168940D03*
D16*
X119520Y95940D03*
X218520Y95940D03*
D17*
X181520Y105940D03*
D18*
X145020Y260050D02*
X133020Y260050D01*
X133020Y285450D02*
X145020Y285450D01*
X145020Y310850D02*
X133020Y310850D01*
X133020Y336250D02*
X145020Y336250D01*
X145020Y361650D02*
X133020Y361650D01*
X133020Y387050D02*
X145020Y387050D01*
X145020Y412450D02*
X133020Y412450D01*
X133020Y437850D02*
X145020Y437850D01*
X145020Y463250D02*
X133020Y463250D01*
X133020Y488650D02*
X145020Y488650D01*
X145020Y514050D02*
X133020Y514050D01*
X133020Y539450D02*
X145020Y539450D01*
X-7380Y260050D02*
X-19380Y260050D01*
X-19380Y285450D02*
X-7380Y285450D01*
X-7380Y310850D02*
X-19380Y310850D01*
X-19380Y463250D02*
X-7380Y463250D01*
X-7380Y488650D02*
X-19380Y488650D01*
X-19380Y514050D02*
X-7380Y514050D01*
X-7380Y539450D02*
X-19380Y539450D01*
X-19380Y615650D02*
X-7380Y615650D01*
X133020Y615650D02*
X145020Y615650D01*
X145020Y590250D02*
X133020Y590250D01*
X133020Y564850D02*
X145020Y564850D01*
X-7380Y590250D02*
X-19380Y590250D01*
X-19380Y564850D02*
X-7380Y564850D01*
X-7380Y336250D02*
X-19380Y336250D01*
X-19380Y437850D02*
X-7380Y437850D01*
X-7380Y412450D02*
X-19380Y412450D01*
X-19380Y387050D02*
X-7380Y387050D01*
X-7380Y361650D02*
X-19380Y361650D01*
D19*
X910140Y204260D03*
X910140Y178860D03*
X910140Y153460D03*
X960940Y153460D03*
X960940Y178860D03*
X960940Y204260D03*
X910640Y697740D03*
X910640Y672340D03*
X910640Y646940D03*
X961440Y646940D03*
X961440Y672340D03*
X961440Y697740D03*
D20*
X618500Y655500D03*
X618500Y646000D03*
X618500Y636500D03*
X593500Y636500D03*
X593500Y646000D03*
X593500Y655500D03*
D21*
X280500Y100000D03*
D22*
X280500Y120000D03*
X280500Y140000D03*
X280500Y160000D03*
D23*
X314550Y370600D03*
D24*
X314550Y316000D03*
X314550Y261400D03*
D23*
X793450Y373400D03*
D24*
X793450Y428000D03*
X793450Y482600D03*
D25*
X861000Y519000D03*
X816000Y519000D03*
X861000Y585000D03*
X816000Y585000D03*
D26*
X787000Y112000D03*
X787000Y99300D03*
X787000Y86600D03*
D27*
X910000Y566500D03*
X1035000Y566500D03*
X910000Y293000D03*
X1035000Y293000D03*
D28*
X30000Y657500D03*
X30000Y130000D03*
X1042500Y130000D03*
X1042500Y657500D03*
D29*
X599000Y701000D03*
X599000Y696000D03*
X599000Y691000D03*
X599000Y686000D03*
X599000Y681000D03*
X555000Y681000D03*
X555000Y686000D03*
X555000Y691000D03*
X555000Y696000D03*
X555000Y701000D03*
D30*
X682000Y679840D03*
X682000Y700160D03*
D31*
X682160Y656000D03*
X661840Y656000D03*
D30*
X658000Y679840D03*
X658000Y700160D03*
D31*
X201160Y488000D03*
X180840Y488000D03*
X201160Y462000D03*
X180840Y462000D03*
X520160Y629000D03*
X499840Y629000D03*
X475160Y629000D03*
X454840Y629000D03*
X455840Y581000D03*
X476160Y581000D03*
X455840Y605000D03*
X476160Y605000D03*
X431160Y605000D03*
X410840Y605000D03*
X431160Y581000D03*
X410840Y581000D03*
X739840Y344000D03*
X760160Y344000D03*
X377160Y397000D03*
X356840Y397000D03*
X410840Y557000D03*
X431160Y557000D03*
D30*
X560000Y603840D03*
X560000Y624160D03*
D31*
X345160Y581000D03*
X324840Y581000D03*
X357840Y475000D03*
X378160Y475000D03*
X324840Y605000D03*
X345160Y605000D03*
X367840Y605000D03*
X388160Y605000D03*
X646840Y613000D03*
X667160Y613000D03*
X377160Y449000D03*
X356840Y449000D03*
X377160Y423000D03*
X356840Y423000D03*
X739840Y315000D03*
X760160Y315000D03*
D32*
X312000Y450000D03*
D33*
X312000Y500800D03*
D31*
X454840Y695000D03*
X475160Y695000D03*
X377160Y370000D03*
X356840Y370000D03*
X739840Y373000D03*
X760160Y373000D03*
M02*
