G04 EAGLE Gerber RS-274X export*
G75*
%MOMM*%
%FSLAX34Y34*%
%LPD*%
%INSolderpaste Bottom*%
%IPPOS*%
%AMOC8*
5,1,8,0,0,1.08239X$1,22.5*%
G01*
%ADD10R,2.200000X0.600000*%
%ADD11R,1.080000X1.050000*%
%ADD12R,1.400000X0.600000*%
%ADD13R,3.400000X4.600000*%
%ADD14R,1.400000X0.300000*%
%ADD15R,1.300000X1.200000*%
%ADD16R,1.200000X1.300000*%


D10*
X632880Y570520D03*
X632880Y507020D03*
X632880Y583220D03*
X632880Y557820D03*
X632880Y545120D03*
X580880Y507020D03*
X632880Y519720D03*
X632880Y532420D03*
X580880Y519720D03*
X580880Y532420D03*
X580880Y545120D03*
X580880Y557820D03*
X580880Y570520D03*
X580880Y583220D03*
D11*
X223000Y591750D03*
X223000Y574250D03*
X241000Y591750D03*
X241000Y574250D03*
X204840Y591790D03*
X204840Y574290D03*
X184000Y591750D03*
X184000Y574250D03*
D12*
X618500Y655500D03*
X618500Y646000D03*
X618500Y636500D03*
X593500Y636500D03*
X593500Y646000D03*
X593500Y655500D03*
D13*
X861000Y519000D03*
X816000Y519000D03*
X861000Y585000D03*
X816000Y585000D03*
D14*
X599000Y701000D03*
X599000Y696000D03*
X599000Y691000D03*
X599000Y686000D03*
X599000Y681000D03*
X555000Y681000D03*
X555000Y686000D03*
X555000Y691000D03*
X555000Y696000D03*
X555000Y701000D03*
D15*
X682000Y679840D03*
X682000Y700160D03*
D16*
X682160Y656000D03*
X661840Y656000D03*
D15*
X658000Y679840D03*
X658000Y700160D03*
D16*
X201160Y488000D03*
X180840Y488000D03*
X201160Y462000D03*
X180840Y462000D03*
X520160Y629000D03*
X499840Y629000D03*
X475160Y629000D03*
X454840Y629000D03*
X455840Y581000D03*
X476160Y581000D03*
X455840Y605000D03*
X476160Y605000D03*
X431160Y605000D03*
X410840Y605000D03*
X431160Y581000D03*
X410840Y581000D03*
X739840Y344000D03*
X760160Y344000D03*
X377160Y397000D03*
X356840Y397000D03*
X410840Y557000D03*
X431160Y557000D03*
D15*
X560000Y603840D03*
X560000Y624160D03*
D16*
X345160Y581000D03*
X324840Y581000D03*
X357840Y475000D03*
X378160Y475000D03*
X324840Y605000D03*
X345160Y605000D03*
X367840Y605000D03*
X388160Y605000D03*
X646840Y613000D03*
X667160Y613000D03*
X377160Y449000D03*
X356840Y449000D03*
X377160Y423000D03*
X356840Y423000D03*
X739840Y315000D03*
X760160Y315000D03*
X454840Y695000D03*
X475160Y695000D03*
X377160Y370000D03*
X356840Y370000D03*
X739840Y373000D03*
X760160Y373000D03*
M02*
