G04 EAGLE Gerber RS-274X export*
G75*
%MOMM*%
%FSLAX34Y34*%
%LPD*%
%INSoldermask Top*%
%IPPOS*%
%AMOC8*
5,1,8,0,0,1.08239X$1,22.5*%
G01*
%ADD10C,4.050000*%
%ADD11C,1.300000*%
%ADD12C,4.200000*%
%ADD13C,3.231150*%
%ADD14C,3.653000*%
%ADD15C,2.600000*%
%ADD16C,1.200000*%
%ADD17C,2.400000*%
%ADD18R,1.050000X1.050000*%
%ADD19C,1.050000*%
%ADD20R,2.690000X2.690000*%
%ADD21C,2.690000*%
%ADD22C,1.000000*%
%ADD23C,3.000000*%
%ADD24C,4.000000*%
%ADD25R,1.500000X1.100000*%
%ADD26R,1.200000X1.300000*%
%ADD27R,2.295000X2.295000*%
%ADD28C,2.295000*%
%ADD29R,1.200000X1.200000*%
%ADD30R,1.300000X1.200000*%
%ADD31R,2.200000X2.200000*%
%ADD32R,1.000000X1.500000*%


D10*
X961850Y392200D03*
X961850Y464200D03*
D11*
X1015350Y360700D02*
X1028350Y360700D01*
X1028350Y495700D02*
X1015350Y495700D01*
D12*
X380060Y157942D03*
X380060Y697942D03*
X726900Y698000D03*
X726900Y158000D03*
D13*
X214520Y168940D03*
X128520Y168940D03*
X180520Y168940D03*
D14*
X119520Y95940D03*
X218520Y95940D03*
D15*
X181520Y105940D03*
D16*
X145020Y260050D02*
X133020Y260050D01*
X133020Y285450D02*
X145020Y285450D01*
X145020Y310850D02*
X133020Y310850D01*
X133020Y336250D02*
X145020Y336250D01*
X145020Y361650D02*
X133020Y361650D01*
X133020Y387050D02*
X145020Y387050D01*
X145020Y412450D02*
X133020Y412450D01*
X133020Y437850D02*
X145020Y437850D01*
X145020Y463250D02*
X133020Y463250D01*
X133020Y488650D02*
X145020Y488650D01*
X145020Y514050D02*
X133020Y514050D01*
X133020Y539450D02*
X145020Y539450D01*
X-7380Y260050D02*
X-19380Y260050D01*
X-19380Y285450D02*
X-7380Y285450D01*
X-7380Y310850D02*
X-19380Y310850D01*
X-19380Y463250D02*
X-7380Y463250D01*
X-7380Y488650D02*
X-19380Y488650D01*
X-19380Y514050D02*
X-7380Y514050D01*
X-7380Y539450D02*
X-19380Y539450D01*
X-19380Y615650D02*
X-7380Y615650D01*
X133020Y615650D02*
X145020Y615650D01*
X145020Y590250D02*
X133020Y590250D01*
X133020Y564850D02*
X145020Y564850D01*
X-7380Y590250D02*
X-19380Y590250D01*
X-19380Y564850D02*
X-7380Y564850D01*
X-7380Y336250D02*
X-19380Y336250D01*
X-19380Y437850D02*
X-7380Y437850D01*
X-7380Y412450D02*
X-19380Y412450D01*
X-19380Y387050D02*
X-7380Y387050D01*
X-7380Y361650D02*
X-19380Y361650D01*
D17*
X910140Y204260D03*
X910140Y178860D03*
X910140Y153460D03*
X960940Y153460D03*
X960940Y178860D03*
X960940Y204260D03*
X910640Y697740D03*
X910640Y672340D03*
X910640Y646940D03*
X961440Y646940D03*
X961440Y672340D03*
X961440Y697740D03*
D18*
X280500Y100000D03*
D19*
X280500Y120000D03*
X280500Y140000D03*
X280500Y160000D03*
D20*
X314550Y370600D03*
D21*
X314550Y316000D03*
X314550Y261400D03*
D20*
X793450Y373400D03*
D21*
X793450Y428000D03*
X793450Y482600D03*
D22*
X787000Y112000D03*
X787000Y99300D03*
X787000Y86600D03*
D23*
X910000Y566500D03*
X1035000Y566500D03*
X910000Y293000D03*
X1035000Y293000D03*
D24*
X30000Y657500D03*
X30000Y130000D03*
X1042500Y130000D03*
X1042500Y657500D03*
D25*
X188500Y696500D03*
X218500Y696500D03*
X218500Y681500D03*
X188500Y681500D03*
D26*
X293160Y700000D03*
X272840Y700000D03*
X293160Y680000D03*
X272840Y680000D03*
D27*
X312000Y450000D03*
D28*
X312000Y500800D03*
D29*
X255000Y525500D03*
X255000Y504500D03*
D30*
X255000Y486160D03*
X255000Y465840D03*
X217000Y597160D03*
X217000Y576840D03*
D29*
X217000Y637500D03*
X217000Y616500D03*
D31*
X488100Y123000D03*
X618100Y123000D03*
D32*
X507900Y215400D03*
X488900Y215400D03*
X498400Y192400D03*
D30*
X450100Y194240D03*
X450100Y214560D03*
M02*
