M48
;GenerationSoftware,Autodesk,EAGLE,9.5.2*%
;CreationDate,2020-12-11T12:09:04Z*%
FMAT,2
ICI,OFF
METRIC,TZ,000.000
T20C0.300
T19C0.350
T18C0.600
T17C0.700
T16C0.800
T15C0.860
T14C0.900
T13C1.000
T12C1.100
T11C1.300
T10C1.342
T9C1.500
T8C1.530
T7C1.600
T6C2.000
T5C2.200
T4C2.600
T3C2.700
T2C2.800
T1C4.000
%
G90
M71
T1
X-113000Y29000
X-113000Y-29000
X-7000Y-29000
X-7000Y29000
T2
X-41562Y27001
X-76262Y27001
X-76262Y-26999
X-41562Y-26999
T3
X-17500Y-3600
X-17500Y3600
T4
X-98300Y-32300
T5
X-19000Y-26500
X-19000Y26500
T6
X-71300Y28950
X-62700Y28950
X-17000Y-13000
X-62700Y33650
X-71300Y33650
X-4500Y13000
X-4500Y-13000
X-17000Y13000
T7
X-2920Y-18824
X-8000Y24000
X-8000Y21460
X-8000Y18920
X-2920Y-23904
X-2920Y21460
X-2920Y24000
X-81600Y-22460
X-81600Y-17000
X-81600Y-11540
X-2920Y18920
X-8000Y-21364
X-34700Y19735
X-34700Y6265
X-8000Y-23904
X-31300Y19735
X-2920Y-21364
X-36200Y-11540
X-36200Y-17000
X-36200Y-22460
X-31300Y6265
X-8000Y-18824
T8
X-81600Y5080
X-81600Y0
T9
X-95000Y-26000
X-94600Y-33300
X-104500Y-33300
X-98400Y-26000
X-103600Y-26000
T10
X-8445Y9270
X-3715Y730
X-3715Y9270
X-8445Y730
T11
X-12475Y-21778
X-15711Y-33852
X-25525Y31222
X-15711Y33852
X-22289Y19148
X-12475Y21778
X-22289Y-19148
X-25525Y-31222
T12
X-68060Y8900
X-2131Y-1381
X-2131Y-8381
T13
X-70600Y8900
T14
X-44460Y30000
X-49540Y30000
X-47000Y30000
T15
X-83050Y17500
X-83050Y19500
X-83050Y25500
X-83050Y27500
T16
X-102242Y1261
X-102242Y3801
X-102242Y8881
X-102242Y11421
X-102242Y13961
X-102242Y16501
X-117482Y1261
X-117482Y3801
X-117482Y6341
X-117482Y-3819
X-117482Y19041
X-117482Y21581
X-102242Y19041
X-102242Y21581
X-102242Y24121
X-117482Y24121
X-117482Y13961
X-117482Y11421
X-103000Y34700
X-117482Y8881
X-117482Y-6359
X-117482Y-8899
X-117482Y-11439
X-117482Y16501
X-36700Y30800
X-33200Y25800
X-102242Y6341
X-102242Y-11439
X-102242Y-8899
X-102242Y-6359
X-51500Y12500
X-117482Y-1279
X-107140Y-34660
X-79000Y-8500
X-40500Y-23000
X-71500Y-25500
X-41300Y-7600
X-69000Y11000
X-49800Y18300
X-4831Y-2381
X-4831Y-7381
X-102242Y-3819
X-102242Y-1279
X-74750Y23750
X-74750Y20750
X-105750Y34700
T17
X-88550Y-23000
X-88550Y-21000
X-88550Y-27000
X-88550Y-25000
T18
X-35000Y-28000
X-37540Y-28000
X-11500Y6750
X-36270Y-28000
X-11500Y-6750
T19
X-51000Y-34000
X-50000Y-34000
X-49000Y-34000
X-48000Y-34000
X-47000Y-34000
X-46000Y-34000
X-45000Y-34000
X-44000Y-34000
X-43000Y-34000
X-42000Y-34000
X-41000Y-34000
X-40000Y-34000
X-39000Y-34000
X-89000Y-33000
X-88000Y-33000
X-87000Y-33000
X-86000Y-33000
X-85000Y-33000
X-84000Y-33000
X-83000Y-33000
X-82000Y-33000
X-81000Y-33000
X-80000Y-33000
X-79000Y-33000
X-78000Y-33000
X-77000Y-33000
X-76000Y-33000
X-75000Y-33000
X-74000Y-33000
X-73000Y-33000
X-72000Y-33000
X-71000Y-33000
X-70000Y-33000
X-69000Y-33000
X-68000Y-33000
X-67000Y-33000
X-66000Y-33000
X-65000Y-33000
X-64000Y-33000
X-63000Y-33000
X-62000Y-33000
X-61000Y-33000
X-60000Y-33000
X-59000Y-33000
X-58000Y-33000
X-57000Y-33000
X-56000Y-33000
X-55000Y-33000
X-54000Y-33000
X-53000Y-33000
X-52000Y-33000
X-51000Y-33000
X-50000Y-33000
X-49000Y-33000
X-48000Y-33000
X-47000Y-33000
X-46000Y-33000
X-45000Y-33000
X-44000Y-33000
X-43000Y-33000
X-42000Y-33000
X-41000Y-33000
X-40000Y-33000
X-85000Y35000
X-85000Y34000
X-85000Y33000
X-85000Y32000
X-85000Y31000
X-84000Y31000
X-83000Y31000
X-82000Y31000
X-81000Y31000
X-80000Y31000
X-79000Y31000
X-78000Y31000
X-77000Y31000
X-76000Y31000
X-75000Y31000
X-75000Y32000
X-75000Y33000
X-75000Y34000
X-75000Y35000
X-76000Y35000
X-77000Y35000
X-78000Y35000
X-79000Y35000
X-80000Y35000
X-81000Y35000
X-82000Y35000
X-83000Y35000
X-83000Y34000
X-83000Y33000
X-82000Y33000
X-82000Y34000
X-84000Y35000
X-84000Y34000
X-84000Y33000
X-84000Y32000
X-83000Y32000
X-82000Y32000
X-81000Y32000
X-81000Y33000
X-81000Y34000
X-80000Y34000
X-80000Y33000
X-80000Y32000
X-79000Y32000
X-79000Y33000
X-79000Y34000
X-78000Y34000
X-78000Y33000
X-78000Y32000
X-77000Y32000
X-77000Y33000
X-77000Y34000
X-76000Y34000
X-76000Y33000
X-76000Y32000
X-7000Y-26000
X-5513Y-26390
X-4421Y-27471
X-4015Y-28953
X-4405Y-30439
X-5486Y-31532
X-6968Y-31938
X-8454Y-31548
X-9547Y-30467
X-9953Y-28985
X-9563Y-27498
X-8482Y-26406
X-113000Y-26000
X-111513Y-26390
X-110421Y-27471
X-110015Y-28953
X-110405Y-30439
X-111486Y-31532
X-112968Y-31938
X-58000Y-35000
X-115547Y-30467
X-115953Y-28985
X-115563Y-27498
X-114482Y-26406
X-113000Y32000
X-111513Y31610
X-110421Y30529
X-110015Y29047
X-110405Y27561
X-111486Y26468
X-112968Y26062
X-114454Y26452
X-115547Y27533
X-115953Y29015
X-115563Y30502
X-114482Y31594
X-7000Y32000
X-5513Y31610
X-4421Y30529
X-4015Y29047
X-4405Y27561
X-5486Y26468
X-6968Y26062
X-8454Y26452
X-9547Y27533
X-9953Y29015
X-9563Y30502
X-8482Y31594
X-107500Y22000
X-106500Y9500
X-109000Y-6000
X-107000Y-13000
X-112389Y9716
X-85900Y-27000
X-86585Y7985
X-91450Y8800
X-86500Y6750
X-93450Y8000
X-60500Y26000
X-60500Y23700
X-76505Y18505
X-76500Y15750
X-100800Y-13500
X-96400Y-15800
X-56000Y21500
X-68000Y4750
X-70000Y2750
X-88000Y3800
X-63500Y20500
X-86750Y12000
X-105600Y-7500
X-111100Y-13400
X-95500Y-28100
X-54500Y-750
X-43500Y10750
X-59500Y7500
X-56500Y13750
X-66250Y11500
X-43500Y18250
X-100750Y30000
X-88750Y35250
X-99300Y-7200
X-104200Y-10200
X-99250Y11500
X-98250Y20750
X-78000Y-5750
X-40000Y20000
X-52500Y17750
X-47250Y26500
X-87000Y20500
X-103500Y25500
X-94500Y-29000
X-106500Y-29000
X-106500Y-30000
X-94000Y-30000
X-95600Y-24175
X-97000Y-21825
X-99500Y-17500
X-87000Y-25700
X-91600Y-27500
X-105825Y-20000
X-100000Y-20000
X-100000Y-23500
X-92100Y-25000
X-104250Y10100
X-116000Y12500
X-107000Y0
X-106500Y10500
X-113000Y16000
X-110500Y23000
X-115593Y15093
X-107000Y8500
X-60500Y2750
X-58000Y11000
X-60750Y4500
X-59500Y8750
X-73750Y10500
X-57500Y1250
X-59500Y1925
X-68750Y14500
X-11500Y3500
X-55250Y25750
X-55000Y14250
X-49000Y22500
X-54000Y20750
X-56500Y20000
X-66000Y13250
X-50750Y16250
X-53500Y14000
X-52500Y25000
X-50500Y22500
X-108000Y-15500
X-57400Y22800
X-89750Y13000
X-49000Y6250
X-50750Y6250
X-46491Y25000
X-48250Y25000
X-59000Y26750
X-59250Y22000
X-71700Y19500
X-98500Y22250
X-102250Y28000
X-57750Y23750
X-92000Y-35000
X-91000Y-35000
X-90000Y-35000
X-89000Y-35000
X-88000Y-35000
X-87000Y-35000
X-86000Y-35000
X-85000Y-35000
X-84000Y-35000
X-83000Y-35000
X-82000Y-35000
X-81000Y-35000
X-80000Y-35000
X-79000Y-35000
X-78000Y-35000
X-77000Y-35000
X-76000Y-35000
X-75000Y-35000
X-74000Y-35000
X-73000Y-35000
X-72000Y-35000
X-71000Y-35000
X-70000Y-35000
X-69000Y-35000
X-68000Y-35000
X-67000Y-35000
X-66000Y-35000
X-65000Y-35000
X-64000Y-35000
X-63000Y-35000
X-62000Y-35000
X-61000Y-35000
X-60000Y-35000
X-59000Y-35000
X-57000Y-35000
X-56000Y-35000
X-55000Y-35000
X-54000Y-35000
X-53000Y-35000
X-52000Y-35000
X-51000Y-35000
X-50000Y-35000
X-49000Y-35000
X-114454Y-31548
X-48000Y-35000
X-47000Y-35000
X-46000Y-35000
X-45000Y-35000
X-44000Y-35000
X-43000Y-35000
X-42000Y-35000
X-41000Y-35000
X-40000Y-35000
X-39000Y-35000
X-38000Y-35000
X-91000Y-34000
X-90000Y-33000
X-90000Y-34000
X-89000Y-34000
X-88000Y-34000
X-87000Y-34000
X-86000Y-34000
X-85000Y-34000
X-84000Y-34000
X-83000Y-34000
X-82000Y-34000
X-81000Y-34000
X-80000Y-34000
X-79000Y-34000
X-78000Y-34000
X-77000Y-34000
X-76000Y-34000
X-75000Y-34000
X-74000Y-34000
X-73000Y-34000
X-72000Y-34000
X-71000Y-34000
X-70000Y-34000
X-69000Y-34000
X-68000Y-34000
X-67000Y-34000
X-66000Y-34000
X-65000Y-34000
X-64000Y-34000
X-63000Y-34000
X-62000Y-34000
X-61000Y-34000
X-60000Y-34000
X-59000Y-34000
X-58000Y-34000
X-57000Y-34000
X-56000Y-34000
X-55000Y-34000
X-54000Y-34000
X-53000Y-34000
X-52000Y-34000
T20
X-117250Y-21125
X-116875Y-20250
X-116500Y-19375
X-116000Y-18625
X-115500Y-19375
X-115125Y-20250
X-114750Y-21125
X-114500Y-22000
X-116625Y-21750
X-116000Y-21125
X-9595Y3000
X-9595Y7000
X-115375Y-21750
X-118375Y-23750
X-114250Y-22875
X-113250Y-18625
X-9595Y2200
X-8895Y2600
X-8895Y3400
X-9595Y3800
X-8895Y4200
X-9595Y4600
X-9595Y5400
X-8895Y5800
X-9595Y6200
X-8895Y6600
X-8895Y7400
X-9595Y7800
X-112375Y-18625
X-111500Y-18625
X-110625Y-18625
X-109750Y-19500
X-109750Y-20375
X-109750Y-21250
X-110150Y-22975
X-110900Y-23575
X-111800Y-23750
X-112650Y-23450
X-113150Y-22700
X-109750Y-18625
X-118000Y-22875
X-113875Y-23750
X-109750Y-22125
X-117625Y-22000
M30