G04 EAGLE Gerber RS-274X export*
G75*
%MOMM*%
%FSLAX34Y34*%
%LPD*%
%IN*%
%IPPOS*%
%AMOC8*
5,1,8,0,0,1.08239X$1,22.5*%
G01*
%ADD10C,0.254000*%


D10*
X-1200000Y-285000D02*
X-1199828Y-291433D01*
X-1199097Y-297826D01*
X-1197811Y-304131D01*
X-1195980Y-310299D01*
X-1193618Y-316285D01*
X-1190744Y-322042D01*
X-1187379Y-327527D01*
X-1183549Y-332698D01*
X-1179283Y-337515D01*
X-1174613Y-341942D01*
X-1169575Y-345946D01*
X-1164208Y-349494D01*
X-1158551Y-352562D01*
X-1152649Y-355125D01*
X-1146545Y-357164D01*
X-1140288Y-358663D01*
X-1133923Y-359610D01*
X-1127500Y-360000D01*
X-72300Y-360000D01*
X-65981Y-359724D01*
X-59711Y-358899D01*
X-53536Y-357530D01*
X-47504Y-355628D01*
X-41660Y-353207D01*
X-36050Y-350287D01*
X-30716Y-346889D01*
X-25698Y-343038D01*
X-21035Y-338765D01*
X-16762Y-334102D01*
X-12911Y-329084D01*
X-9513Y-323750D01*
X-6593Y-318140D01*
X-4172Y-312296D01*
X-2270Y-306264D01*
X-901Y-300090D01*
X-76Y-293819D01*
X200Y-287500D01*
X200Y287500D01*
X-76Y293819D01*
X-901Y300090D01*
X-2270Y306264D01*
X-4172Y312296D01*
X-6593Y318140D01*
X-9513Y323750D01*
X-12911Y329084D01*
X-16762Y334102D01*
X-21035Y338765D01*
X-25698Y343038D01*
X-30716Y346889D01*
X-36050Y350287D01*
X-41660Y353207D01*
X-47504Y355628D01*
X-53536Y357530D01*
X-59711Y358899D01*
X-65981Y359724D01*
X-72300Y360000D01*
X-1127500Y360000D01*
X-1133819Y359724D01*
X-1140090Y358899D01*
X-1146264Y357530D01*
X-1152296Y355628D01*
X-1158140Y353207D01*
X-1163750Y350287D01*
X-1169084Y346889D01*
X-1174102Y343038D01*
X-1178765Y338765D01*
X-1183038Y334102D01*
X-1186889Y329084D01*
X-1190287Y323750D01*
X-1193207Y318140D01*
X-1195628Y312296D01*
X-1197530Y306264D01*
X-1198899Y300090D01*
X-1199724Y293819D01*
X-1200000Y287500D01*
X-1200000Y-285000D01*
X-123500Y64500D02*
X-106500Y64500D01*
X-106500Y70500D01*
X-123500Y70500D01*
X-123500Y64500D01*
X-123500Y-70500D02*
X-106500Y-70500D01*
X-106500Y-64500D01*
X-123500Y-64500D01*
X-123500Y-70500D01*
X-982536Y-310000D02*
X-981609Y-310066D01*
X-980690Y-310198D01*
X-979783Y-310396D01*
X-978892Y-310657D01*
X-978022Y-310982D01*
X-977177Y-311368D01*
X-976362Y-311813D01*
X-975581Y-312315D01*
X-974838Y-312871D01*
X-974136Y-313479D01*
X-973479Y-314136D01*
X-972871Y-314838D01*
X-972315Y-315581D01*
X-971813Y-316362D01*
X-971368Y-317177D01*
X-970982Y-318022D01*
X-970657Y-318892D01*
X-970396Y-319783D01*
X-970198Y-320690D01*
X-970066Y-321609D01*
X-970000Y-322536D01*
X-970000Y-323464D01*
X-970066Y-324391D01*
X-970198Y-325310D01*
X-970396Y-326217D01*
X-970657Y-327108D01*
X-970982Y-327978D01*
X-971368Y-328823D01*
X-971813Y-329638D01*
X-972315Y-330419D01*
X-972871Y-331162D01*
X-973479Y-331864D01*
X-974136Y-332521D01*
X-974838Y-333129D01*
X-975581Y-333685D01*
X-976362Y-334187D01*
X-977177Y-334632D01*
X-978022Y-335018D01*
X-978892Y-335343D01*
X-979783Y-335604D01*
X-980690Y-335802D01*
X-981609Y-335934D01*
X-982536Y-336000D01*
X-983464Y-336000D01*
X-984391Y-335934D01*
X-985310Y-335802D01*
X-986217Y-335604D01*
X-987108Y-335343D01*
X-987978Y-335018D01*
X-988823Y-334632D01*
X-989638Y-334187D01*
X-990419Y-333685D01*
X-991162Y-333129D01*
X-991864Y-332521D01*
X-992521Y-331864D01*
X-993129Y-331162D01*
X-993685Y-330419D01*
X-994187Y-329638D01*
X-994632Y-328823D01*
X-995018Y-327978D01*
X-995343Y-327108D01*
X-995604Y-326217D01*
X-995802Y-325310D01*
X-995934Y-324391D01*
X-996000Y-323464D01*
X-996000Y-322536D01*
X-995934Y-321609D01*
X-995802Y-320690D01*
X-995604Y-319783D01*
X-995343Y-318892D01*
X-995018Y-318022D01*
X-994632Y-317177D01*
X-994187Y-316362D01*
X-993685Y-315581D01*
X-993129Y-314838D01*
X-992521Y-314136D01*
X-991864Y-313479D01*
X-991162Y-312871D01*
X-990419Y-312315D01*
X-989638Y-311813D01*
X-988823Y-311368D01*
X-987978Y-310982D01*
X-987108Y-310657D01*
X-986217Y-310396D01*
X-985310Y-310198D01*
X-984391Y-310066D01*
X-983464Y-310000D01*
X-982536Y-310000D01*
X-1110000Y289396D02*
X-1110073Y288189D01*
X-1110219Y286989D01*
X-1110437Y285800D01*
X-1110726Y284627D01*
X-1111085Y283473D01*
X-1111514Y282343D01*
X-1112010Y281241D01*
X-1112572Y280170D01*
X-1113197Y279136D01*
X-1113884Y278141D01*
X-1114629Y277190D01*
X-1115431Y276285D01*
X-1116285Y275431D01*
X-1117190Y274629D01*
X-1118141Y273884D01*
X-1119136Y273197D01*
X-1120170Y272572D01*
X-1121241Y272010D01*
X-1122343Y271514D01*
X-1123473Y271085D01*
X-1124627Y270726D01*
X-1125800Y270437D01*
X-1126989Y270219D01*
X-1128189Y270073D01*
X-1129396Y270000D01*
X-1130604Y270000D01*
X-1131811Y270073D01*
X-1133011Y270219D01*
X-1134200Y270437D01*
X-1135373Y270726D01*
X-1136527Y271085D01*
X-1137657Y271514D01*
X-1138759Y272010D01*
X-1139830Y272572D01*
X-1140864Y273197D01*
X-1141859Y273884D01*
X-1142810Y274629D01*
X-1143715Y275431D01*
X-1144569Y276285D01*
X-1145371Y277190D01*
X-1146116Y278141D01*
X-1146803Y279136D01*
X-1147428Y280170D01*
X-1147990Y281241D01*
X-1148486Y282343D01*
X-1148915Y283473D01*
X-1149274Y284627D01*
X-1149563Y285800D01*
X-1149781Y286989D01*
X-1149927Y288189D01*
X-1150000Y289396D01*
X-1150000Y290604D01*
X-1149927Y291811D01*
X-1149781Y293011D01*
X-1149563Y294200D01*
X-1149274Y295373D01*
X-1148915Y296527D01*
X-1148486Y297657D01*
X-1147990Y298759D01*
X-1147428Y299830D01*
X-1146803Y300864D01*
X-1146116Y301859D01*
X-1145371Y302810D01*
X-1144569Y303715D01*
X-1143715Y304569D01*
X-1142810Y305371D01*
X-1141859Y306116D01*
X-1140864Y306803D01*
X-1139830Y307428D01*
X-1138759Y307990D01*
X-1137657Y308486D01*
X-1136527Y308915D01*
X-1135373Y309274D01*
X-1134200Y309563D01*
X-1133011Y309781D01*
X-1131811Y309927D01*
X-1130604Y310000D01*
X-1129396Y310000D01*
X-1128189Y309927D01*
X-1126989Y309781D01*
X-1125800Y309563D01*
X-1124627Y309274D01*
X-1123473Y308915D01*
X-1122343Y308486D01*
X-1121241Y307990D01*
X-1120170Y307428D01*
X-1119136Y306803D01*
X-1118141Y306116D01*
X-1117190Y305371D01*
X-1116285Y304569D01*
X-1115431Y303715D01*
X-1114629Y302810D01*
X-1113884Y301859D01*
X-1113197Y300864D01*
X-1112572Y299830D01*
X-1112010Y298759D01*
X-1111514Y297657D01*
X-1111085Y296527D01*
X-1110726Y295373D01*
X-1110437Y294200D01*
X-1110219Y293011D01*
X-1110073Y291811D01*
X-1110000Y290604D01*
X-1110000Y289396D01*
X-1110000Y-290604D02*
X-1110073Y-291811D01*
X-1110219Y-293011D01*
X-1110437Y-294200D01*
X-1110726Y-295373D01*
X-1111085Y-296527D01*
X-1111514Y-297657D01*
X-1112010Y-298759D01*
X-1112572Y-299830D01*
X-1113197Y-300864D01*
X-1113884Y-301859D01*
X-1114629Y-302810D01*
X-1115431Y-303715D01*
X-1116285Y-304569D01*
X-1117190Y-305371D01*
X-1118141Y-306116D01*
X-1119136Y-306803D01*
X-1120170Y-307428D01*
X-1121241Y-307990D01*
X-1122343Y-308486D01*
X-1123473Y-308915D01*
X-1124627Y-309274D01*
X-1125800Y-309563D01*
X-1126989Y-309781D01*
X-1128189Y-309927D01*
X-1129396Y-310000D01*
X-1130604Y-310000D01*
X-1131811Y-309927D01*
X-1133011Y-309781D01*
X-1134200Y-309563D01*
X-1135373Y-309274D01*
X-1136527Y-308915D01*
X-1137657Y-308486D01*
X-1138759Y-307990D01*
X-1139830Y-307428D01*
X-1140864Y-306803D01*
X-1141859Y-306116D01*
X-1142810Y-305371D01*
X-1143715Y-304569D01*
X-1144569Y-303715D01*
X-1145371Y-302810D01*
X-1146116Y-301859D01*
X-1146803Y-300864D01*
X-1147428Y-299830D01*
X-1147990Y-298759D01*
X-1148486Y-297657D01*
X-1148915Y-296527D01*
X-1149274Y-295373D01*
X-1149563Y-294200D01*
X-1149781Y-293011D01*
X-1149927Y-291811D01*
X-1150000Y-290604D01*
X-1150000Y-289396D01*
X-1149927Y-288189D01*
X-1149781Y-286989D01*
X-1149563Y-285800D01*
X-1149274Y-284627D01*
X-1148915Y-283473D01*
X-1148486Y-282343D01*
X-1147990Y-281241D01*
X-1147428Y-280170D01*
X-1146803Y-279136D01*
X-1146116Y-278141D01*
X-1145371Y-277190D01*
X-1144569Y-276285D01*
X-1143715Y-275431D01*
X-1142810Y-274629D01*
X-1141859Y-273884D01*
X-1140864Y-273197D01*
X-1139830Y-272572D01*
X-1138759Y-272010D01*
X-1137657Y-271514D01*
X-1136527Y-271085D01*
X-1135373Y-270726D01*
X-1134200Y-270437D01*
X-1133011Y-270219D01*
X-1131811Y-270073D01*
X-1130604Y-270000D01*
X-1129396Y-270000D01*
X-1128189Y-270073D01*
X-1126989Y-270219D01*
X-1125800Y-270437D01*
X-1124627Y-270726D01*
X-1123473Y-271085D01*
X-1122343Y-271514D01*
X-1121241Y-272010D01*
X-1120170Y-272572D01*
X-1119136Y-273197D01*
X-1118141Y-273884D01*
X-1117190Y-274629D01*
X-1116285Y-275431D01*
X-1115431Y-276285D01*
X-1114629Y-277190D01*
X-1113884Y-278141D01*
X-1113197Y-279136D01*
X-1112572Y-280170D01*
X-1112010Y-281241D01*
X-1111514Y-282343D01*
X-1111085Y-283473D01*
X-1110726Y-284627D01*
X-1110437Y-285800D01*
X-1110219Y-286989D01*
X-1110073Y-288189D01*
X-1110000Y-289396D01*
X-1110000Y-290604D01*
X-50000Y-290604D02*
X-50073Y-291811D01*
X-50219Y-293011D01*
X-50437Y-294200D01*
X-50726Y-295373D01*
X-51085Y-296527D01*
X-51514Y-297657D01*
X-52010Y-298759D01*
X-52572Y-299830D01*
X-53197Y-300864D01*
X-53884Y-301859D01*
X-54629Y-302810D01*
X-55431Y-303715D01*
X-56285Y-304569D01*
X-57190Y-305371D01*
X-58141Y-306116D01*
X-59136Y-306803D01*
X-60170Y-307428D01*
X-61241Y-307990D01*
X-62343Y-308486D01*
X-63473Y-308915D01*
X-64627Y-309274D01*
X-65800Y-309563D01*
X-66989Y-309781D01*
X-68189Y-309927D01*
X-69396Y-310000D01*
X-70604Y-310000D01*
X-71811Y-309927D01*
X-73011Y-309781D01*
X-74200Y-309563D01*
X-75373Y-309274D01*
X-76527Y-308915D01*
X-77657Y-308486D01*
X-78759Y-307990D01*
X-79830Y-307428D01*
X-80864Y-306803D01*
X-81859Y-306116D01*
X-82810Y-305371D01*
X-83715Y-304569D01*
X-84569Y-303715D01*
X-85371Y-302810D01*
X-86116Y-301859D01*
X-86803Y-300864D01*
X-87428Y-299830D01*
X-87990Y-298759D01*
X-88486Y-297657D01*
X-88915Y-296527D01*
X-89274Y-295373D01*
X-89563Y-294200D01*
X-89781Y-293011D01*
X-89927Y-291811D01*
X-90000Y-290604D01*
X-90000Y-289396D01*
X-89927Y-288189D01*
X-89781Y-286989D01*
X-89563Y-285800D01*
X-89274Y-284627D01*
X-88915Y-283473D01*
X-88486Y-282343D01*
X-87990Y-281241D01*
X-87428Y-280170D01*
X-86803Y-279136D01*
X-86116Y-278141D01*
X-85371Y-277190D01*
X-84569Y-276285D01*
X-83715Y-275431D01*
X-82810Y-274629D01*
X-81859Y-273884D01*
X-80864Y-273197D01*
X-79830Y-272572D01*
X-78759Y-272010D01*
X-77657Y-271514D01*
X-76527Y-271085D01*
X-75373Y-270726D01*
X-74200Y-270437D01*
X-73011Y-270219D01*
X-71811Y-270073D01*
X-70604Y-270000D01*
X-69396Y-270000D01*
X-68189Y-270073D01*
X-66989Y-270219D01*
X-65800Y-270437D01*
X-64627Y-270726D01*
X-63473Y-271085D01*
X-62343Y-271514D01*
X-61241Y-272010D01*
X-60170Y-272572D01*
X-59136Y-273197D01*
X-58141Y-273884D01*
X-57190Y-274629D01*
X-56285Y-275431D01*
X-55431Y-276285D01*
X-54629Y-277190D01*
X-53884Y-278141D01*
X-53197Y-279136D01*
X-52572Y-280170D01*
X-52010Y-281241D01*
X-51514Y-282343D01*
X-51085Y-283473D01*
X-50726Y-284627D01*
X-50437Y-285800D01*
X-50219Y-286989D01*
X-50073Y-288189D01*
X-50000Y-289396D01*
X-50000Y-290604D01*
X-50000Y289396D02*
X-50073Y288189D01*
X-50219Y286989D01*
X-50437Y285800D01*
X-50726Y284627D01*
X-51085Y283473D01*
X-51514Y282343D01*
X-52010Y281241D01*
X-52572Y280170D01*
X-53197Y279136D01*
X-53884Y278141D01*
X-54629Y277190D01*
X-55431Y276285D01*
X-56285Y275431D01*
X-57190Y274629D01*
X-58141Y273884D01*
X-59136Y273197D01*
X-60170Y272572D01*
X-61241Y272010D01*
X-62343Y271514D01*
X-63473Y271085D01*
X-64627Y270726D01*
X-65800Y270437D01*
X-66989Y270219D01*
X-68189Y270073D01*
X-69396Y270000D01*
X-70604Y270000D01*
X-71811Y270073D01*
X-73011Y270219D01*
X-74200Y270437D01*
X-75373Y270726D01*
X-76527Y271085D01*
X-77657Y271514D01*
X-78759Y272010D01*
X-79830Y272572D01*
X-80864Y273197D01*
X-81859Y273884D01*
X-82810Y274629D01*
X-83715Y275431D01*
X-84569Y276285D01*
X-85371Y277190D01*
X-86116Y278141D01*
X-86803Y279136D01*
X-87428Y280170D01*
X-87990Y281241D01*
X-88486Y282343D01*
X-88915Y283473D01*
X-89274Y284627D01*
X-89563Y285800D01*
X-89781Y286989D01*
X-89927Y288189D01*
X-90000Y289396D01*
X-90000Y290604D01*
X-89927Y291811D01*
X-89781Y293011D01*
X-89563Y294200D01*
X-89274Y295373D01*
X-88915Y296527D01*
X-88486Y297657D01*
X-87990Y298759D01*
X-87428Y299830D01*
X-86803Y300864D01*
X-86116Y301859D01*
X-85371Y302810D01*
X-84569Y303715D01*
X-83715Y304569D01*
X-82810Y305371D01*
X-81859Y306116D01*
X-80864Y306803D01*
X-79830Y307428D01*
X-78759Y307990D01*
X-77657Y308486D01*
X-76527Y308915D01*
X-75373Y309274D01*
X-74200Y309563D01*
X-73011Y309781D01*
X-71811Y309927D01*
X-70604Y310000D01*
X-69396Y310000D01*
X-68189Y309927D01*
X-66989Y309781D01*
X-65800Y309563D01*
X-64627Y309274D01*
X-63473Y308915D01*
X-62343Y308486D01*
X-61241Y307990D01*
X-60170Y307428D01*
X-59136Y306803D01*
X-58141Y306116D01*
X-57190Y305371D01*
X-56285Y304569D01*
X-55431Y303715D01*
X-54629Y302810D01*
X-53884Y301859D01*
X-53197Y300864D01*
X-52572Y299830D01*
X-52010Y298759D01*
X-51514Y297657D01*
X-51085Y296527D01*
X-50726Y295373D01*
X-50437Y294200D01*
X-50219Y293011D01*
X-50073Y291811D01*
X-50000Y290604D01*
X-50000Y289396D01*
M02*
