G04 EAGLE Gerber RS-274X export*
G75*
%MOMM*%
%FSLAX34Y34*%
%LPD*%
%INSilkscreen Top*%
%IPPOS*%
%AMOC8*
5,1,8,0,0,1.08239X$1,22.5*%
G01*
%ADD10C,0.304800*%
%ADD11C,0.101600*%
%ADD12C,0.127000*%
%ADD13C,0.300000*%
%ADD14C,0.100000*%
%ADD15C,0.152400*%
%ADD16C,0.203200*%
%ADD17C,0.200000*%
%ADD18C,0.200000*%
%ADD19C,0.076200*%
%ADD20C,0.762000*%
%ADD21R,0.150000X0.300000*%
%ADD22R,0.300000X0.300000*%


D10*
X-267324Y-66576D02*
X-282289Y-66576D01*
X-277301Y-61588D01*
X-282289Y-56600D01*
X-267324Y-56600D01*
X-267324Y-50002D02*
X-277301Y-50002D01*
X-282289Y-45014D01*
X-277301Y-40025D01*
X-267324Y-40025D01*
X-274806Y-40025D02*
X-274806Y-50002D01*
X-282289Y-33428D02*
X-267324Y-23451D01*
X-267324Y-33428D02*
X-282289Y-23451D01*
X-279795Y4709D02*
X-282289Y9697D01*
X-279795Y4709D02*
X-274806Y-279D01*
X-269818Y-279D01*
X-267324Y2215D01*
X-267324Y7203D01*
X-269818Y9697D01*
X-272312Y9697D01*
X-274806Y7203D01*
X-274806Y-279D01*
X-269818Y16295D02*
X-279795Y16295D01*
X-282289Y18789D01*
X-282289Y23777D01*
X-279795Y26271D01*
X-269818Y26271D01*
X-267324Y23777D01*
X-267324Y18789D01*
X-269818Y16295D01*
X-279795Y26271D01*
X-282289Y32869D02*
X-272312Y32869D01*
X-267324Y37857D01*
X-272312Y42845D01*
X-282289Y42845D01*
X-255289Y-66576D02*
X-240324Y-66576D01*
X-250301Y-61588D02*
X-255289Y-66576D01*
X-250301Y-61588D02*
X-255289Y-56600D01*
X-240324Y-56600D01*
X-240324Y-50002D02*
X-250301Y-50002D01*
X-255289Y-45014D01*
X-250301Y-40025D01*
X-240324Y-40025D01*
X-247806Y-40025D02*
X-247806Y-50002D01*
X-255289Y-33428D02*
X-240324Y-23451D01*
X-240324Y-33428D02*
X-255289Y-23451D01*
X-240324Y-279D02*
X-240324Y9697D01*
X-240324Y-279D02*
X-250301Y9697D01*
X-252795Y9697D01*
X-255289Y7203D01*
X-255289Y2215D01*
X-252795Y-279D01*
X-252795Y16295D02*
X-242818Y16295D01*
X-252795Y16295D02*
X-255289Y18789D01*
X-255289Y23777D01*
X-252795Y26271D01*
X-242818Y26271D01*
X-240324Y23777D01*
X-240324Y18789D01*
X-242818Y16295D01*
X-252795Y26271D01*
X-250301Y32869D02*
X-240324Y32869D01*
X-250301Y32869D02*
X-255289Y37857D01*
X-250301Y42845D01*
X-240324Y42845D01*
X-247806Y42845D02*
X-247806Y32869D01*
X-228289Y-66576D02*
X-213324Y-66576D01*
X-223301Y-61588D02*
X-228289Y-66576D01*
X-223301Y-61588D02*
X-228289Y-56600D01*
X-213324Y-56600D01*
X-213324Y-50002D02*
X-223301Y-50002D01*
X-228289Y-45014D01*
X-223301Y-40025D01*
X-213324Y-40025D01*
X-220806Y-40025D02*
X-220806Y-50002D01*
X-228289Y-33428D02*
X-213324Y-23451D01*
X-213324Y-33428D02*
X-228289Y-23451D01*
X-213324Y-279D02*
X-213324Y9697D01*
X-213324Y-279D02*
X-223301Y9697D01*
X-225795Y9697D01*
X-228289Y7203D01*
X-228289Y2215D01*
X-225795Y-279D01*
X-228289Y16295D02*
X-228289Y26271D01*
X-228289Y16295D02*
X-220806Y16295D01*
X-223301Y21283D01*
X-223301Y23777D01*
X-220806Y26271D01*
X-215818Y26271D01*
X-213324Y23777D01*
X-213324Y18789D01*
X-215818Y16295D01*
X-215818Y32869D02*
X-225795Y32869D01*
X-228289Y35363D01*
X-228289Y40351D01*
X-225795Y42845D01*
X-215818Y42845D01*
X-213324Y40351D01*
X-213324Y35363D01*
X-215818Y32869D01*
X-225795Y42845D01*
X-228289Y49443D02*
X-213324Y49443D01*
X-218312Y54431D01*
X-213324Y59420D01*
X-228289Y59420D01*
D11*
X-338503Y-134698D02*
X-338503Y-139358D01*
X-340833Y-137028D02*
X-336173Y-137028D01*
D12*
X-975628Y344996D02*
X-977084Y343540D01*
X-975628Y344996D02*
X-975628Y347909D01*
X-977084Y349365D01*
X-978540Y349365D01*
X-979996Y347909D01*
X-979996Y344996D01*
X-981453Y343540D01*
X-982909Y343540D01*
X-984365Y344996D01*
X-984365Y347909D01*
X-982909Y349365D01*
X-984365Y337245D02*
X-975628Y337245D01*
X-975628Y340157D02*
X-975628Y334332D01*
X-978540Y330949D02*
X-984365Y330949D01*
X-978540Y330949D02*
X-975628Y328037D01*
X-978540Y325124D01*
X-984365Y325124D01*
X-979996Y325124D02*
X-979996Y330949D01*
X-984365Y318829D02*
X-975628Y318829D01*
X-975628Y321741D02*
X-975628Y315917D01*
X-975628Y312534D02*
X-982909Y312534D01*
X-984365Y311077D01*
X-984365Y308165D01*
X-982909Y306709D01*
X-975628Y306709D01*
X-975628Y298957D02*
X-977084Y297501D01*
X-975628Y298957D02*
X-975628Y301870D01*
X-977084Y303326D01*
X-978540Y303326D01*
X-979996Y301870D01*
X-979996Y298957D01*
X-981453Y297501D01*
X-982909Y297501D01*
X-984365Y298957D01*
X-984365Y301870D01*
X-982909Y303326D01*
X-330542Y-334263D02*
X-321805Y-334263D01*
X-330542Y-337175D02*
X-330542Y-331350D01*
X-321805Y-326511D02*
X-321805Y-323599D01*
X-321805Y-326511D02*
X-323261Y-327968D01*
X-326174Y-327968D01*
X-327630Y-326511D01*
X-327630Y-323599D01*
X-326174Y-322143D01*
X-324717Y-322143D01*
X-324717Y-327968D01*
X-321805Y-318760D02*
X-321805Y-314391D01*
X-323261Y-312935D01*
X-324717Y-314391D01*
X-324717Y-317304D01*
X-326174Y-318760D01*
X-327630Y-317304D01*
X-327630Y-312935D01*
X-329086Y-308096D02*
X-323261Y-308096D01*
X-321805Y-306639D01*
X-327630Y-306639D02*
X-327630Y-309552D01*
X-327630Y-294205D02*
X-330542Y-291293D01*
X-321805Y-291293D01*
X-321805Y-294205D02*
X-321805Y-288381D01*
X-321805Y-284998D02*
X-321805Y-279173D01*
X-321805Y-284998D02*
X-327630Y-279173D01*
X-329086Y-279173D01*
X-330542Y-280629D01*
X-330542Y-283541D01*
X-329086Y-284998D01*
X-327630Y-275790D02*
X-321805Y-272877D01*
X-327630Y-269965D01*
X-315872Y-332496D02*
X-315872Y-335409D01*
X-314416Y-336865D01*
X-308591Y-336865D01*
X-307135Y-335409D01*
X-307135Y-332496D01*
X-308591Y-331040D01*
X-314416Y-331040D01*
X-315872Y-332496D01*
X-315872Y-327657D02*
X-307135Y-327657D01*
X-315872Y-327657D02*
X-315872Y-321832D01*
X-311504Y-324745D02*
X-311504Y-327657D01*
X-307135Y-318449D02*
X-315872Y-318449D01*
X-315872Y-312624D01*
X-311504Y-315537D02*
X-311504Y-318449D01*
X-961128Y201365D02*
X-969865Y201365D01*
X-961128Y201365D02*
X-961128Y196996D01*
X-962584Y195540D01*
X-964040Y195540D01*
X-965496Y196996D01*
X-966953Y195540D01*
X-968409Y195540D01*
X-969865Y196996D01*
X-969865Y201365D01*
X-965496Y201365D02*
X-965496Y196996D01*
X-964040Y192157D02*
X-969865Y192157D01*
X-964040Y192157D02*
X-961128Y189245D01*
X-964040Y186332D01*
X-969865Y186332D01*
X-965496Y186332D02*
X-965496Y192157D01*
X-969865Y180037D02*
X-961128Y180037D01*
X-961128Y182949D02*
X-961128Y177124D01*
X-961128Y170829D02*
X-969865Y170829D01*
X-961128Y173741D02*
X-961128Y167917D01*
X-961128Y164534D02*
X-961128Y158709D01*
X-961128Y164534D02*
X-969865Y164534D01*
X-969865Y158709D01*
X-965496Y161621D02*
X-965496Y164534D01*
X-969865Y155326D02*
X-961128Y155326D01*
X-961128Y150957D01*
X-962584Y149501D01*
X-965496Y149501D01*
X-966953Y150957D01*
X-966953Y155326D01*
X-966953Y152413D02*
X-969865Y149501D01*
X-962584Y146118D02*
X-961128Y146118D01*
X-962584Y146118D02*
X-965496Y143205D01*
X-962584Y140293D01*
X-961128Y140293D01*
X-965496Y143205D02*
X-969865Y143205D01*
X-969865Y127702D02*
X-961128Y127702D01*
X-969865Y127702D02*
X-969865Y123334D01*
X-968409Y121877D01*
X-962584Y121877D01*
X-961128Y123334D01*
X-961128Y127702D01*
X-969865Y118494D02*
X-969865Y115582D01*
X-969865Y117038D02*
X-961128Y117038D01*
X-961128Y118494D02*
X-961128Y115582D01*
X-961128Y107987D02*
X-962584Y106531D01*
X-961128Y107987D02*
X-961128Y110900D01*
X-962584Y112356D01*
X-964040Y112356D01*
X-965496Y110900D01*
X-965496Y107987D01*
X-966953Y106531D01*
X-968409Y106531D01*
X-969865Y107987D01*
X-969865Y110900D01*
X-968409Y112356D01*
X-961128Y98779D02*
X-962584Y97323D01*
X-961128Y98779D02*
X-961128Y101692D01*
X-962584Y103148D01*
X-968409Y103148D01*
X-969865Y101692D01*
X-969865Y98779D01*
X-968409Y97323D01*
X-969865Y93940D02*
X-961128Y93940D01*
X-965496Y93940D02*
X-965496Y88115D01*
X-961128Y88115D02*
X-969865Y88115D01*
X-969865Y84732D02*
X-964040Y84732D01*
X-961128Y81820D01*
X-964040Y78907D01*
X-969865Y78907D01*
X-965496Y78907D02*
X-965496Y84732D01*
X-969865Y75524D02*
X-961128Y75524D01*
X-961128Y71156D01*
X-962584Y69700D01*
X-965496Y69700D01*
X-966953Y71156D01*
X-966953Y75524D01*
X-966953Y72612D02*
X-969865Y69700D01*
X-961128Y61948D02*
X-962584Y60492D01*
X-961128Y61948D02*
X-961128Y64860D01*
X-962584Y66317D01*
X-968409Y66317D01*
X-969865Y64860D01*
X-969865Y61948D01*
X-968409Y60492D01*
X-965496Y60492D01*
X-965496Y63404D01*
X-961128Y57109D02*
X-961128Y51284D01*
X-961128Y57109D02*
X-969865Y57109D01*
X-969865Y51284D01*
X-965496Y54196D02*
X-965496Y57109D01*
X-977584Y195540D02*
X-976128Y196996D01*
X-976128Y199909D01*
X-977584Y201365D01*
X-983409Y201365D01*
X-984865Y199909D01*
X-984865Y196996D01*
X-983409Y195540D01*
X-976128Y190701D02*
X-976128Y187788D01*
X-976128Y190701D02*
X-977584Y192157D01*
X-983409Y192157D01*
X-984865Y190701D01*
X-984865Y187788D01*
X-983409Y186332D01*
X-977584Y186332D01*
X-976128Y187788D01*
X-976128Y182949D02*
X-984865Y182949D01*
X-979040Y180037D02*
X-976128Y182949D01*
X-979040Y180037D02*
X-976128Y177124D01*
X-984865Y177124D01*
X-984865Y173741D02*
X-976128Y173741D01*
X-976128Y169373D01*
X-977584Y167917D01*
X-980496Y167917D01*
X-981953Y169373D01*
X-981953Y173741D01*
X-984865Y164534D02*
X-976128Y164534D01*
X-984865Y164534D02*
X-984865Y158709D01*
X-976128Y155326D02*
X-976128Y149501D01*
X-976128Y155326D02*
X-984865Y155326D01*
X-984865Y149501D01*
X-980496Y152413D02*
X-980496Y155326D01*
X-984865Y143205D02*
X-976128Y143205D01*
X-976128Y140293D02*
X-976128Y146118D01*
X-976128Y136910D02*
X-976128Y131085D01*
X-976128Y136910D02*
X-984865Y136910D01*
X-984865Y131085D01*
X-980496Y133998D02*
X-980496Y136910D01*
X-976128Y127702D02*
X-984865Y127702D01*
X-984865Y123334D01*
X-983409Y121877D01*
X-977584Y121877D01*
X-976128Y123334D01*
X-976128Y127702D01*
D13*
X-989500Y294500D02*
X-989500Y352500D01*
D12*
X-960628Y282909D02*
X-960628Y279996D01*
X-960628Y282909D02*
X-962084Y284365D01*
X-967909Y284365D01*
X-969365Y282909D01*
X-969365Y279996D01*
X-967909Y278540D01*
X-962084Y278540D01*
X-960628Y279996D01*
X-960628Y275157D02*
X-966453Y275157D01*
X-969365Y272245D01*
X-966453Y269332D01*
X-960628Y269332D01*
X-960628Y265949D02*
X-960628Y260124D01*
X-960628Y265949D02*
X-969365Y265949D01*
X-969365Y260124D01*
X-964996Y263037D02*
X-964996Y265949D01*
X-969365Y256741D02*
X-960628Y256741D01*
X-960628Y252373D01*
X-962084Y250917D01*
X-964996Y250917D01*
X-966453Y252373D01*
X-966453Y256741D01*
X-966453Y253829D02*
X-969365Y250917D01*
X-969365Y244621D02*
X-960628Y244621D01*
X-960628Y241709D02*
X-960628Y247534D01*
X-960628Y238326D02*
X-960628Y232501D01*
X-960628Y238326D02*
X-969365Y238326D01*
X-969365Y232501D01*
X-964996Y235413D02*
X-964996Y238326D01*
X-969365Y229118D02*
X-960628Y229118D01*
X-963540Y226205D01*
X-960628Y223293D01*
X-969365Y223293D01*
X-969365Y219910D02*
X-960628Y219910D01*
X-960628Y215541D01*
X-962084Y214085D01*
X-964996Y214085D01*
X-966453Y215541D01*
X-966453Y219910D01*
D14*
X-955000Y210000D02*
X-955000Y287500D01*
X-955000Y210000D02*
X-975000Y210000D01*
X-975000Y287500D01*
X-955000Y287500D01*
D15*
X-859238Y-70762D02*
X-859238Y-74257D01*
X-859238Y-72509D02*
X-848753Y-72509D01*
X-848753Y-70762D02*
X-848753Y-74257D01*
X-848753Y-78128D02*
X-859238Y-85118D01*
X-859238Y-78128D02*
X-848753Y-85118D01*
X-848753Y-92673D02*
X-859238Y-92673D01*
X-848753Y-89178D02*
X-848753Y-96168D01*
X-848753Y-100227D02*
X-859238Y-100227D01*
X-855743Y-100227D02*
X-848753Y-107217D01*
X-853996Y-101975D02*
X-859238Y-107217D01*
X-857491Y-111277D02*
X-859238Y-113024D01*
X-859238Y-116519D01*
X-857491Y-118267D01*
X-850501Y-118267D01*
X-848753Y-116519D01*
X-848753Y-113024D01*
X-850501Y-111277D01*
X-852248Y-111277D01*
X-853996Y-113024D01*
X-853996Y-118267D01*
X-857491Y-122326D02*
X-850501Y-122326D01*
X-848753Y-124074D01*
X-848753Y-127569D01*
X-850501Y-129316D01*
X-857491Y-129316D01*
X-859238Y-127569D01*
X-859238Y-124074D01*
X-857491Y-122326D01*
X-850501Y-129316D01*
X-848753Y-133375D02*
X-859238Y-133375D01*
X-859238Y-140365D02*
X-848753Y-133375D01*
X-848753Y-140365D02*
X-859238Y-140365D01*
X-859238Y-144425D02*
X-859238Y-151415D01*
X-859238Y-144425D02*
X-852248Y-151415D01*
X-850501Y-151415D01*
X-848753Y-149667D01*
X-848753Y-146172D01*
X-850501Y-144425D01*
X-848753Y-155474D02*
X-848753Y-162464D01*
X-848753Y-155474D02*
X-853996Y-155474D01*
X-852248Y-158969D01*
X-852248Y-160717D01*
X-853996Y-162464D01*
X-857491Y-162464D01*
X-859238Y-160717D01*
X-859238Y-157222D01*
X-857491Y-155474D01*
X-859238Y-166524D02*
X-848753Y-166524D01*
X-859238Y-166524D02*
X-859238Y-173514D01*
X-859238Y-177573D02*
X-859238Y-184563D01*
X-859238Y-177573D02*
X-852248Y-184563D01*
X-850501Y-184563D01*
X-848753Y-182816D01*
X-848753Y-179321D01*
X-850501Y-177573D01*
X-320762Y-250743D02*
X-320762Y-254238D01*
X-320762Y-252491D02*
X-331247Y-252491D01*
X-331247Y-254238D02*
X-331247Y-250743D01*
X-331247Y-246872D02*
X-320762Y-239882D01*
X-320762Y-246872D02*
X-331247Y-239882D01*
X-331247Y-232327D02*
X-320762Y-232327D01*
X-331247Y-235822D02*
X-331247Y-228832D01*
X-331247Y-224773D02*
X-320762Y-224773D01*
X-324257Y-224773D02*
X-331247Y-217783D01*
X-326004Y-223025D02*
X-320762Y-217783D01*
X-322509Y-213723D02*
X-320762Y-211976D01*
X-320762Y-208481D01*
X-322509Y-206733D01*
X-329499Y-206733D01*
X-331247Y-208481D01*
X-331247Y-211976D01*
X-329499Y-213723D01*
X-327752Y-213723D01*
X-326004Y-211976D01*
X-326004Y-206733D01*
X-322509Y-202674D02*
X-329499Y-202674D01*
X-331247Y-200927D01*
X-331247Y-197432D01*
X-329499Y-195684D01*
X-322509Y-195684D01*
X-320762Y-197432D01*
X-320762Y-200927D01*
X-322509Y-202674D01*
X-329499Y-195684D01*
X-331247Y-191625D02*
X-320762Y-191625D01*
X-320762Y-184635D02*
X-331247Y-191625D01*
X-331247Y-184635D02*
X-320762Y-184635D01*
X-320762Y-180575D02*
X-320762Y-173585D01*
X-320762Y-180575D02*
X-327752Y-173585D01*
X-329499Y-173585D01*
X-331247Y-175333D01*
X-331247Y-178828D01*
X-329499Y-180575D01*
X-331247Y-169526D02*
X-331247Y-162536D01*
X-331247Y-169526D02*
X-326004Y-169526D01*
X-327752Y-166031D01*
X-327752Y-164283D01*
X-326004Y-162536D01*
X-322509Y-162536D01*
X-320762Y-164283D01*
X-320762Y-167778D01*
X-322509Y-169526D01*
X-320762Y-158476D02*
X-331247Y-158476D01*
X-320762Y-158476D02*
X-320762Y-151486D01*
X-320762Y-147427D02*
X-320762Y-140437D01*
X-320762Y-147427D02*
X-327752Y-140437D01*
X-329499Y-140437D01*
X-331247Y-142184D01*
X-331247Y-145679D01*
X-329499Y-147427D01*
D16*
X-405432Y340743D02*
X-407595Y342906D01*
X-411921Y342906D01*
X-414085Y340743D01*
X-414085Y338580D01*
X-411921Y336417D01*
X-407595Y336417D01*
X-405432Y334253D01*
X-405432Y332090D01*
X-407595Y329927D01*
X-411921Y329927D01*
X-414085Y332090D01*
X-400273Y336417D02*
X-391620Y336417D01*
X-446006Y321405D02*
X-448169Y323568D01*
X-446006Y321405D02*
X-441679Y321405D01*
X-439516Y323568D01*
X-439516Y325731D01*
X-441679Y327894D01*
X-446006Y327894D01*
X-448169Y330058D01*
X-448169Y332221D01*
X-446006Y334384D01*
X-441679Y334384D01*
X-439516Y332221D01*
X-453328Y321405D02*
X-461981Y321405D01*
X-453328Y321405D02*
X-453328Y334384D01*
X-461981Y334384D01*
X-457654Y327894D02*
X-453328Y327894D01*
X-467140Y334384D02*
X-467140Y321405D01*
X-475792Y334384D01*
X-475792Y321405D01*
X-487441Y321405D02*
X-489604Y323568D01*
X-487441Y321405D02*
X-483115Y321405D01*
X-480951Y323568D01*
X-480951Y325731D01*
X-483115Y327894D01*
X-487441Y327894D01*
X-489604Y330058D01*
X-489604Y332221D01*
X-487441Y334384D01*
X-483115Y334384D01*
X-480951Y332221D01*
X-494763Y321405D02*
X-503416Y321405D01*
X-494763Y321405D02*
X-494763Y334384D01*
X-503416Y334384D01*
X-499089Y327894D02*
X-494763Y327894D01*
D12*
X-436004Y341028D02*
X-433091Y341028D01*
X-431635Y342484D01*
X-431635Y348309D01*
X-433091Y349765D01*
X-436004Y349765D01*
X-437460Y348309D01*
X-437460Y342484D01*
X-436004Y341028D01*
X-440843Y341028D02*
X-440843Y349765D01*
X-446668Y349765D02*
X-440843Y341028D01*
X-446668Y341028D02*
X-446668Y349765D01*
X-468466Y345396D02*
X-474291Y345396D01*
X-488338Y341028D02*
X-491251Y341028D01*
X-488338Y341028D02*
X-486882Y342484D01*
X-486882Y348309D01*
X-488338Y349765D01*
X-491251Y349765D01*
X-492707Y348309D01*
X-492707Y342484D01*
X-491251Y341028D01*
X-496090Y341028D02*
X-496090Y349765D01*
X-496090Y341028D02*
X-501915Y341028D01*
X-499002Y345396D02*
X-496090Y345396D01*
X-505298Y349765D02*
X-505298Y341028D01*
X-511123Y341028D01*
X-508210Y345396D02*
X-505298Y345396D01*
X-885496Y-301728D02*
X-888409Y-301728D01*
X-889865Y-303184D01*
X-889865Y-309009D01*
X-888409Y-310465D01*
X-885496Y-310465D01*
X-884040Y-309009D01*
X-884040Y-303184D01*
X-885496Y-301728D01*
X-880657Y-301728D02*
X-880657Y-307553D01*
X-877745Y-310465D01*
X-874832Y-307553D01*
X-874832Y-301728D01*
X-871449Y-301728D02*
X-865624Y-301728D01*
X-871449Y-301728D02*
X-871449Y-310465D01*
X-865624Y-310465D01*
X-868537Y-306096D02*
X-871449Y-306096D01*
X-862241Y-310465D02*
X-862241Y-301728D01*
X-857873Y-301728D01*
X-856417Y-303184D01*
X-856417Y-306096D01*
X-857873Y-307553D01*
X-862241Y-307553D01*
X-859329Y-307553D02*
X-856417Y-310465D01*
X-853034Y-307553D02*
X-853034Y-301728D01*
X-853034Y-307553D02*
X-850121Y-310465D01*
X-847209Y-307553D01*
X-847209Y-301728D01*
X-842370Y-301728D02*
X-839457Y-301728D01*
X-842370Y-301728D02*
X-843826Y-303184D01*
X-843826Y-309009D01*
X-842370Y-310465D01*
X-839457Y-310465D01*
X-838001Y-309009D01*
X-838001Y-303184D01*
X-839457Y-301728D01*
X-834618Y-301728D02*
X-834618Y-310465D01*
X-828793Y-310465D01*
X-822498Y-310465D02*
X-822498Y-301728D01*
X-825410Y-301728D02*
X-819585Y-301728D01*
X-816202Y-304640D02*
X-816202Y-310465D01*
X-816202Y-304640D02*
X-813290Y-301728D01*
X-810377Y-304640D01*
X-810377Y-310465D01*
X-810377Y-306096D02*
X-816202Y-306096D01*
X-802626Y-301728D02*
X-801169Y-303184D01*
X-802626Y-301728D02*
X-805538Y-301728D01*
X-806994Y-303184D01*
X-806994Y-309009D01*
X-805538Y-310465D01*
X-802626Y-310465D01*
X-801169Y-309009D01*
X-801169Y-306096D01*
X-804082Y-306096D01*
X-797787Y-301728D02*
X-791962Y-301728D01*
X-797787Y-301728D02*
X-797787Y-310465D01*
X-791962Y-310465D01*
X-794874Y-306096D02*
X-797787Y-306096D01*
X-779371Y-309009D02*
X-779371Y-310465D01*
X-779371Y-306096D02*
X-779371Y-300271D01*
D14*
X-955000Y205000D02*
X-990000Y205000D01*
X-955000Y205000D02*
X-955000Y47500D01*
X-990000Y47500D01*
X-990000Y205000D01*
D16*
X-1062780Y-228056D02*
X-1067106Y-232382D01*
X-1062780Y-228056D02*
X-1062780Y-241035D01*
X-1067106Y-241035D02*
X-1058453Y-241035D01*
X-1053294Y-241035D02*
X-1044642Y-241035D01*
X-1053294Y-241035D02*
X-1044642Y-232382D01*
X-1044642Y-230219D01*
X-1046805Y-228056D01*
X-1051131Y-228056D01*
X-1053294Y-230219D01*
X-1039482Y-228056D02*
X-1039482Y-236709D01*
X-1035156Y-241035D01*
X-1030830Y-236709D01*
X-1030830Y-228056D01*
X-1025671Y-228056D02*
X-1025671Y-241035D01*
X-1019181Y-241035D01*
X-1017018Y-238872D01*
X-1017018Y-230219D01*
X-1019181Y-228056D01*
X-1025671Y-228056D01*
X-1005369Y-228056D02*
X-1003206Y-230219D01*
X-1005369Y-228056D02*
X-1009696Y-228056D01*
X-1011859Y-230219D01*
X-1011859Y-238872D01*
X-1009696Y-241035D01*
X-1005369Y-241035D01*
X-1003206Y-238872D01*
X-984235Y-232382D02*
X-979909Y-228056D01*
X-979909Y-241035D01*
X-984235Y-241035D02*
X-975583Y-241035D01*
X-970424Y-241035D02*
X-970424Y-232382D01*
X-966097Y-228056D01*
X-961771Y-232382D01*
X-961771Y-241035D01*
X-961771Y-234546D02*
X-970424Y-234546D01*
D11*
X-759492Y-169492D02*
X-759492Y-162502D01*
X-759492Y-165997D02*
X-754832Y-165997D01*
X-754832Y-162502D02*
X-754832Y-169492D01*
X-752126Y-162502D02*
X-747466Y-162502D01*
X-752126Y-162502D02*
X-752126Y-169492D01*
X-747466Y-169492D01*
X-749796Y-165997D02*
X-752126Y-165997D01*
X-744759Y-164832D02*
X-744759Y-169492D01*
X-744759Y-164832D02*
X-742429Y-162502D01*
X-740099Y-164832D01*
X-740099Y-169492D01*
X-740099Y-165997D02*
X-744759Y-165997D01*
X-735063Y-169492D02*
X-735063Y-162502D01*
X-737393Y-162502D02*
X-732733Y-162502D01*
X-726532Y-162502D02*
X-725367Y-163667D01*
X-726532Y-162502D02*
X-728862Y-162502D01*
X-730027Y-163667D01*
X-730027Y-164832D01*
X-728862Y-165997D01*
X-726532Y-165997D01*
X-725367Y-167162D01*
X-725367Y-168327D01*
X-726532Y-169492D01*
X-728862Y-169492D01*
X-730027Y-168327D01*
X-722661Y-169492D02*
X-720331Y-169492D01*
X-721496Y-169492D02*
X-721496Y-162502D01*
X-722661Y-162502D02*
X-720331Y-162502D01*
X-717750Y-162502D02*
X-717750Y-169492D01*
X-713090Y-169492D02*
X-717750Y-162502D01*
X-713090Y-162502D02*
X-713090Y-169492D01*
X-710383Y-169492D02*
X-710383Y-162502D01*
X-705724Y-162502D02*
X-710383Y-167162D01*
X-709219Y-165997D02*
X-705724Y-169492D01*
D12*
X-300872Y-332496D02*
X-300872Y-335409D01*
X-299416Y-336865D01*
X-293591Y-336865D01*
X-292135Y-335409D01*
X-292135Y-332496D01*
X-293591Y-331040D01*
X-299416Y-331040D01*
X-300872Y-332496D01*
X-300872Y-327657D02*
X-292135Y-327657D01*
X-292135Y-321832D02*
X-300872Y-327657D01*
X-300872Y-321832D02*
X-292135Y-321832D01*
D15*
X-863753Y-70762D02*
X-874238Y-70762D01*
X-867248Y-74257D02*
X-863753Y-70762D01*
X-867248Y-74257D02*
X-863753Y-77752D01*
X-874238Y-77752D01*
X-863753Y-83559D02*
X-863753Y-87054D01*
X-863753Y-83559D02*
X-865501Y-81811D01*
X-872491Y-81811D01*
X-874238Y-83559D01*
X-874238Y-87054D01*
X-872491Y-88801D01*
X-865501Y-88801D01*
X-863753Y-87054D01*
X-863753Y-98103D02*
X-865501Y-99851D01*
X-863753Y-98103D02*
X-863753Y-94608D01*
X-865501Y-92861D01*
X-867248Y-92861D01*
X-868996Y-94608D01*
X-868996Y-98103D01*
X-870743Y-99851D01*
X-872491Y-99851D01*
X-874238Y-98103D01*
X-874238Y-94608D01*
X-872491Y-92861D01*
X-874238Y-103910D02*
X-863753Y-103910D01*
X-863753Y-110900D01*
X-868996Y-107405D02*
X-868996Y-103910D01*
X-863753Y-114960D02*
X-863753Y-121950D01*
X-863753Y-114960D02*
X-874238Y-114960D01*
X-874238Y-121950D01*
X-868996Y-118455D02*
X-868996Y-114960D01*
X-874238Y-129504D02*
X-863753Y-129504D01*
X-863753Y-126009D02*
X-863753Y-132999D01*
X-867248Y-148108D02*
X-863753Y-151603D01*
X-874238Y-151603D01*
X-874238Y-148108D02*
X-874238Y-155098D01*
X-316247Y-254238D02*
X-305762Y-254238D01*
X-312752Y-250743D02*
X-316247Y-254238D01*
X-312752Y-250743D02*
X-316247Y-247248D01*
X-305762Y-247248D01*
X-316247Y-241441D02*
X-316247Y-237946D01*
X-316247Y-241441D02*
X-314499Y-243189D01*
X-307509Y-243189D01*
X-305762Y-241441D01*
X-305762Y-237946D01*
X-307509Y-236199D01*
X-314499Y-236199D01*
X-316247Y-237946D01*
X-316247Y-226897D02*
X-314499Y-225149D01*
X-316247Y-226897D02*
X-316247Y-230392D01*
X-314499Y-232139D01*
X-312752Y-232139D01*
X-311004Y-230392D01*
X-311004Y-226897D01*
X-309257Y-225149D01*
X-307509Y-225149D01*
X-305762Y-226897D01*
X-305762Y-230392D01*
X-307509Y-232139D01*
X-305762Y-221090D02*
X-316247Y-221090D01*
X-316247Y-214100D01*
X-311004Y-217595D02*
X-311004Y-221090D01*
X-316247Y-210040D02*
X-316247Y-203050D01*
X-316247Y-210040D02*
X-305762Y-210040D01*
X-305762Y-203050D01*
X-311004Y-206545D02*
X-311004Y-210040D01*
X-305762Y-195496D02*
X-316247Y-195496D01*
X-316247Y-198991D02*
X-316247Y-192001D01*
X-305762Y-176892D02*
X-305762Y-169902D01*
X-305762Y-176892D02*
X-312752Y-169902D01*
X-314499Y-169902D01*
X-316247Y-171649D01*
X-316247Y-175144D01*
X-314499Y-176892D01*
D11*
X-852502Y294492D02*
X-859492Y294492D01*
X-852502Y294492D02*
X-852502Y289832D01*
X-855997Y292162D02*
X-855997Y294492D01*
X-852502Y287126D02*
X-852502Y282466D01*
X-852502Y287126D02*
X-859492Y287126D01*
X-859492Y282466D01*
X-855997Y284796D02*
X-855997Y287126D01*
X-859492Y277429D02*
X-852502Y277429D01*
X-852502Y279759D02*
X-852502Y275099D01*
X-859492Y272393D02*
X-859492Y267733D01*
X-859492Y272393D02*
X-854832Y267733D01*
X-853667Y267733D01*
X-852502Y268898D01*
X-852502Y271228D01*
X-853667Y272393D01*
X-852502Y255331D02*
X-859492Y255331D01*
X-852502Y257661D02*
X-852502Y253001D01*
X-852502Y250294D02*
X-852502Y245634D01*
X-852502Y250294D02*
X-859492Y250294D01*
X-859492Y245634D01*
X-855997Y247964D02*
X-855997Y250294D01*
X-859492Y242928D02*
X-852502Y242928D01*
X-854832Y240598D01*
X-852502Y238268D01*
X-859492Y238268D01*
X-859492Y235562D02*
X-852502Y235562D01*
X-852502Y232067D01*
X-853667Y230902D01*
X-855997Y230902D01*
X-857162Y232067D01*
X-857162Y235562D01*
X-859492Y214492D02*
X-852502Y214492D01*
X-852502Y209832D01*
X-855997Y212162D02*
X-855997Y214492D01*
X-852502Y207126D02*
X-852502Y202466D01*
X-852502Y207126D02*
X-859492Y207126D01*
X-859492Y202466D01*
X-855997Y204796D02*
X-855997Y207126D01*
X-859492Y197429D02*
X-852502Y197429D01*
X-852502Y199759D02*
X-852502Y195099D01*
X-854832Y192393D02*
X-852502Y190063D01*
X-859492Y190063D01*
X-859492Y192393D02*
X-859492Y187733D01*
X-859492Y175331D02*
X-852502Y175331D01*
X-852502Y177661D02*
X-852502Y173001D01*
X-852502Y170294D02*
X-852502Y165634D01*
X-852502Y170294D02*
X-859492Y170294D01*
X-859492Y165634D01*
X-855997Y167964D02*
X-855997Y170294D01*
X-859492Y162928D02*
X-852502Y162928D01*
X-854832Y160598D01*
X-852502Y158268D01*
X-859492Y158268D01*
X-859492Y155562D02*
X-852502Y155562D01*
X-852502Y152067D01*
X-853667Y150902D01*
X-855997Y150902D01*
X-857162Y152067D01*
X-857162Y155562D01*
D12*
X-676321Y143882D02*
X-674865Y145338D01*
X-676321Y143882D02*
X-676321Y140969D01*
X-674865Y139513D01*
X-673409Y139513D01*
X-671953Y140969D01*
X-671953Y143882D01*
X-670496Y145338D01*
X-669040Y145338D01*
X-667584Y143882D01*
X-667584Y140969D01*
X-669040Y139513D01*
X-667584Y151633D02*
X-676321Y151633D01*
X-676321Y148721D02*
X-676321Y154546D01*
X-676321Y167137D02*
X-676321Y172962D01*
X-676321Y167137D02*
X-667584Y167137D01*
X-667584Y172962D01*
X-671953Y170049D02*
X-671953Y167137D01*
X-670496Y176344D02*
X-676321Y176344D01*
X-670496Y176344D02*
X-667584Y179257D01*
X-670496Y182169D01*
X-676321Y182169D01*
X-673409Y185552D02*
X-667584Y185552D01*
X-673409Y185552D02*
X-676321Y188465D01*
X-673409Y191377D01*
X-667584Y191377D01*
X-671953Y191377D02*
X-671953Y185552D01*
X-676321Y194760D02*
X-667584Y194760D01*
X-667584Y200585D01*
X-671953Y203968D02*
X-671953Y209793D01*
X-676321Y217544D02*
X-674865Y219001D01*
X-676321Y217544D02*
X-676321Y214632D01*
X-674865Y213176D01*
X-673409Y213176D01*
X-671953Y214632D01*
X-671953Y217544D01*
X-670496Y219001D01*
X-669040Y219001D01*
X-667584Y217544D01*
X-667584Y214632D01*
X-669040Y213176D01*
X-676321Y226752D02*
X-674865Y228209D01*
X-676321Y226752D02*
X-676321Y223840D01*
X-674865Y222384D01*
X-669040Y222384D01*
X-667584Y223840D01*
X-667584Y226752D01*
X-669040Y228209D01*
X-676321Y235960D02*
X-674865Y237416D01*
X-676321Y235960D02*
X-676321Y233048D01*
X-674865Y231591D01*
X-673409Y231591D01*
X-671953Y233048D01*
X-671953Y235960D01*
X-670496Y237416D01*
X-669040Y237416D01*
X-667584Y235960D01*
X-667584Y233048D01*
X-669040Y231591D01*
X-669040Y240799D02*
X-674865Y240799D01*
X-676321Y242256D01*
X-676321Y245168D01*
X-674865Y246624D01*
X-669040Y246624D01*
X-667584Y245168D01*
X-667584Y242256D01*
X-669040Y240799D01*
X-674865Y246624D01*
X-674865Y250007D02*
X-669040Y250007D01*
X-674865Y250007D02*
X-676321Y251463D01*
X-676321Y254376D01*
X-674865Y255832D01*
X-669040Y255832D01*
X-667584Y254376D01*
X-667584Y251463D01*
X-669040Y250007D01*
X-674865Y255832D01*
X-673409Y259215D02*
X-676321Y262127D01*
X-667584Y262127D01*
X-667584Y259215D02*
X-667584Y265040D01*
X-670496Y268423D02*
X-676321Y268423D01*
X-670496Y268423D02*
X-667584Y271335D01*
X-670496Y274248D01*
X-676321Y274248D01*
X-673409Y277631D02*
X-676321Y280543D01*
X-667584Y280543D01*
X-667584Y277631D02*
X-667584Y283456D01*
D16*
X-286160Y341495D02*
X-283997Y339332D01*
X-286160Y341495D02*
X-290486Y341495D01*
X-292650Y339332D01*
X-292650Y337169D01*
X-290486Y335006D01*
X-286160Y335006D01*
X-283997Y332842D01*
X-283997Y330679D01*
X-286160Y328516D01*
X-290486Y328516D01*
X-292650Y330679D01*
X-278838Y335006D02*
X-270185Y335006D01*
X-274511Y339332D02*
X-274511Y330679D01*
D11*
X-713327Y-104492D02*
X-714492Y-103327D01*
X-713327Y-104492D02*
X-712162Y-104492D01*
X-710997Y-103327D01*
X-710997Y-97502D01*
X-712162Y-97502D02*
X-709832Y-97502D01*
X-707126Y-97502D02*
X-707126Y-104492D01*
X-702466Y-104492D01*
X-696264Y-97502D02*
X-695099Y-98667D01*
X-696264Y-97502D02*
X-698594Y-97502D01*
X-699759Y-98667D01*
X-699759Y-103327D01*
X-698594Y-104492D01*
X-696264Y-104492D01*
X-695099Y-103327D01*
X-692393Y-103327D02*
X-691228Y-104492D01*
X-690063Y-104492D01*
X-688898Y-103327D01*
X-688898Y-97502D01*
X-690063Y-97502D02*
X-687733Y-97502D01*
X-685027Y-97502D02*
X-685027Y-104492D01*
X-680367Y-104492D01*
X-674166Y-97502D02*
X-673001Y-98667D01*
X-674166Y-97502D02*
X-676496Y-97502D01*
X-677661Y-98667D01*
X-677661Y-103327D01*
X-676496Y-104492D01*
X-674166Y-104492D01*
X-673001Y-103327D01*
X-670294Y-103327D02*
X-669129Y-104492D01*
X-667964Y-104492D01*
X-666799Y-103327D01*
X-666799Y-97502D01*
X-667964Y-97502D02*
X-665634Y-97502D01*
X-662928Y-97502D02*
X-662928Y-104492D01*
X-658268Y-104492D01*
X-652067Y-97502D02*
X-650902Y-98667D01*
X-652067Y-97502D02*
X-654397Y-97502D01*
X-655562Y-98667D01*
X-655562Y-103327D01*
X-654397Y-104492D01*
X-652067Y-104492D01*
X-650902Y-103327D01*
X-648195Y-103327D02*
X-647031Y-104492D01*
X-645866Y-104492D01*
X-644701Y-103327D01*
X-644701Y-97502D01*
X-645866Y-97502D02*
X-643536Y-97502D01*
X-640829Y-97502D02*
X-640829Y-104492D01*
X-636169Y-104492D01*
X-629968Y-97502D02*
X-628803Y-98667D01*
X-629968Y-97502D02*
X-632298Y-97502D01*
X-633463Y-98667D01*
X-633463Y-103327D01*
X-632298Y-104492D01*
X-629968Y-104492D01*
X-628803Y-103327D01*
D12*
X-197000Y-78750D02*
X-197000Y-57100D01*
X-197000Y-14900D02*
X-197000Y14900D01*
X-197000Y57100D02*
X-197000Y78750D01*
X-15000Y78750D01*
X-15000Y-78750D01*
X-197000Y-78750D01*
D17*
X-176000Y-83000D02*
X-175998Y-82937D01*
X-175992Y-82875D01*
X-175982Y-82813D01*
X-175969Y-82751D01*
X-175951Y-82691D01*
X-175930Y-82632D01*
X-175905Y-82574D01*
X-175876Y-82518D01*
X-175844Y-82464D01*
X-175809Y-82412D01*
X-175771Y-82363D01*
X-175729Y-82315D01*
X-175685Y-82271D01*
X-175637Y-82229D01*
X-175588Y-82191D01*
X-175536Y-82156D01*
X-175482Y-82124D01*
X-175426Y-82095D01*
X-175368Y-82070D01*
X-175309Y-82049D01*
X-175249Y-82031D01*
X-175187Y-82018D01*
X-175125Y-82008D01*
X-175063Y-82002D01*
X-175000Y-82000D01*
X-174937Y-82002D01*
X-174875Y-82008D01*
X-174813Y-82018D01*
X-174751Y-82031D01*
X-174691Y-82049D01*
X-174632Y-82070D01*
X-174574Y-82095D01*
X-174518Y-82124D01*
X-174464Y-82156D01*
X-174412Y-82191D01*
X-174363Y-82229D01*
X-174315Y-82271D01*
X-174271Y-82315D01*
X-174229Y-82363D01*
X-174191Y-82412D01*
X-174156Y-82464D01*
X-174124Y-82518D01*
X-174095Y-82574D01*
X-174070Y-82632D01*
X-174049Y-82691D01*
X-174031Y-82751D01*
X-174018Y-82813D01*
X-174008Y-82875D01*
X-174002Y-82937D01*
X-174000Y-83000D01*
X-174002Y-83063D01*
X-174008Y-83125D01*
X-174018Y-83187D01*
X-174031Y-83249D01*
X-174049Y-83309D01*
X-174070Y-83368D01*
X-174095Y-83426D01*
X-174124Y-83482D01*
X-174156Y-83536D01*
X-174191Y-83588D01*
X-174229Y-83637D01*
X-174271Y-83685D01*
X-174315Y-83729D01*
X-174363Y-83771D01*
X-174412Y-83809D01*
X-174464Y-83844D01*
X-174518Y-83876D01*
X-174574Y-83905D01*
X-174632Y-83930D01*
X-174691Y-83951D01*
X-174751Y-83969D01*
X-174813Y-83982D01*
X-174875Y-83992D01*
X-174937Y-83998D01*
X-175000Y-84000D01*
X-175063Y-83998D01*
X-175125Y-83992D01*
X-175187Y-83982D01*
X-175249Y-83969D01*
X-175309Y-83951D01*
X-175368Y-83930D01*
X-175426Y-83905D01*
X-175482Y-83876D01*
X-175536Y-83844D01*
X-175588Y-83809D01*
X-175637Y-83771D01*
X-175685Y-83729D01*
X-175729Y-83685D01*
X-175771Y-83637D01*
X-175809Y-83588D01*
X-175844Y-83536D01*
X-175876Y-83482D01*
X-175905Y-83426D01*
X-175930Y-83368D01*
X-175951Y-83309D01*
X-175969Y-83249D01*
X-175982Y-83187D01*
X-175992Y-83125D01*
X-175998Y-83063D01*
X-176000Y-83000D01*
D11*
X-143498Y-26922D02*
X-136508Y-22262D01*
X-136508Y-26922D02*
X-143498Y-22262D01*
X-143498Y-17226D02*
X-136508Y-17226D01*
X-143498Y-19556D02*
X-143498Y-14896D01*
X-142333Y-9860D02*
X-143498Y-7530D01*
X-142333Y-9860D02*
X-140003Y-12190D01*
X-137673Y-12190D01*
X-136508Y-11025D01*
X-136508Y-8695D01*
X-137673Y-7530D01*
X-138838Y-7530D01*
X-140003Y-8695D01*
X-140003Y-12190D01*
X-137673Y-4824D02*
X-142333Y-4824D01*
X-143498Y-3659D01*
X-143498Y-1329D01*
X-142333Y-164D01*
X-137673Y-164D01*
X-136508Y-1329D01*
X-136508Y-3659D01*
X-137673Y-4824D01*
X-142333Y-164D01*
X-143498Y2543D02*
X-136508Y2543D01*
X-143498Y2543D02*
X-143498Y6038D01*
X-142333Y7203D01*
X-140003Y7203D01*
X-138838Y6038D01*
X-138838Y2543D01*
X-136508Y9909D02*
X-143498Y9909D01*
X-138838Y12239D02*
X-136508Y9909D01*
X-138838Y12239D02*
X-136508Y14569D01*
X-143498Y14569D01*
X-140003Y17275D02*
X-140003Y21935D01*
X-136508Y24642D02*
X-143498Y24642D01*
X-143498Y29302D01*
X-140003Y26972D02*
X-140003Y24642D01*
D15*
X-389120Y290010D02*
X-789120Y290010D01*
X-389120Y290010D02*
X-389120Y-289990D01*
X-789120Y-289990D01*
X-789120Y290010D01*
D12*
X-759375Y-184748D02*
X-759375Y-192029D01*
X-757919Y-193485D01*
X-755006Y-193485D01*
X-753550Y-192029D01*
X-753550Y-184748D01*
X-745798Y-184748D02*
X-745798Y-193485D01*
X-750167Y-189116D02*
X-745798Y-184748D01*
X-744342Y-189116D02*
X-750167Y-189116D01*
D11*
X-754832Y-173667D02*
X-755997Y-172502D01*
X-758327Y-172502D01*
X-759492Y-173667D01*
X-759492Y-178327D01*
X-758327Y-179492D01*
X-755997Y-179492D01*
X-754832Y-178327D01*
X-748631Y-179492D02*
X-748631Y-172502D01*
X-752126Y-175997D01*
X-747466Y-175997D01*
X-744759Y-178327D02*
X-744759Y-173667D01*
X-743594Y-172502D01*
X-741264Y-172502D01*
X-740099Y-173667D01*
X-740099Y-178327D01*
X-741264Y-179492D01*
X-743594Y-179492D01*
X-744759Y-178327D01*
X-740099Y-173667D01*
X-737393Y-175997D02*
X-732733Y-175997D01*
X-730027Y-178327D02*
X-730027Y-173667D01*
X-728862Y-172502D01*
X-726532Y-172502D01*
X-725367Y-173667D01*
X-725367Y-178327D01*
X-726532Y-179492D01*
X-728862Y-179492D01*
X-730027Y-178327D01*
X-725367Y-173667D01*
X-722661Y-172502D02*
X-718001Y-172502D01*
X-722661Y-172502D02*
X-722661Y-175997D01*
X-720331Y-174832D01*
X-719166Y-174832D01*
X-718001Y-175997D01*
X-718001Y-178327D01*
X-719166Y-179492D01*
X-721496Y-179492D01*
X-722661Y-178327D01*
X-715294Y-173667D02*
X-714129Y-172502D01*
X-711799Y-172502D01*
X-710634Y-173667D01*
X-710634Y-174832D01*
X-711799Y-175997D01*
X-710634Y-177162D01*
X-710634Y-178327D01*
X-711799Y-179492D01*
X-714129Y-179492D01*
X-715294Y-178327D01*
X-715294Y-177162D01*
X-714129Y-175997D01*
X-715294Y-174832D01*
X-715294Y-173667D01*
X-714129Y-175997D02*
X-711799Y-175997D01*
X-707928Y-175997D02*
X-703268Y-175997D01*
X-700562Y-174832D02*
X-700562Y-179492D01*
X-700562Y-174832D02*
X-698232Y-172502D01*
X-695902Y-174832D01*
X-695902Y-179492D01*
X-695902Y-175997D02*
X-700562Y-175997D01*
X-693195Y-172502D02*
X-688536Y-172502D01*
X-693195Y-172502D02*
X-693195Y-179492D01*
X-688536Y-179492D01*
X-690866Y-175997D02*
X-693195Y-175997D01*
D14*
X-1046000Y-353000D02*
X-1046000Y-363000D01*
X-945000Y-363000D01*
X-945000Y-353000D01*
D18*
X-928000Y-261000D03*
D17*
X-927938Y-260998D01*
X-927877Y-260992D01*
X-927816Y-260983D01*
X-927756Y-260970D01*
X-927697Y-260953D01*
X-927639Y-260932D01*
X-927582Y-260908D01*
X-927527Y-260881D01*
X-927474Y-260850D01*
X-927422Y-260816D01*
X-927373Y-260779D01*
X-927326Y-260739D01*
X-927282Y-260696D01*
X-927241Y-260651D01*
X-927202Y-260603D01*
X-927166Y-260552D01*
X-927134Y-260500D01*
X-927105Y-260446D01*
X-927079Y-260390D01*
X-927057Y-260332D01*
X-927038Y-260274D01*
X-927023Y-260214D01*
X-927012Y-260153D01*
X-927004Y-260092D01*
X-927000Y-260031D01*
X-927000Y-259969D01*
X-927004Y-259908D01*
X-927012Y-259847D01*
X-927023Y-259786D01*
X-927038Y-259726D01*
X-927057Y-259668D01*
X-927079Y-259610D01*
X-927105Y-259554D01*
X-927134Y-259500D01*
X-927166Y-259448D01*
X-927202Y-259397D01*
X-927241Y-259349D01*
X-927282Y-259304D01*
X-927326Y-259261D01*
X-927373Y-259221D01*
X-927422Y-259184D01*
X-927474Y-259150D01*
X-927527Y-259119D01*
X-927582Y-259092D01*
X-927639Y-259068D01*
X-927697Y-259047D01*
X-927756Y-259030D01*
X-927816Y-259017D01*
X-927877Y-259008D01*
X-927938Y-259002D01*
X-928000Y-259000D01*
D18*
X-928000Y-259000D03*
D17*
X-928062Y-259002D01*
X-928123Y-259008D01*
X-928184Y-259017D01*
X-928244Y-259030D01*
X-928303Y-259047D01*
X-928361Y-259068D01*
X-928418Y-259092D01*
X-928473Y-259119D01*
X-928526Y-259150D01*
X-928578Y-259184D01*
X-928627Y-259221D01*
X-928674Y-259261D01*
X-928718Y-259304D01*
X-928759Y-259349D01*
X-928798Y-259397D01*
X-928834Y-259448D01*
X-928866Y-259500D01*
X-928895Y-259554D01*
X-928921Y-259610D01*
X-928943Y-259668D01*
X-928962Y-259726D01*
X-928977Y-259786D01*
X-928988Y-259847D01*
X-928996Y-259908D01*
X-929000Y-259969D01*
X-929000Y-260031D01*
X-928996Y-260092D01*
X-928988Y-260153D01*
X-928977Y-260214D01*
X-928962Y-260274D01*
X-928943Y-260332D01*
X-928921Y-260390D01*
X-928895Y-260446D01*
X-928866Y-260500D01*
X-928834Y-260552D01*
X-928798Y-260603D01*
X-928759Y-260651D01*
X-928718Y-260696D01*
X-928674Y-260739D01*
X-928627Y-260779D01*
X-928578Y-260816D01*
X-928526Y-260850D01*
X-928473Y-260881D01*
X-928418Y-260908D01*
X-928361Y-260932D01*
X-928303Y-260953D01*
X-928244Y-260970D01*
X-928184Y-260983D01*
X-928123Y-260992D01*
X-928062Y-260998D01*
X-928000Y-261000D01*
D15*
X-1006140Y-173290D02*
X-1006140Y329630D01*
X-1006060Y329970D02*
X-1191480Y329970D01*
X-1191060Y-173610D02*
X-1005640Y-173610D01*
X-1191560Y-173290D02*
X-1191560Y329630D01*
D19*
X-1064996Y219627D02*
X-1063455Y218086D01*
X-1064996Y219627D02*
X-1068078Y219627D01*
X-1069619Y218086D01*
X-1069619Y211922D01*
X-1068078Y210381D01*
X-1064996Y210381D01*
X-1063455Y211922D01*
X-1063455Y215004D01*
X-1066537Y215004D01*
X-1060411Y210381D02*
X-1060411Y219627D01*
X-1054247Y210381D01*
X-1054247Y219627D01*
X-1051203Y219627D02*
X-1051203Y210381D01*
X-1046580Y210381D01*
X-1045039Y211922D01*
X-1045039Y218086D01*
X-1046580Y219627D01*
X-1051203Y219627D01*
X-1052455Y169627D02*
X-1058619Y169627D01*
X-1058619Y165004D01*
X-1055537Y166545D01*
X-1053996Y166545D01*
X-1052455Y165004D01*
X-1052455Y161922D01*
X-1053996Y160381D01*
X-1057078Y160381D01*
X-1058619Y161922D01*
X-1049411Y163463D02*
X-1049411Y169627D01*
X-1049411Y163463D02*
X-1046329Y160381D01*
X-1043247Y163463D01*
X-1043247Y169627D01*
X-1060996Y93627D02*
X-1059455Y92086D01*
X-1060996Y93627D02*
X-1064078Y93627D01*
X-1065619Y92086D01*
X-1065619Y90545D01*
X-1064078Y89004D01*
X-1060996Y89004D01*
X-1059455Y87463D01*
X-1059455Y85922D01*
X-1060996Y84381D01*
X-1064078Y84381D01*
X-1065619Y85922D01*
X-1051788Y93627D02*
X-1050247Y92086D01*
X-1051788Y93627D02*
X-1054870Y93627D01*
X-1056411Y92086D01*
X-1056411Y85922D01*
X-1054870Y84381D01*
X-1051788Y84381D01*
X-1050247Y85922D01*
X-1047203Y84381D02*
X-1047203Y93627D01*
X-1047203Y84381D02*
X-1041039Y84381D01*
X-1061455Y66086D02*
X-1062996Y67627D01*
X-1066078Y67627D01*
X-1067619Y66086D01*
X-1067619Y64545D01*
X-1066078Y63004D01*
X-1062996Y63004D01*
X-1061455Y61463D01*
X-1061455Y59922D01*
X-1062996Y58381D01*
X-1066078Y58381D01*
X-1067619Y59922D01*
X-1058411Y58381D02*
X-1058411Y67627D01*
X-1058411Y58381D02*
X-1053788Y58381D01*
X-1052247Y59922D01*
X-1052247Y66086D01*
X-1053788Y67627D01*
X-1058411Y67627D01*
X-1049203Y64545D02*
X-1049203Y58381D01*
X-1049203Y64545D02*
X-1046121Y67627D01*
X-1043039Y64545D01*
X-1043039Y58381D01*
X-1043039Y63004D02*
X-1049203Y63004D01*
D15*
X-1139000Y330000D02*
X-1139000Y335000D01*
X-1053000Y335000D01*
X-1053000Y330000D01*
D14*
X-69600Y-178640D02*
X-39600Y-178640D01*
X-39600Y-248640D02*
X-69600Y-248640D01*
D11*
X-52273Y-219865D02*
X-51108Y-218700D01*
X-51108Y-217535D01*
X-52273Y-216370D01*
X-58098Y-216370D01*
X-58098Y-217535D02*
X-58098Y-215205D01*
X-58098Y-212498D02*
X-58098Y-207838D01*
X-58098Y-212498D02*
X-54603Y-212498D01*
X-55768Y-210168D01*
X-55768Y-209003D01*
X-54603Y-207838D01*
X-52273Y-207838D01*
X-51108Y-209003D01*
X-51108Y-211333D01*
X-52273Y-212498D01*
D14*
X-39600Y249600D02*
X-69600Y249600D01*
X-69600Y179600D02*
X-39600Y179600D01*
D11*
X-53273Y208875D02*
X-52108Y210040D01*
X-52108Y211205D01*
X-53273Y212370D01*
X-59098Y212370D01*
X-59098Y211205D02*
X-59098Y213535D01*
X-57933Y218572D02*
X-59098Y220902D01*
X-57933Y218572D02*
X-55603Y216242D01*
X-53273Y216242D01*
X-52108Y217407D01*
X-52108Y219737D01*
X-53273Y220902D01*
X-54438Y220902D01*
X-55603Y219737D01*
X-55603Y216242D01*
D12*
X-857500Y-190500D02*
X-857500Y-289500D01*
X-902500Y-289500D01*
X-902500Y-190500D01*
X-857500Y-190500D01*
D17*
X-909000Y-270000D02*
X-908998Y-269937D01*
X-908992Y-269875D01*
X-908982Y-269813D01*
X-908969Y-269751D01*
X-908951Y-269691D01*
X-908930Y-269632D01*
X-908905Y-269574D01*
X-908876Y-269518D01*
X-908844Y-269464D01*
X-908809Y-269412D01*
X-908771Y-269363D01*
X-908729Y-269315D01*
X-908685Y-269271D01*
X-908637Y-269229D01*
X-908588Y-269191D01*
X-908536Y-269156D01*
X-908482Y-269124D01*
X-908426Y-269095D01*
X-908368Y-269070D01*
X-908309Y-269049D01*
X-908249Y-269031D01*
X-908187Y-269018D01*
X-908125Y-269008D01*
X-908063Y-269002D01*
X-908000Y-269000D01*
X-907937Y-269002D01*
X-907875Y-269008D01*
X-907813Y-269018D01*
X-907751Y-269031D01*
X-907691Y-269049D01*
X-907632Y-269070D01*
X-907574Y-269095D01*
X-907518Y-269124D01*
X-907464Y-269156D01*
X-907412Y-269191D01*
X-907363Y-269229D01*
X-907315Y-269271D01*
X-907271Y-269315D01*
X-907229Y-269363D01*
X-907191Y-269412D01*
X-907156Y-269464D01*
X-907124Y-269518D01*
X-907095Y-269574D01*
X-907070Y-269632D01*
X-907049Y-269691D01*
X-907031Y-269751D01*
X-907018Y-269813D01*
X-907008Y-269875D01*
X-907002Y-269937D01*
X-907000Y-270000D01*
X-907002Y-270063D01*
X-907008Y-270125D01*
X-907018Y-270187D01*
X-907031Y-270249D01*
X-907049Y-270309D01*
X-907070Y-270368D01*
X-907095Y-270426D01*
X-907124Y-270482D01*
X-907156Y-270536D01*
X-907191Y-270588D01*
X-907229Y-270637D01*
X-907271Y-270685D01*
X-907315Y-270729D01*
X-907363Y-270771D01*
X-907412Y-270809D01*
X-907464Y-270844D01*
X-907518Y-270876D01*
X-907574Y-270905D01*
X-907632Y-270930D01*
X-907691Y-270951D01*
X-907751Y-270969D01*
X-907813Y-270982D01*
X-907875Y-270992D01*
X-907937Y-270998D01*
X-908000Y-271000D01*
X-908063Y-270998D01*
X-908125Y-270992D01*
X-908187Y-270982D01*
X-908249Y-270969D01*
X-908309Y-270951D01*
X-908368Y-270930D01*
X-908426Y-270905D01*
X-908482Y-270876D01*
X-908536Y-270844D01*
X-908588Y-270809D01*
X-908637Y-270771D01*
X-908685Y-270729D01*
X-908729Y-270685D01*
X-908771Y-270637D01*
X-908809Y-270588D01*
X-908844Y-270536D01*
X-908876Y-270482D01*
X-908905Y-270426D01*
X-908930Y-270368D01*
X-908951Y-270309D01*
X-908969Y-270249D01*
X-908982Y-270187D01*
X-908992Y-270125D01*
X-908998Y-270063D01*
X-909000Y-270000D01*
D11*
X-870498Y-231591D02*
X-863508Y-231591D01*
X-870498Y-231591D02*
X-870498Y-226931D01*
X-867003Y-229261D02*
X-867003Y-231591D01*
X-868168Y-224225D02*
X-863508Y-224225D01*
X-868168Y-224225D02*
X-870498Y-221895D01*
X-868168Y-219565D01*
X-863508Y-219565D01*
X-867003Y-219565D02*
X-867003Y-224225D01*
X-863508Y-216858D02*
X-870498Y-216858D01*
X-863508Y-212198D01*
X-870498Y-212198D01*
D12*
X-842550Y-70000D02*
X-789450Y-70000D01*
X-842550Y-70000D02*
X-842550Y-270000D01*
X-789450Y-270000D01*
X-789450Y-70000D01*
D20*
X-807110Y-78560D02*
X-807108Y-78437D01*
X-807102Y-78313D01*
X-807092Y-78190D01*
X-807078Y-78068D01*
X-807060Y-77946D01*
X-807038Y-77824D01*
X-807013Y-77704D01*
X-806983Y-77584D01*
X-806949Y-77465D01*
X-806912Y-77347D01*
X-806871Y-77231D01*
X-806826Y-77116D01*
X-806777Y-77003D01*
X-806725Y-76891D01*
X-806669Y-76781D01*
X-806610Y-76673D01*
X-806547Y-76567D01*
X-806481Y-76463D01*
X-806411Y-76361D01*
X-806338Y-76261D01*
X-806262Y-76164D01*
X-806183Y-76069D01*
X-806101Y-75977D01*
X-806016Y-75888D01*
X-805928Y-75801D01*
X-805837Y-75718D01*
X-805744Y-75637D01*
X-805648Y-75559D01*
X-805549Y-75485D01*
X-805449Y-75414D01*
X-805346Y-75346D01*
X-805241Y-75281D01*
X-805133Y-75220D01*
X-805024Y-75162D01*
X-804913Y-75108D01*
X-804801Y-75058D01*
X-804686Y-75011D01*
X-804571Y-74968D01*
X-804454Y-74929D01*
X-804336Y-74893D01*
X-804216Y-74862D01*
X-804096Y-74834D01*
X-803975Y-74810D01*
X-803853Y-74790D01*
X-803731Y-74774D01*
X-803608Y-74762D01*
X-803485Y-74754D01*
X-803362Y-74750D01*
X-803238Y-74750D01*
X-803115Y-74754D01*
X-802992Y-74762D01*
X-802869Y-74774D01*
X-802747Y-74790D01*
X-802625Y-74810D01*
X-802504Y-74834D01*
X-802384Y-74862D01*
X-802264Y-74893D01*
X-802146Y-74929D01*
X-802029Y-74968D01*
X-801914Y-75011D01*
X-801799Y-75058D01*
X-801687Y-75108D01*
X-801576Y-75162D01*
X-801467Y-75220D01*
X-801359Y-75281D01*
X-801254Y-75346D01*
X-801151Y-75414D01*
X-801051Y-75485D01*
X-800952Y-75559D01*
X-800856Y-75637D01*
X-800763Y-75718D01*
X-800672Y-75801D01*
X-800584Y-75888D01*
X-800499Y-75977D01*
X-800417Y-76069D01*
X-800338Y-76164D01*
X-800262Y-76261D01*
X-800189Y-76361D01*
X-800119Y-76463D01*
X-800053Y-76567D01*
X-799990Y-76673D01*
X-799931Y-76781D01*
X-799875Y-76891D01*
X-799823Y-77003D01*
X-799774Y-77116D01*
X-799729Y-77231D01*
X-799688Y-77347D01*
X-799651Y-77465D01*
X-799617Y-77584D01*
X-799587Y-77704D01*
X-799562Y-77824D01*
X-799540Y-77946D01*
X-799522Y-78068D01*
X-799508Y-78190D01*
X-799498Y-78313D01*
X-799492Y-78437D01*
X-799490Y-78560D01*
X-799492Y-78683D01*
X-799498Y-78807D01*
X-799508Y-78930D01*
X-799522Y-79052D01*
X-799540Y-79174D01*
X-799562Y-79296D01*
X-799587Y-79416D01*
X-799617Y-79536D01*
X-799651Y-79655D01*
X-799688Y-79773D01*
X-799729Y-79889D01*
X-799774Y-80004D01*
X-799823Y-80117D01*
X-799875Y-80229D01*
X-799931Y-80339D01*
X-799990Y-80447D01*
X-800053Y-80553D01*
X-800119Y-80657D01*
X-800189Y-80759D01*
X-800262Y-80859D01*
X-800338Y-80956D01*
X-800417Y-81051D01*
X-800499Y-81143D01*
X-800584Y-81232D01*
X-800672Y-81319D01*
X-800763Y-81402D01*
X-800856Y-81483D01*
X-800952Y-81561D01*
X-801051Y-81635D01*
X-801151Y-81706D01*
X-801254Y-81774D01*
X-801359Y-81839D01*
X-801467Y-81900D01*
X-801576Y-81958D01*
X-801687Y-82012D01*
X-801799Y-82062D01*
X-801914Y-82109D01*
X-802029Y-82152D01*
X-802146Y-82191D01*
X-802264Y-82227D01*
X-802384Y-82258D01*
X-802504Y-82286D01*
X-802625Y-82310D01*
X-802747Y-82330D01*
X-802869Y-82346D01*
X-802992Y-82358D01*
X-803115Y-82366D01*
X-803238Y-82370D01*
X-803362Y-82370D01*
X-803485Y-82366D01*
X-803608Y-82358D01*
X-803731Y-82346D01*
X-803853Y-82330D01*
X-803975Y-82310D01*
X-804096Y-82286D01*
X-804216Y-82258D01*
X-804336Y-82227D01*
X-804454Y-82191D01*
X-804571Y-82152D01*
X-804686Y-82109D01*
X-804801Y-82062D01*
X-804913Y-82012D01*
X-805024Y-81958D01*
X-805133Y-81900D01*
X-805241Y-81839D01*
X-805346Y-81774D01*
X-805449Y-81706D01*
X-805549Y-81635D01*
X-805648Y-81561D01*
X-805744Y-81483D01*
X-805837Y-81402D01*
X-805928Y-81319D01*
X-806016Y-81232D01*
X-806101Y-81143D01*
X-806183Y-81051D01*
X-806262Y-80956D01*
X-806338Y-80859D01*
X-806411Y-80759D01*
X-806481Y-80657D01*
X-806547Y-80553D01*
X-806610Y-80447D01*
X-806669Y-80339D01*
X-806725Y-80229D01*
X-806777Y-80117D01*
X-806826Y-80004D01*
X-806871Y-79889D01*
X-806912Y-79773D01*
X-806949Y-79655D01*
X-806983Y-79536D01*
X-807013Y-79416D01*
X-807038Y-79296D01*
X-807060Y-79174D01*
X-807078Y-79052D01*
X-807092Y-78930D01*
X-807102Y-78807D01*
X-807108Y-78683D01*
X-807110Y-78560D01*
D11*
X-781191Y-177941D02*
X-776531Y-177941D01*
X-781191Y-177941D02*
X-782356Y-176776D01*
X-782356Y-174446D01*
X-781191Y-173281D01*
X-776531Y-173281D01*
X-775366Y-174446D01*
X-775366Y-176776D01*
X-776531Y-177941D01*
X-777696Y-175611D02*
X-775366Y-173281D01*
X-775366Y-170575D02*
X-775366Y-165915D01*
X-775366Y-170575D02*
X-780026Y-165915D01*
X-781191Y-165915D01*
X-782356Y-167080D01*
X-782356Y-169410D01*
X-781191Y-170575D01*
D12*
X-388550Y-270000D02*
X-335450Y-270000D01*
X-335450Y-70000D01*
X-388550Y-70000D01*
X-388550Y-270000D01*
D20*
X-378510Y-261440D02*
X-378508Y-261317D01*
X-378502Y-261193D01*
X-378492Y-261070D01*
X-378478Y-260948D01*
X-378460Y-260826D01*
X-378438Y-260704D01*
X-378413Y-260584D01*
X-378383Y-260464D01*
X-378349Y-260345D01*
X-378312Y-260227D01*
X-378271Y-260111D01*
X-378226Y-259996D01*
X-378177Y-259883D01*
X-378125Y-259771D01*
X-378069Y-259661D01*
X-378010Y-259553D01*
X-377947Y-259447D01*
X-377881Y-259343D01*
X-377811Y-259241D01*
X-377738Y-259141D01*
X-377662Y-259044D01*
X-377583Y-258949D01*
X-377501Y-258857D01*
X-377416Y-258768D01*
X-377328Y-258681D01*
X-377237Y-258598D01*
X-377144Y-258517D01*
X-377048Y-258439D01*
X-376949Y-258365D01*
X-376849Y-258294D01*
X-376746Y-258226D01*
X-376641Y-258161D01*
X-376533Y-258100D01*
X-376424Y-258042D01*
X-376313Y-257988D01*
X-376201Y-257938D01*
X-376086Y-257891D01*
X-375971Y-257848D01*
X-375854Y-257809D01*
X-375736Y-257773D01*
X-375616Y-257742D01*
X-375496Y-257714D01*
X-375375Y-257690D01*
X-375253Y-257670D01*
X-375131Y-257654D01*
X-375008Y-257642D01*
X-374885Y-257634D01*
X-374762Y-257630D01*
X-374638Y-257630D01*
X-374515Y-257634D01*
X-374392Y-257642D01*
X-374269Y-257654D01*
X-374147Y-257670D01*
X-374025Y-257690D01*
X-373904Y-257714D01*
X-373784Y-257742D01*
X-373664Y-257773D01*
X-373546Y-257809D01*
X-373429Y-257848D01*
X-373314Y-257891D01*
X-373199Y-257938D01*
X-373087Y-257988D01*
X-372976Y-258042D01*
X-372867Y-258100D01*
X-372759Y-258161D01*
X-372654Y-258226D01*
X-372551Y-258294D01*
X-372451Y-258365D01*
X-372352Y-258439D01*
X-372256Y-258517D01*
X-372163Y-258598D01*
X-372072Y-258681D01*
X-371984Y-258768D01*
X-371899Y-258857D01*
X-371817Y-258949D01*
X-371738Y-259044D01*
X-371662Y-259141D01*
X-371589Y-259241D01*
X-371519Y-259343D01*
X-371453Y-259447D01*
X-371390Y-259553D01*
X-371331Y-259661D01*
X-371275Y-259771D01*
X-371223Y-259883D01*
X-371174Y-259996D01*
X-371129Y-260111D01*
X-371088Y-260227D01*
X-371051Y-260345D01*
X-371017Y-260464D01*
X-370987Y-260584D01*
X-370962Y-260704D01*
X-370940Y-260826D01*
X-370922Y-260948D01*
X-370908Y-261070D01*
X-370898Y-261193D01*
X-370892Y-261317D01*
X-370890Y-261440D01*
X-370892Y-261563D01*
X-370898Y-261687D01*
X-370908Y-261810D01*
X-370922Y-261932D01*
X-370940Y-262054D01*
X-370962Y-262176D01*
X-370987Y-262296D01*
X-371017Y-262416D01*
X-371051Y-262535D01*
X-371088Y-262653D01*
X-371129Y-262769D01*
X-371174Y-262884D01*
X-371223Y-262997D01*
X-371275Y-263109D01*
X-371331Y-263219D01*
X-371390Y-263327D01*
X-371453Y-263433D01*
X-371519Y-263537D01*
X-371589Y-263639D01*
X-371662Y-263739D01*
X-371738Y-263836D01*
X-371817Y-263931D01*
X-371899Y-264023D01*
X-371984Y-264112D01*
X-372072Y-264199D01*
X-372163Y-264282D01*
X-372256Y-264363D01*
X-372352Y-264441D01*
X-372451Y-264515D01*
X-372551Y-264586D01*
X-372654Y-264654D01*
X-372759Y-264719D01*
X-372867Y-264780D01*
X-372976Y-264838D01*
X-373087Y-264892D01*
X-373199Y-264942D01*
X-373314Y-264989D01*
X-373429Y-265032D01*
X-373546Y-265071D01*
X-373664Y-265107D01*
X-373784Y-265138D01*
X-373904Y-265166D01*
X-374025Y-265190D01*
X-374147Y-265210D01*
X-374269Y-265226D01*
X-374392Y-265238D01*
X-374515Y-265246D01*
X-374638Y-265250D01*
X-374762Y-265250D01*
X-374885Y-265246D01*
X-375008Y-265238D01*
X-375131Y-265226D01*
X-375253Y-265210D01*
X-375375Y-265190D01*
X-375496Y-265166D01*
X-375616Y-265138D01*
X-375736Y-265107D01*
X-375854Y-265071D01*
X-375971Y-265032D01*
X-376086Y-264989D01*
X-376201Y-264942D01*
X-376313Y-264892D01*
X-376424Y-264838D01*
X-376533Y-264780D01*
X-376641Y-264719D01*
X-376746Y-264654D01*
X-376849Y-264586D01*
X-376949Y-264515D01*
X-377048Y-264441D01*
X-377144Y-264363D01*
X-377237Y-264282D01*
X-377328Y-264199D01*
X-377416Y-264112D01*
X-377501Y-264023D01*
X-377583Y-263931D01*
X-377662Y-263836D01*
X-377738Y-263739D01*
X-377811Y-263639D01*
X-377881Y-263537D01*
X-377947Y-263433D01*
X-378010Y-263327D01*
X-378069Y-263219D01*
X-378125Y-263109D01*
X-378177Y-262997D01*
X-378226Y-262884D01*
X-378271Y-262769D01*
X-378312Y-262653D01*
X-378349Y-262535D01*
X-378383Y-262416D01*
X-378413Y-262296D01*
X-378438Y-262176D01*
X-378460Y-262054D01*
X-378478Y-261932D01*
X-378492Y-261810D01*
X-378502Y-261687D01*
X-378508Y-261563D01*
X-378510Y-261440D01*
D11*
X-396531Y-178208D02*
X-401191Y-178208D01*
X-402356Y-177043D01*
X-402356Y-174713D01*
X-401191Y-173548D01*
X-396531Y-173548D01*
X-395366Y-174713D01*
X-395366Y-177043D01*
X-396531Y-178208D01*
X-397696Y-175878D02*
X-395366Y-173548D01*
X-401191Y-170842D02*
X-402356Y-169677D01*
X-402356Y-167347D01*
X-401191Y-166182D01*
X-400026Y-166182D01*
X-398861Y-167347D01*
X-398861Y-168512D01*
X-398861Y-167347D02*
X-397696Y-166182D01*
X-396531Y-166182D01*
X-395366Y-167347D01*
X-395366Y-169677D01*
X-396531Y-170842D01*
D14*
X-343650Y-285000D02*
X-343650Y-295000D01*
X-381750Y-295000D01*
X-381750Y-285000D01*
D11*
X-403292Y-307327D02*
X-402127Y-308492D01*
X-400962Y-308492D01*
X-399797Y-307327D01*
X-399797Y-301502D01*
X-400962Y-301502D02*
X-398632Y-301502D01*
X-395926Y-301502D02*
X-391266Y-301502D01*
X-391266Y-302667D01*
X-395926Y-307327D01*
X-395926Y-308492D01*
D14*
X-252000Y87500D02*
X-252000Y172500D01*
X0Y172500D01*
X0Y87500D01*
X-252000Y87500D01*
D18*
X-168000Y79000D03*
D17*
X-167956Y79002D01*
X-167913Y79008D01*
X-167871Y79017D01*
X-167829Y79030D01*
X-167789Y79047D01*
X-167750Y79067D01*
X-167713Y79090D01*
X-167679Y79117D01*
X-167646Y79146D01*
X-167617Y79179D01*
X-167590Y79213D01*
X-167567Y79250D01*
X-167547Y79289D01*
X-167530Y79329D01*
X-167517Y79371D01*
X-167508Y79413D01*
X-167502Y79456D01*
X-167500Y79500D01*
X-167502Y79544D01*
X-167508Y79587D01*
X-167517Y79629D01*
X-167530Y79671D01*
X-167547Y79711D01*
X-167567Y79750D01*
X-167590Y79787D01*
X-167617Y79821D01*
X-167646Y79854D01*
X-167679Y79883D01*
X-167713Y79910D01*
X-167750Y79933D01*
X-167789Y79953D01*
X-167829Y79970D01*
X-167871Y79983D01*
X-167913Y79992D01*
X-167956Y79998D01*
X-168000Y80000D01*
D18*
X-168000Y80000D03*
D17*
X-168044Y79998D01*
X-168087Y79992D01*
X-168129Y79983D01*
X-168171Y79970D01*
X-168211Y79953D01*
X-168250Y79933D01*
X-168287Y79910D01*
X-168321Y79883D01*
X-168354Y79854D01*
X-168383Y79821D01*
X-168410Y79787D01*
X-168433Y79750D01*
X-168453Y79711D01*
X-168470Y79671D01*
X-168483Y79629D01*
X-168492Y79587D01*
X-168498Y79544D01*
X-168500Y79500D01*
X-168498Y79456D01*
X-168492Y79413D01*
X-168483Y79371D01*
X-168470Y79329D01*
X-168453Y79289D01*
X-168433Y79250D01*
X-168410Y79213D01*
X-168383Y79179D01*
X-168354Y79146D01*
X-168321Y79117D01*
X-168287Y79090D01*
X-168250Y79067D01*
X-168211Y79047D01*
X-168171Y79030D01*
X-168129Y79017D01*
X-168087Y79008D01*
X-168044Y79002D01*
X-168000Y79000D01*
D18*
X-168000Y79000D03*
D17*
X-167956Y79002D01*
X-167913Y79008D01*
X-167871Y79017D01*
X-167829Y79030D01*
X-167789Y79047D01*
X-167750Y79067D01*
X-167713Y79090D01*
X-167679Y79117D01*
X-167646Y79146D01*
X-167617Y79179D01*
X-167590Y79213D01*
X-167567Y79250D01*
X-167547Y79289D01*
X-167530Y79329D01*
X-167517Y79371D01*
X-167508Y79413D01*
X-167502Y79456D01*
X-167500Y79500D01*
X-167502Y79544D01*
X-167508Y79587D01*
X-167517Y79629D01*
X-167530Y79671D01*
X-167547Y79711D01*
X-167567Y79750D01*
X-167590Y79787D01*
X-167617Y79821D01*
X-167646Y79854D01*
X-167679Y79883D01*
X-167713Y79910D01*
X-167750Y79933D01*
X-167789Y79953D01*
X-167829Y79970D01*
X-167871Y79983D01*
X-167913Y79992D01*
X-167956Y79998D01*
X-168000Y80000D01*
D11*
X-148327Y126508D02*
X-149492Y127673D01*
X-148327Y126508D02*
X-147162Y126508D01*
X-145997Y127673D01*
X-145997Y133498D01*
X-147162Y133498D02*
X-144832Y133498D01*
X-142126Y132333D02*
X-140961Y133498D01*
X-138631Y133498D01*
X-137466Y132333D01*
X-137466Y131168D01*
X-138631Y130003D01*
X-137466Y128838D01*
X-137466Y127673D01*
X-138631Y126508D01*
X-140961Y126508D01*
X-142126Y127673D01*
X-142126Y128838D01*
X-140961Y130003D01*
X-142126Y131168D01*
X-142126Y132333D01*
X-140961Y130003D02*
X-138631Y130003D01*
X-132492Y131168D02*
X-130162Y133498D01*
X-130162Y126508D01*
X-132492Y126508D02*
X-127832Y126508D01*
X-125126Y133498D02*
X-120466Y133498D01*
X-120466Y132333D01*
X-125126Y127673D01*
X-125126Y126508D01*
X-117759Y127673D02*
X-116594Y126508D01*
X-114264Y126508D01*
X-113099Y127673D01*
X-113099Y132333D01*
X-114264Y133498D01*
X-116594Y133498D01*
X-117759Y132333D01*
X-117759Y131168D01*
X-116594Y130003D01*
X-113099Y130003D01*
X-110393Y126508D02*
X-105733Y126508D01*
X-110393Y126508D02*
X-105733Y131168D01*
X-105733Y132333D01*
X-106898Y133498D01*
X-109228Y133498D01*
X-110393Y132333D01*
X-103027Y126508D02*
X-98367Y126508D01*
X-103027Y126508D02*
X-98367Y131168D01*
X-98367Y132333D01*
X-99532Y133498D01*
X-101862Y133498D01*
X-103027Y132333D01*
X-95661Y131168D02*
X-93331Y133498D01*
X-93331Y126508D01*
X-95661Y126508D02*
X-91001Y126508D01*
X-85964Y132333D02*
X-83634Y133498D01*
X-85964Y132333D02*
X-88294Y130003D01*
X-88294Y127673D01*
X-87129Y126508D01*
X-84799Y126508D01*
X-83634Y127673D01*
X-83634Y128838D01*
X-84799Y130003D01*
X-88294Y130003D01*
D14*
X-252000Y-87500D02*
X-252000Y-172500D01*
X-252000Y-87500D02*
X0Y-87500D01*
X0Y-172500D01*
X-252000Y-172500D01*
D18*
X-168000Y-181000D03*
D17*
X-167956Y-180998D01*
X-167913Y-180992D01*
X-167871Y-180983D01*
X-167829Y-180970D01*
X-167789Y-180953D01*
X-167750Y-180933D01*
X-167713Y-180910D01*
X-167679Y-180883D01*
X-167646Y-180854D01*
X-167617Y-180821D01*
X-167590Y-180787D01*
X-167567Y-180750D01*
X-167547Y-180711D01*
X-167530Y-180671D01*
X-167517Y-180629D01*
X-167508Y-180587D01*
X-167502Y-180544D01*
X-167500Y-180500D01*
X-167502Y-180456D01*
X-167508Y-180413D01*
X-167517Y-180371D01*
X-167530Y-180329D01*
X-167547Y-180289D01*
X-167567Y-180250D01*
X-167590Y-180213D01*
X-167617Y-180179D01*
X-167646Y-180146D01*
X-167679Y-180117D01*
X-167713Y-180090D01*
X-167750Y-180067D01*
X-167789Y-180047D01*
X-167829Y-180030D01*
X-167871Y-180017D01*
X-167913Y-180008D01*
X-167956Y-180002D01*
X-168000Y-180000D01*
D18*
X-168000Y-180000D03*
D17*
X-168044Y-180002D01*
X-168087Y-180008D01*
X-168129Y-180017D01*
X-168171Y-180030D01*
X-168211Y-180047D01*
X-168250Y-180067D01*
X-168287Y-180090D01*
X-168321Y-180117D01*
X-168354Y-180146D01*
X-168383Y-180179D01*
X-168410Y-180213D01*
X-168433Y-180250D01*
X-168453Y-180289D01*
X-168470Y-180329D01*
X-168483Y-180371D01*
X-168492Y-180413D01*
X-168498Y-180456D01*
X-168500Y-180500D01*
X-168498Y-180544D01*
X-168492Y-180587D01*
X-168483Y-180629D01*
X-168470Y-180671D01*
X-168453Y-180711D01*
X-168433Y-180750D01*
X-168410Y-180787D01*
X-168383Y-180821D01*
X-168354Y-180854D01*
X-168321Y-180883D01*
X-168287Y-180910D01*
X-168250Y-180933D01*
X-168211Y-180953D01*
X-168171Y-180970D01*
X-168129Y-180983D01*
X-168087Y-180992D01*
X-168044Y-180998D01*
X-168000Y-181000D01*
D18*
X-168000Y-181000D03*
D17*
X-167956Y-180998D01*
X-167913Y-180992D01*
X-167871Y-180983D01*
X-167829Y-180970D01*
X-167789Y-180953D01*
X-167750Y-180933D01*
X-167713Y-180910D01*
X-167679Y-180883D01*
X-167646Y-180854D01*
X-167617Y-180821D01*
X-167590Y-180787D01*
X-167567Y-180750D01*
X-167547Y-180711D01*
X-167530Y-180671D01*
X-167517Y-180629D01*
X-167508Y-180587D01*
X-167502Y-180544D01*
X-167500Y-180500D01*
X-167502Y-180456D01*
X-167508Y-180413D01*
X-167517Y-180371D01*
X-167530Y-180329D01*
X-167547Y-180289D01*
X-167567Y-180250D01*
X-167590Y-180213D01*
X-167617Y-180179D01*
X-167646Y-180146D01*
X-167679Y-180117D01*
X-167713Y-180090D01*
X-167750Y-180067D01*
X-167789Y-180047D01*
X-167829Y-180030D01*
X-167871Y-180017D01*
X-167913Y-180008D01*
X-167956Y-180002D01*
X-168000Y-180000D01*
D11*
X-148327Y-132492D02*
X-149492Y-131327D01*
X-148327Y-132492D02*
X-147162Y-132492D01*
X-145997Y-131327D01*
X-145997Y-125502D01*
X-147162Y-125502D02*
X-144832Y-125502D01*
X-142126Y-131327D02*
X-140961Y-132492D01*
X-138631Y-132492D01*
X-137466Y-131327D01*
X-137466Y-126667D01*
X-138631Y-125502D01*
X-140961Y-125502D01*
X-142126Y-126667D01*
X-142126Y-127832D01*
X-140961Y-128997D01*
X-137466Y-128997D01*
X-131492Y-127832D02*
X-129162Y-125502D01*
X-129162Y-132492D01*
X-131492Y-132492D02*
X-126832Y-132492D01*
X-124126Y-125502D02*
X-119466Y-125502D01*
X-119466Y-126667D01*
X-124126Y-131327D01*
X-124126Y-132492D01*
X-116759Y-131327D02*
X-115594Y-132492D01*
X-113264Y-132492D01*
X-112099Y-131327D01*
X-112099Y-126667D01*
X-113264Y-125502D01*
X-115594Y-125502D01*
X-116759Y-126667D01*
X-116759Y-127832D01*
X-115594Y-128997D01*
X-112099Y-128997D01*
X-109393Y-132492D02*
X-104733Y-132492D01*
X-109393Y-132492D02*
X-104733Y-127832D01*
X-104733Y-126667D01*
X-105898Y-125502D01*
X-108228Y-125502D01*
X-109393Y-126667D01*
X-102027Y-132492D02*
X-97367Y-132492D01*
X-102027Y-132492D02*
X-97367Y-127832D01*
X-97367Y-126667D01*
X-98532Y-125502D01*
X-100862Y-125502D01*
X-102027Y-126667D01*
X-94661Y-127832D02*
X-92331Y-125502D01*
X-92331Y-132492D01*
X-94661Y-132492D02*
X-90001Y-132492D01*
X-84964Y-126667D02*
X-82634Y-125502D01*
X-84964Y-126667D02*
X-87294Y-128997D01*
X-87294Y-131327D01*
X-86129Y-132492D01*
X-83799Y-132492D01*
X-82634Y-131327D01*
X-82634Y-130162D01*
X-83799Y-128997D01*
X-87294Y-128997D01*
D17*
X-927000Y344500D02*
X-959000Y344500D01*
X-959000Y315500D02*
X-927000Y315500D01*
X-969720Y337880D02*
X-969718Y337917D01*
X-969712Y337953D01*
X-969702Y337989D01*
X-969689Y338023D01*
X-969671Y338055D01*
X-969651Y338086D01*
X-969627Y338114D01*
X-969600Y338139D01*
X-969571Y338161D01*
X-969539Y338180D01*
X-969506Y338196D01*
X-969471Y338208D01*
X-969435Y338216D01*
X-969398Y338220D01*
X-969362Y338220D01*
X-969325Y338216D01*
X-969289Y338208D01*
X-969254Y338196D01*
X-969221Y338180D01*
X-969189Y338161D01*
X-969160Y338139D01*
X-969133Y338114D01*
X-969109Y338086D01*
X-969089Y338055D01*
X-969071Y338023D01*
X-969058Y337989D01*
X-969048Y337953D01*
X-969042Y337917D01*
X-969040Y337880D01*
X-969042Y337843D01*
X-969048Y337807D01*
X-969058Y337771D01*
X-969071Y337737D01*
X-969089Y337705D01*
X-969109Y337674D01*
X-969133Y337646D01*
X-969160Y337621D01*
X-969189Y337599D01*
X-969221Y337580D01*
X-969254Y337564D01*
X-969289Y337552D01*
X-969325Y337544D01*
X-969362Y337540D01*
X-969398Y337540D01*
X-969435Y337544D01*
X-969471Y337552D01*
X-969506Y337564D01*
X-969539Y337580D01*
X-969571Y337599D01*
X-969600Y337621D01*
X-969627Y337646D01*
X-969651Y337674D01*
X-969671Y337705D01*
X-969689Y337737D01*
X-969702Y337771D01*
X-969712Y337807D01*
X-969718Y337843D01*
X-969720Y337880D01*
D11*
X-958603Y310601D02*
X-958603Y303611D01*
X-953943Y303611D01*
X-951236Y303611D02*
X-951236Y310601D01*
X-951236Y303611D02*
X-947741Y303611D01*
X-946576Y304776D01*
X-946576Y309436D01*
X-947741Y310601D01*
X-951236Y310601D01*
X-943870Y310601D02*
X-939210Y310601D01*
X-943870Y310601D02*
X-943870Y307106D01*
X-941540Y308271D01*
X-940375Y308271D01*
X-939210Y307106D01*
X-939210Y304776D01*
X-940375Y303611D01*
X-942705Y303611D01*
X-943870Y304776D01*
D16*
X-913542Y331110D02*
X-876458Y331110D01*
X-913542Y331110D02*
X-913542Y348890D01*
X-876458Y348890D01*
X-876458Y331110D01*
D11*
X-871718Y331709D02*
X-864728Y331709D01*
X-871718Y331709D02*
X-871718Y335204D01*
X-870553Y336369D01*
X-868223Y336369D01*
X-867058Y335204D01*
X-867058Y331709D01*
X-867058Y334039D02*
X-864728Y336369D01*
X-869388Y339075D02*
X-871718Y341405D01*
X-864728Y341405D01*
X-864728Y339075D02*
X-864728Y343735D01*
X-870553Y346442D02*
X-871718Y347607D01*
X-871718Y349937D01*
X-870553Y351102D01*
X-869388Y351102D01*
X-868223Y349937D01*
X-868223Y348772D01*
X-868223Y349937D02*
X-867058Y351102D01*
X-865893Y351102D01*
X-864728Y349937D01*
X-864728Y347607D01*
X-865893Y346442D01*
D16*
X-876458Y311110D02*
X-913542Y311110D01*
X-913542Y328890D01*
X-876458Y328890D01*
X-876458Y311110D01*
D11*
X-902392Y307868D02*
X-902392Y300878D01*
X-902392Y307868D02*
X-898897Y307868D01*
X-897732Y306703D01*
X-897732Y304373D01*
X-898897Y303208D01*
X-902392Y303208D01*
X-900062Y303208D02*
X-897732Y300878D01*
X-895026Y305538D02*
X-892696Y307868D01*
X-892696Y300878D01*
X-895026Y300878D02*
X-890366Y300878D01*
X-887659Y307868D02*
X-882999Y307868D01*
X-882999Y306703D01*
X-887659Y302043D01*
X-887659Y300878D01*
D14*
X-837430Y78740D02*
X-837430Y-27940D01*
X-837430Y78740D02*
X-789170Y78740D01*
X-789170Y-27940D01*
X-837430Y-27940D01*
D11*
X-829498Y17409D02*
X-822508Y17409D01*
X-829498Y17409D02*
X-829498Y20904D01*
X-828333Y22069D01*
X-826003Y22069D01*
X-824838Y20904D01*
X-824838Y17409D01*
X-824838Y19739D02*
X-822508Y22069D01*
X-822508Y27105D02*
X-829498Y27105D01*
X-829498Y24775D02*
X-829498Y29435D01*
X-827168Y32142D02*
X-829498Y34472D01*
X-822508Y34472D01*
X-822508Y32142D02*
X-822508Y36802D01*
X-799498Y-3092D02*
X-792508Y-3092D01*
X-799498Y-5422D02*
X-799498Y-762D01*
X-799498Y3109D02*
X-799498Y5439D01*
X-799498Y3109D02*
X-798333Y1944D01*
X-793673Y1944D01*
X-792508Y3109D01*
X-792508Y5439D01*
X-793673Y6604D01*
X-798333Y6604D01*
X-799498Y5439D01*
X-797168Y9310D02*
X-799498Y11640D01*
X-792508Y11640D01*
X-792508Y9310D02*
X-792508Y13970D01*
X-793673Y16677D02*
X-798333Y16677D01*
X-799498Y17841D01*
X-799498Y20171D01*
X-798333Y21336D01*
X-793673Y21336D01*
X-792508Y20171D01*
X-792508Y17841D01*
X-793673Y16677D01*
X-798333Y21336D01*
X-798333Y24043D02*
X-799498Y25208D01*
X-799498Y27538D01*
X-798333Y28703D01*
X-797168Y28703D01*
X-796003Y27538D01*
X-796003Y26373D01*
X-796003Y27538D02*
X-794838Y28703D01*
X-793673Y28703D01*
X-792508Y27538D01*
X-792508Y25208D01*
X-793673Y24043D01*
X-793673Y31409D02*
X-792508Y32574D01*
X-792508Y33739D01*
X-793673Y34904D01*
X-799498Y34904D01*
X-799498Y33739D02*
X-799498Y36069D01*
X-792508Y38775D02*
X-792508Y43435D01*
X-792508Y38775D02*
X-797168Y43435D01*
X-798333Y43435D01*
X-799498Y42270D01*
X-799498Y39940D01*
X-798333Y38775D01*
X-799498Y46142D02*
X-792508Y46142D01*
X-799498Y46142D02*
X-799498Y50802D01*
X-796003Y48472D02*
X-796003Y46142D01*
D21*
X-946500Y167000D03*
X-934500Y167000D03*
D22*
X-940500Y167000D03*
D11*
X-929698Y157209D02*
X-922708Y157209D01*
X-922708Y161869D01*
X-922708Y164575D02*
X-929698Y164575D01*
X-922708Y164575D02*
X-922708Y168070D01*
X-923873Y169235D01*
X-928533Y169235D01*
X-929698Y168070D01*
X-929698Y164575D01*
X-927368Y171942D02*
X-929698Y174272D01*
X-922708Y174272D01*
X-922708Y171942D02*
X-922708Y176602D01*
D16*
X-931610Y144042D02*
X-931610Y106958D01*
X-949390Y106958D01*
X-949390Y144042D01*
X-931610Y144042D01*
D11*
X-927298Y119189D02*
X-920308Y119189D01*
X-927298Y119189D02*
X-927298Y122684D01*
X-926133Y123849D01*
X-923803Y123849D01*
X-922638Y122684D01*
X-922638Y119189D01*
X-922638Y121519D02*
X-920308Y123849D01*
X-920308Y126555D02*
X-920308Y131215D01*
X-920308Y126555D02*
X-924968Y131215D01*
X-926133Y131215D01*
X-927298Y130050D01*
X-927298Y127720D01*
X-926133Y126555D01*
X-926133Y133922D02*
X-927298Y135087D01*
X-927298Y137417D01*
X-926133Y138582D01*
X-924968Y138582D01*
X-923803Y137417D01*
X-923803Y136252D01*
X-923803Y137417D02*
X-922638Y138582D01*
X-921473Y138582D01*
X-920308Y137417D01*
X-920308Y135087D01*
X-921473Y133922D01*
D16*
X-931610Y210958D02*
X-931610Y248042D01*
X-931610Y210958D02*
X-949390Y210958D01*
X-949390Y248042D01*
X-931610Y248042D01*
D11*
X-927498Y218409D02*
X-920508Y218409D01*
X-927498Y218409D02*
X-927498Y221904D01*
X-926333Y223069D01*
X-924003Y223069D01*
X-922838Y221904D01*
X-922838Y218409D01*
X-922838Y220739D02*
X-920508Y223069D01*
X-920508Y225775D02*
X-920508Y230435D01*
X-920508Y225775D02*
X-925168Y230435D01*
X-926333Y230435D01*
X-927498Y229270D01*
X-927498Y226940D01*
X-926333Y225775D01*
X-927498Y236637D02*
X-920508Y236637D01*
X-924003Y233142D02*
X-927498Y236637D01*
X-924003Y237802D02*
X-924003Y233142D01*
D21*
X-946500Y271000D03*
X-934500Y271000D03*
D22*
X-940500Y271000D03*
D11*
X-929498Y258409D02*
X-922508Y258409D01*
X-922508Y263069D01*
X-922508Y265775D02*
X-929498Y265775D01*
X-922508Y265775D02*
X-922508Y269270D01*
X-923673Y270435D01*
X-928333Y270435D01*
X-929498Y269270D01*
X-929498Y265775D01*
X-922508Y273142D02*
X-922508Y277802D01*
X-922508Y273142D02*
X-927168Y277802D01*
X-928333Y277802D01*
X-929498Y276637D01*
X-929498Y274307D01*
X-928333Y273142D01*
D12*
X-363650Y30950D02*
X-296350Y30950D01*
X-296350Y229050D01*
X-363650Y229050D01*
X-363650Y30950D01*
D11*
X-349545Y123845D02*
X-342555Y123845D01*
X-349545Y123845D02*
X-349545Y128505D01*
X-346050Y126175D02*
X-346050Y123845D01*
X-347215Y131211D02*
X-349545Y133541D01*
X-342555Y133541D01*
X-342555Y131211D02*
X-342555Y135871D01*
X-317120Y104922D02*
X-315955Y103757D01*
X-317120Y104922D02*
X-317120Y107252D01*
X-315955Y108417D01*
X-314790Y108417D01*
X-313625Y107252D01*
X-313625Y106087D01*
X-313625Y107252D02*
X-312460Y108417D01*
X-311295Y108417D01*
X-310130Y107252D01*
X-310130Y104922D01*
X-311295Y103757D01*
X-317120Y111123D02*
X-317120Y115783D01*
X-317120Y111123D02*
X-313625Y111123D01*
X-314790Y113453D01*
X-314790Y114618D01*
X-313625Y115783D01*
X-311295Y115783D01*
X-310130Y114618D01*
X-310130Y112288D01*
X-311295Y111123D01*
X-317120Y118489D02*
X-317120Y123149D01*
X-317120Y118489D02*
X-313625Y118489D01*
X-314790Y120819D01*
X-314790Y121984D01*
X-313625Y123149D01*
X-311295Y123149D01*
X-310130Y121984D01*
X-310130Y119654D01*
X-311295Y118489D01*
X-317120Y125856D02*
X-317120Y130516D01*
X-315955Y130516D01*
X-311295Y125856D01*
X-310130Y125856D01*
X-313625Y133222D02*
X-313625Y137882D01*
X-310130Y140588D02*
X-310130Y145248D01*
X-310130Y140588D02*
X-314790Y145248D01*
X-315955Y145248D01*
X-317120Y144083D01*
X-317120Y141753D01*
X-315955Y140588D01*
X-226252Y-285564D02*
X-226252Y-290224D01*
X-226252Y-285564D02*
X-225087Y-285564D01*
X-220427Y-290224D01*
X-219262Y-290224D01*
X-225087Y-282858D02*
X-226252Y-281693D01*
X-226252Y-279363D01*
X-225087Y-278198D01*
X-223922Y-278198D01*
X-222757Y-279363D01*
X-222757Y-280528D01*
X-222757Y-279363D02*
X-221592Y-278198D01*
X-220427Y-278198D01*
X-219262Y-279363D01*
X-219262Y-281693D01*
X-220427Y-282858D01*
X-220427Y-275491D02*
X-225087Y-275491D01*
X-226252Y-274326D01*
X-226252Y-271996D01*
X-225087Y-270831D01*
X-220427Y-270831D01*
X-219262Y-271996D01*
X-219262Y-274326D01*
X-220427Y-275491D01*
X-225087Y-270831D01*
X-220427Y-268125D02*
X-219262Y-266960D01*
X-219262Y-264630D01*
X-220427Y-263465D01*
X-225087Y-263465D01*
X-226252Y-264630D01*
X-226252Y-266960D01*
X-225087Y-268125D01*
X-223922Y-268125D01*
X-222757Y-266960D01*
X-222757Y-263465D01*
X-220427Y-260759D02*
X-219262Y-259594D01*
X-219262Y-257264D01*
X-220427Y-256099D01*
X-225087Y-256099D01*
X-226252Y-257264D01*
X-226252Y-259594D01*
X-225087Y-260759D01*
X-223922Y-260759D01*
X-222757Y-259594D01*
X-222757Y-256099D01*
X-222757Y-253392D02*
X-222757Y-248733D01*
X-219262Y-246026D02*
X-219262Y-241366D01*
X-219262Y-246026D02*
X-223922Y-241366D01*
X-225087Y-241366D01*
X-226252Y-242531D01*
X-226252Y-244861D01*
X-225087Y-246026D01*
X-227390Y241816D02*
X-227390Y246476D01*
X-226225Y246476D01*
X-221565Y241816D01*
X-220400Y241816D01*
X-226225Y249182D02*
X-227390Y250347D01*
X-227390Y252677D01*
X-226225Y253842D01*
X-225060Y253842D01*
X-223895Y252677D01*
X-223895Y251512D01*
X-223895Y252677D02*
X-222730Y253842D01*
X-221565Y253842D01*
X-220400Y252677D01*
X-220400Y250347D01*
X-221565Y249182D01*
X-221565Y256548D02*
X-226225Y256548D01*
X-227390Y257713D01*
X-227390Y260043D01*
X-226225Y261208D01*
X-221565Y261208D01*
X-220400Y260043D01*
X-220400Y257713D01*
X-221565Y256548D01*
X-226225Y261208D01*
X-221565Y263915D02*
X-220400Y265080D01*
X-220400Y267410D01*
X-221565Y268575D01*
X-226225Y268575D01*
X-227390Y267410D01*
X-227390Y265080D01*
X-226225Y263915D01*
X-225060Y263915D01*
X-223895Y265080D01*
X-223895Y268575D01*
X-221565Y271281D02*
X-220400Y272446D01*
X-220400Y274776D01*
X-221565Y275941D01*
X-226225Y275941D01*
X-227390Y274776D01*
X-227390Y272446D01*
X-226225Y271281D01*
X-225060Y271281D01*
X-223895Y272446D01*
X-223895Y275941D01*
X-223895Y278647D02*
X-223895Y283307D01*
X-220400Y286013D02*
X-220400Y290673D01*
X-220400Y286013D02*
X-225060Y290673D01*
X-226225Y290673D01*
X-227390Y289508D01*
X-227390Y287178D01*
X-226225Y286013D01*
D15*
X-614000Y360000D02*
X-726000Y360000D01*
X-726000Y55000D01*
X-614000Y55000D01*
X-614000Y360000D01*
X-520000Y354000D02*
X-520000Y310000D01*
X-520000Y354000D02*
X-465000Y354000D01*
X-420000Y354000D01*
X-420000Y310000D01*
X-520000Y310000D01*
D17*
X-299500Y355000D02*
X-299500Y235000D01*
X-299500Y355000D02*
X-384500Y355000D01*
X-384500Y235000D01*
X-299500Y235000D01*
D21*
X-914000Y-301500D03*
X-926000Y-301500D03*
D22*
X-920000Y-301500D03*
D11*
X-908798Y-315391D02*
X-901808Y-315391D01*
X-901808Y-310731D01*
X-901808Y-308025D02*
X-908798Y-308025D01*
X-901808Y-308025D02*
X-901808Y-304530D01*
X-902973Y-303365D01*
X-907633Y-303365D01*
X-908798Y-304530D01*
X-908798Y-308025D01*
X-907633Y-300658D02*
X-908798Y-299493D01*
X-908798Y-297163D01*
X-907633Y-295998D01*
X-906468Y-295998D01*
X-905303Y-297163D01*
X-905303Y-298328D01*
X-905303Y-297163D02*
X-904138Y-295998D01*
X-902973Y-295998D01*
X-901808Y-297163D01*
X-901808Y-299493D01*
X-902973Y-300658D01*
D16*
X-1071110Y-278542D02*
X-1071110Y-241458D01*
X-1071110Y-278542D02*
X-1088890Y-278542D01*
X-1088890Y-241458D01*
X-1071110Y-241458D01*
D11*
X-1077308Y-236311D02*
X-1084298Y-236311D01*
X-1084298Y-232816D01*
X-1083133Y-231651D01*
X-1080803Y-231651D01*
X-1079638Y-232816D01*
X-1079638Y-236311D01*
X-1079638Y-233981D02*
X-1077308Y-231651D01*
X-1077308Y-228945D02*
X-1077308Y-224285D01*
X-1077308Y-228945D02*
X-1081968Y-224285D01*
X-1083133Y-224285D01*
X-1084298Y-225450D01*
X-1084298Y-227780D01*
X-1083133Y-228945D01*
X-1084298Y-221578D02*
X-1084298Y-216918D01*
X-1084298Y-221578D02*
X-1080803Y-221578D01*
X-1081968Y-219248D01*
X-1081968Y-218083D01*
X-1080803Y-216918D01*
X-1078473Y-216918D01*
X-1077308Y-218083D01*
X-1077308Y-220413D01*
X-1078473Y-221578D01*
D21*
X-1074000Y-301500D03*
X-1086000Y-301500D03*
D22*
X-1080000Y-301500D03*
D11*
X-1083298Y-337391D02*
X-1076308Y-337391D01*
X-1076308Y-332731D01*
X-1076308Y-330025D02*
X-1083298Y-330025D01*
X-1076308Y-330025D02*
X-1076308Y-326530D01*
X-1077473Y-325365D01*
X-1082133Y-325365D01*
X-1083298Y-326530D01*
X-1083298Y-330025D01*
X-1083298Y-319163D02*
X-1076308Y-319163D01*
X-1079803Y-322658D02*
X-1083298Y-319163D01*
X-1079803Y-317998D02*
X-1079803Y-322658D01*
D12*
X-802500Y155500D02*
X-802500Y214500D01*
X-802500Y155500D02*
X-847500Y155500D01*
X-847500Y214500D01*
X-802500Y214500D01*
D17*
X-831000Y149000D02*
X-830998Y149063D01*
X-830992Y149125D01*
X-830982Y149187D01*
X-830969Y149249D01*
X-830951Y149309D01*
X-830930Y149368D01*
X-830905Y149426D01*
X-830876Y149482D01*
X-830844Y149536D01*
X-830809Y149588D01*
X-830771Y149637D01*
X-830729Y149685D01*
X-830685Y149729D01*
X-830637Y149771D01*
X-830588Y149809D01*
X-830536Y149844D01*
X-830482Y149876D01*
X-830426Y149905D01*
X-830368Y149930D01*
X-830309Y149951D01*
X-830249Y149969D01*
X-830187Y149982D01*
X-830125Y149992D01*
X-830063Y149998D01*
X-830000Y150000D01*
X-829937Y149998D01*
X-829875Y149992D01*
X-829813Y149982D01*
X-829751Y149969D01*
X-829691Y149951D01*
X-829632Y149930D01*
X-829574Y149905D01*
X-829518Y149876D01*
X-829464Y149844D01*
X-829412Y149809D01*
X-829363Y149771D01*
X-829315Y149729D01*
X-829271Y149685D01*
X-829229Y149637D01*
X-829191Y149588D01*
X-829156Y149536D01*
X-829124Y149482D01*
X-829095Y149426D01*
X-829070Y149368D01*
X-829049Y149309D01*
X-829031Y149249D01*
X-829018Y149187D01*
X-829008Y149125D01*
X-829002Y149063D01*
X-829000Y149000D01*
X-829002Y148937D01*
X-829008Y148875D01*
X-829018Y148813D01*
X-829031Y148751D01*
X-829049Y148691D01*
X-829070Y148632D01*
X-829095Y148574D01*
X-829124Y148518D01*
X-829156Y148464D01*
X-829191Y148412D01*
X-829229Y148363D01*
X-829271Y148315D01*
X-829315Y148271D01*
X-829363Y148229D01*
X-829412Y148191D01*
X-829464Y148156D01*
X-829518Y148124D01*
X-829574Y148095D01*
X-829632Y148070D01*
X-829691Y148049D01*
X-829751Y148031D01*
X-829813Y148018D01*
X-829875Y148008D01*
X-829937Y148002D01*
X-830000Y148000D01*
X-830063Y148002D01*
X-830125Y148008D01*
X-830187Y148018D01*
X-830249Y148031D01*
X-830309Y148049D01*
X-830368Y148070D01*
X-830426Y148095D01*
X-830482Y148124D01*
X-830536Y148156D01*
X-830588Y148191D01*
X-830637Y148229D01*
X-830685Y148271D01*
X-830729Y148315D01*
X-830771Y148363D01*
X-830809Y148412D01*
X-830844Y148464D01*
X-830876Y148518D01*
X-830905Y148574D01*
X-830930Y148632D01*
X-830951Y148691D01*
X-830969Y148751D01*
X-830982Y148813D01*
X-830992Y148875D01*
X-830998Y148937D01*
X-831000Y149000D01*
D11*
X-807634Y191457D02*
X-806469Y192622D01*
X-806469Y193787D01*
X-807634Y194952D01*
X-813459Y194952D01*
X-813459Y193787D02*
X-813459Y196117D01*
X-811129Y198824D02*
X-813459Y201154D01*
X-806469Y201154D01*
X-806469Y198824D02*
X-806469Y203484D01*
X-807634Y206190D02*
X-812294Y206190D01*
X-813459Y207355D01*
X-813459Y209685D01*
X-812294Y210850D01*
X-807634Y210850D01*
X-806469Y209685D01*
X-806469Y207355D01*
X-807634Y206190D01*
X-812294Y210850D01*
D12*
X-802500Y235500D02*
X-802500Y294500D01*
X-802500Y235500D02*
X-847500Y235500D01*
X-847500Y294500D01*
X-802500Y294500D01*
D17*
X-831000Y229000D02*
X-830998Y229063D01*
X-830992Y229125D01*
X-830982Y229187D01*
X-830969Y229249D01*
X-830951Y229309D01*
X-830930Y229368D01*
X-830905Y229426D01*
X-830876Y229482D01*
X-830844Y229536D01*
X-830809Y229588D01*
X-830771Y229637D01*
X-830729Y229685D01*
X-830685Y229729D01*
X-830637Y229771D01*
X-830588Y229809D01*
X-830536Y229844D01*
X-830482Y229876D01*
X-830426Y229905D01*
X-830368Y229930D01*
X-830309Y229951D01*
X-830249Y229969D01*
X-830187Y229982D01*
X-830125Y229992D01*
X-830063Y229998D01*
X-830000Y230000D01*
X-829937Y229998D01*
X-829875Y229992D01*
X-829813Y229982D01*
X-829751Y229969D01*
X-829691Y229951D01*
X-829632Y229930D01*
X-829574Y229905D01*
X-829518Y229876D01*
X-829464Y229844D01*
X-829412Y229809D01*
X-829363Y229771D01*
X-829315Y229729D01*
X-829271Y229685D01*
X-829229Y229637D01*
X-829191Y229588D01*
X-829156Y229536D01*
X-829124Y229482D01*
X-829095Y229426D01*
X-829070Y229368D01*
X-829049Y229309D01*
X-829031Y229249D01*
X-829018Y229187D01*
X-829008Y229125D01*
X-829002Y229063D01*
X-829000Y229000D01*
X-829002Y228937D01*
X-829008Y228875D01*
X-829018Y228813D01*
X-829031Y228751D01*
X-829049Y228691D01*
X-829070Y228632D01*
X-829095Y228574D01*
X-829124Y228518D01*
X-829156Y228464D01*
X-829191Y228412D01*
X-829229Y228363D01*
X-829271Y228315D01*
X-829315Y228271D01*
X-829363Y228229D01*
X-829412Y228191D01*
X-829464Y228156D01*
X-829518Y228124D01*
X-829574Y228095D01*
X-829632Y228070D01*
X-829691Y228049D01*
X-829751Y228031D01*
X-829813Y228018D01*
X-829875Y228008D01*
X-829937Y228002D01*
X-830000Y228000D01*
X-830063Y228002D01*
X-830125Y228008D01*
X-830187Y228018D01*
X-830249Y228031D01*
X-830309Y228049D01*
X-830368Y228070D01*
X-830426Y228095D01*
X-830482Y228124D01*
X-830536Y228156D01*
X-830588Y228191D01*
X-830637Y228229D01*
X-830685Y228271D01*
X-830729Y228315D01*
X-830771Y228363D01*
X-830809Y228412D01*
X-830844Y228464D01*
X-830876Y228518D01*
X-830905Y228574D01*
X-830930Y228632D01*
X-830951Y228691D01*
X-830969Y228751D01*
X-830982Y228813D01*
X-830992Y228875D01*
X-830998Y228937D01*
X-831000Y229000D01*
D11*
X-807634Y271457D02*
X-806469Y272622D01*
X-806469Y273787D01*
X-807634Y274952D01*
X-813459Y274952D01*
X-813459Y273787D02*
X-813459Y276117D01*
X-811129Y278824D02*
X-813459Y281154D01*
X-806469Y281154D01*
X-806469Y278824D02*
X-806469Y283484D01*
X-811129Y286190D02*
X-813459Y288520D01*
X-806469Y288520D01*
X-806469Y286190D02*
X-806469Y290850D01*
M02*
