G04 EAGLE Gerber RS-274X export*
G75*
%MOMM*%
%FSLAX34Y34*%
%LPD*%
%INSolderpaste Bottom*%
%IPPOS*%
%AMOC8*
5,1,8,0,0,1.08239X$1,22.5*%
G01*
%ADD10R,2.200000X0.600000*%
%ADD11R,1.300000X1.200000*%
%ADD12R,1.200000X1.300000*%
%ADD13R,1.400000X0.600000*%
%ADD14R,1.400000X0.300000*%
%ADD15R,2.200000X2.200000*%
%ADD16R,3.400000X1.800000*%
%ADD17R,1.100000X0.450000*%
%ADD18R,0.635000X0.889000*%
%ADD19R,1.778000X5.080000*%
%ADD20R,1.000000X0.200000*%
%ADD21R,0.449656X0.749691*%
%ADD22R,0.744959X0.449725*%
%ADD23R,0.446531X0.749822*%
%ADD24R,0.747500X0.448450*%
%ADD25R,0.348100X0.698250*%
%ADD26R,0.348191X0.698900*%
%ADD27R,0.345791X0.698081*%
%ADD28R,0.348309X0.699881*%
%ADD29R,0.347369X0.699763*%
%ADD30R,0.346491X0.699556*%
%ADD31R,0.349881X0.699975*%
%ADD32R,0.345341X0.688841*%
%ADD33R,0.699525X0.338169*%
%ADD34R,0.699856X0.346850*%
%ADD35R,0.699638X0.343319*%
%ADD36R,0.699753X0.346219*%
%ADD37R,0.699666X0.345959*%
%ADD38R,0.699941X0.349481*%
%ADD39R,0.699538X0.347359*%
%ADD40R,0.695341X0.343009*%
%ADD41R,0.698350X0.347841*%
%ADD42R,0.692331X0.341459*%
%ADD43R,0.693100X0.343641*%
%ADD44R,0.693881X0.345541*%
%ADD45R,0.694591X0.347100*%
%ADD46R,0.697600X0.349181*%
%ADD47R,0.348069X0.693509*%
%ADD48R,1.199231X1.098781*%
%ADD49R,1.198269X1.095919*%
%ADD50R,2.000000X2.400000*%
%ADD51R,1.350000X0.400000*%
%ADD52R,1.550000X1.500000*%


D10*
X-526500Y87900D03*
X-526500Y24400D03*
X-526500Y100600D03*
X-526500Y75200D03*
X-526500Y62500D03*
X-578500Y24400D03*
X-526500Y37100D03*
X-526500Y49800D03*
X-578500Y37100D03*
X-578500Y49800D03*
X-578500Y62500D03*
X-578500Y75200D03*
X-578500Y87900D03*
X-578500Y100600D03*
D11*
X-938500Y170660D03*
X-938500Y150340D03*
X-916500Y170660D03*
X-916500Y150340D03*
D12*
X-452340Y70000D03*
X-472660Y70000D03*
X-452340Y92500D03*
X-472660Y92500D03*
D13*
X-565000Y259500D03*
X-565000Y250000D03*
X-565000Y240500D03*
X-590000Y240500D03*
X-590000Y250000D03*
X-590000Y259500D03*
D14*
X-495500Y260000D03*
X-495500Y255000D03*
X-495500Y250000D03*
X-495500Y245000D03*
X-495500Y240000D03*
X-539500Y240000D03*
X-539500Y245000D03*
X-539500Y250000D03*
X-539500Y255000D03*
X-539500Y260000D03*
D12*
X-452340Y227500D03*
X-472660Y227500D03*
X-452340Y205000D03*
X-472660Y205000D03*
X-497340Y205000D03*
X-517660Y205000D03*
X-897340Y45000D03*
X-917660Y45000D03*
X-897340Y23000D03*
X-917660Y23000D03*
X-539840Y182500D03*
X-560160Y182500D03*
X-582340Y182500D03*
X-602660Y182500D03*
X-602660Y137500D03*
X-582340Y137500D03*
X-602660Y160000D03*
X-582340Y160000D03*
X-624840Y160000D03*
X-645160Y160000D03*
X-624840Y137500D03*
X-645160Y137500D03*
X-472660Y160000D03*
X-452340Y160000D03*
X-624840Y25000D03*
X-645160Y25000D03*
X-645160Y115000D03*
X-624840Y115000D03*
X-560160Y160000D03*
X-539840Y160000D03*
X-687660Y205000D03*
X-667340Y205000D03*
X-645160Y92500D03*
X-624840Y92500D03*
X-667340Y182500D03*
X-687660Y182500D03*
X-687660Y160000D03*
X-667340Y160000D03*
X-472660Y115000D03*
X-452340Y115000D03*
X-624840Y70000D03*
X-645160Y70000D03*
X-624840Y47500D03*
X-645160Y47500D03*
X-472660Y137500D03*
X-452340Y137500D03*
X-602660Y205000D03*
X-582340Y205000D03*
X-624840Y3000D03*
X-645160Y3000D03*
X-472660Y182500D03*
X-452340Y182500D03*
D15*
X-758100Y-58000D03*
X-628100Y-58000D03*
D16*
X-510000Y-50000D03*
X-510000Y-102000D03*
X-460000Y-50000D03*
X-460000Y-102000D03*
D17*
X-983000Y-204750D03*
X-983000Y-198250D03*
X-983000Y-191750D03*
X-983000Y-185250D03*
X-957000Y-185250D03*
X-957000Y-191750D03*
X-957000Y-198250D03*
X-957000Y-204750D03*
D18*
X-979050Y-78400D03*
X-966350Y-78400D03*
X-953650Y-78400D03*
X-940950Y-78400D03*
D19*
X-971150Y-116350D03*
X-948850Y-116350D03*
D12*
X-880160Y160000D03*
X-859840Y160000D03*
X-880160Y240000D03*
X-859840Y240000D03*
X-1024840Y-178000D03*
X-1045160Y-178000D03*
X-1045160Y-156000D03*
X-1024840Y-156000D03*
X-1045160Y-200000D03*
X-1024840Y-200000D03*
X-1024840Y-222000D03*
X-1045160Y-222000D03*
D11*
X-820000Y-292660D03*
X-820000Y-272340D03*
X-842500Y-292660D03*
X-842500Y-272340D03*
D20*
X-62650Y50000D03*
X-31650Y50000D03*
D21*
X-1115248Y96002D03*
D22*
X-1113999Y162775D03*
D23*
X-1073733Y96001D03*
D24*
X-1074992Y162763D03*
D25*
X-1102491Y108009D03*
D26*
X-1094491Y108006D03*
D27*
X-1086479Y108010D03*
D28*
X-1082492Y96001D03*
D29*
X-1090487Y96001D03*
D30*
X-1098482Y96002D03*
D31*
X-1106499Y96000D03*
D32*
X-1090477Y160056D03*
D33*
X-1113998Y154059D03*
D34*
X-1113999Y146016D03*
D35*
X-1113998Y138033D03*
D36*
X-1113999Y130019D03*
D37*
X-1113998Y122020D03*
D38*
X-1114000Y114003D03*
D39*
X-1113998Y106013D03*
D40*
X-1074977Y154035D03*
D41*
X-1074992Y146011D03*
D42*
X-1074962Y138043D03*
D43*
X-1074965Y130032D03*
D44*
X-1074969Y122022D03*
D45*
X-1074973Y114015D03*
D46*
X-1074988Y106004D03*
D47*
X-1098490Y160032D03*
D48*
X-1094496Y126506D03*
D49*
X-1094491Y141520D03*
D50*
X-1074500Y65000D03*
X-1114500Y65000D03*
D11*
X-1115000Y35160D03*
X-1115000Y14840D03*
X-1075000Y35160D03*
X-1075000Y14840D03*
D51*
X-48309Y-35815D03*
X-48309Y-42315D03*
X-48309Y-48815D03*
X-48309Y-55315D03*
X-48309Y-61815D03*
D52*
X-21309Y-38815D03*
X-21309Y-58815D03*
M02*
